<?xml version="1.0" standalone="no"?>
<!DOCTYPE svg PUBLIC "-//W3C//DTD SVG 1.1//EN" "http://www.w3.org/Graphics/SVG/1.1/DTD/svg11.dtd" >
<svg xmlns="http://www.w3.org/2000/svg" xmlns:xlink="http://www.w3.org/1999/xlink" version="1.1">
<metadata>
Created by FontForge 20150318 at Thu Sep  3 13:07:12 2015
 By uniteet7
Copyright (c) 2011, Copyright (c) 2011, TypeTogether (www.type-together.com), with Reserved Font Names "Abril" and "Abril Fatface"
</metadata>
<defs>
<font id="AbrilFatface-Regular" horiz-adv-x="500" >
  <font-face 
    font-family="Abril Fatface"
    font-weight="400"
    font-stretch="normal"
    units-per-em="1000"
    panose-1="2 0 5 3 0 0 0 2 0 3"
    ascent="800"
    descent="-200"
    x-height="476"
    cap-height="700"
    bbox="-181 -291 1131 1058"
    underline-thickness="50"
    underline-position="-50"
    stemh="18"
    stemv="186"
    unicode-range="U+0020-FB04"
  />
<missing-glyph horiz-adv-x="200" 
 />
    <glyph glyph-name="ij" unicode="ij" horiz-adv-x="623" 
d="M59 638c0 49 27 93 102 93c62 0 99 -31 99 -92c0 -53 -29 -94 -101 -94c-81 0 -100 51 -100 93zM6 476h245v-458h56v-18h-297v18h55v440h-59v18zM568 476v-390c0 -208 -64 -336 -241 -336c-121 0 -160 60 -160 111c0 60 42 90 92 90c53 0 77 -34 77 -77
c0 -14 -3 -30 -6 -42h-38c-23 -36 0 -65 34 -65c45 0 56 33 56 177v514h-65v18h251zM375 638c0 49 27 93 102 93c62 0 99 -31 99 -92c0 -53 -29 -94 -101 -94c-81 0 -100 51 -100 93z" />
    <glyph glyph-name="ff" unicode="ff" horiz-adv-x="712" 
d="M642 756c-54 0 -62 -44 -62 -120v-160h132v-18h-132v-440h122v-18h-363v18h55v440h-143v-440h50v-18h-291v18h55v440h-58v18h58v2c0 182 77 272 239 272c78 0 118 -28 140 -65c39 54 99 88 189 88c125 0 159 -63 159 -112c0 -60 -36 -87 -83 -87c-54 0 -80 30 -80 71
c0 15 3 31 6 43h38c5 12 7 23 7 32c0 26 -18 36 -38 36zM313 733c-54 0 -62 -44 -62 -120v-137h143v4l16 82c-8 -7 -24 -11 -37 -11c-47 0 -73 30 -73 71c0 15 3 31 6 43h38c5 12 7 23 7 32c0 26 -18 36 -38 36z" />
    <glyph glyph-name="fi" unicode="fi" horiz-adv-x="646" 
d="M364 756c-79 0 -113 -44 -113 -120v-160h329v-458h56v-18h-287v18h45v440h-143v-440h64v-18h-305v18h55v440h-58v18h58v2c0 182 101 295 309 295c117 0 181 -57 181 -122c0 -60 -38 -87 -85 -87c-54 0 -83 30 -83 71c0 15 3 31 6 43l41 11c18 49 -24 67 -70 67z" />
    <glyph glyph-name="fl" unicode="fl" horiz-adv-x="645" 
d="M313 756c-54 0 -62 -44 -62 -120v-160h92v-18h-92v-440h58v-18h-299v18h55v440h-58v18h58v2c0 182 77 295 239 295c88 0 131 -32 149 -68l105 45h22v-732h56v-18h-287v18h45v511l11 57c-10 -8 -24 -10 -39 -10c-40 0 -66 29 -66 69c0 15 3 31 6 43h38c5 12 7 23 7 32
c0 26 -18 36 -38 36z" />
    <glyph glyph-name="ffi" unicode="ffi" horiz-adv-x="977" 
d="M695 756c-79 0 -113 -44 -113 -120v-160h329v-458h56v-18h-287v18h45v440h-143v-440h64v-18h-305v18h55v440h-145v-440h50v-18h-291v18h55v440h-58v18h58v2c0 182 77 272 239 272c94 0 137 -36 152 -75c50 63 133 98 249 98c117 0 181 -57 181 -122
c0 -60 -38 -87 -85 -87c-54 0 -83 30 -83 71c0 15 3 31 6 43l41 11c18 49 -24 67 -70 67zM313 733c-54 0 -62 -44 -62 -120v-137h145v2l16 85c-9 -8 -24 -12 -37 -12c-49 0 -75 30 -75 71c0 15 3 31 6 43h38c18 49 -4 68 -31 68z" />
    <glyph glyph-name="ffl" unicode="ffl" horiz-adv-x="974" 
d="M642 756c-54 0 -62 -44 -62 -120v-160h92v-18h-92v-440h58v-18h-299v18h55v440h-143v-440h50v-18h-291v18h55v440h-58v18h58v2c0 182 77 272 239 272c83 0 126 -28 145 -61c40 54 100 84 184 84c88 0 131 -32 149 -68l105 45h22v-732h56v-18h-287v18h45v510l11 58
c-6 -6 -23 -10 -36 -10c-44 0 -69 28 -69 69c0 15 3 31 6 43h38c20 49 -4 68 -31 68zM313 733c-54 0 -62 -44 -62 -120v-137h143v2l17 85c-8 -8 -25 -12 -39 -12c-46 0 -72 30 -72 71c0 15 3 31 6 43h38c18 49 -4 68 -31 68z" />
    <glyph glyph-name="t_t" unicode="tt" horiz-adv-x="716" 
d="M50 143v315h-55v18h55v129l186 46v-175h146v129l186 46v-175h130v-18h-130v-337c0 -59 9 -91 44 -91c48 0 78 44 87 112l17 -2c-9 -78 -42 -150 -164 -150c-83 0 -145 20 -164 98c-20 -55 -65 -98 -163 -98c-100 0 -175 29 -175 153zM382 143v315h-146v-337
c0 -59 10 -91 58 -91c44 0 79 44 88 113z" />
    <glyph glyph-name=".notdef" horiz-adv-x="200" 
 />
    <glyph glyph-name=".null" horiz-adv-x="0" 
 />
    <glyph glyph-name="CR" horiz-adv-x="200" 
 />
    <glyph glyph-name="space" unicode=" " horiz-adv-x="180" 
 />
    <glyph glyph-name="quotesingle" unicode="'" horiz-adv-x="186" 
d="M79 481l-29 266c26 13 47 20 65 20c20 0 34 -13 34 -37c0 -19 -4 -42 -9 -66l-40 -183h-21z" />
    <glyph glyph-name="quotedbl" unicode="&#x22;" horiz-adv-x="334" 
d="M227 481l-29 266c26 13 47 20 65 20c20 0 34 -13 34 -37c0 -19 -4 -42 -9 -66l-40 -183h-21zM79 481l-29 266c26 13 47 20 65 20c20 0 34 -13 34 -37c0 -19 -4 -42 -9 -66l-40 -183h-21z" />
    <glyph glyph-name="numbersign" unicode="#" horiz-adv-x="608" 
d="M163 0h-25l27 169h-120l16 92h117l26 146h-120l15 93h117l21 140h26l-22 -140h172l21 140h26l-22 -140h128l-14 -93h-126l-24 -146h126l-14 -92h-124l-28 -169h-25l28 169h-174zM401 407h-172l-26 -146h174z" />
    <glyph glyph-name="ampersand" unicode="&#x26;" horiz-adv-x="822" 
d="M515 -226c68 0 102 77 102 161c0 62 -24 103 -53 142c-42 -48 -104 -87 -213 -87c-159 0 -286 50 -286 187c0 85 40 142 157 168c-56 51 -88 102 -88 173c0 137 113 193 230 193c140 0 200 -55 200 -133c0 -69 -51 -124 -161 -162c22 -15 48 -32 78 -51
c53 -34 107 -68 152 -111c11 51 16 100 17 146h-79v20h174v-20h-70c-1 -57 -6 -113 -19 -169c48 -53 87 -105 87 -203c0 -143 -119 -278 -249 -278c-87 0 -137 38 -137 101c0 50 35 84 83 84c51 0 80 -25 80 -72c0 -10 -2 -22 -6 -36h-35c-10 -30 -4 -53 36 -53zM379 16
c82 0 134 37 168 82c-33 35 -69 64 -129 104c-73 48 -135 87 -182 128c-10 -21 -15 -56 -15 -125c0 -142 56 -189 158 -189zM269 588c0 -62 25 -97 116 -160c62 33 63 78 63 144c0 80 -30 118 -87 118c-42 0 -92 -21 -92 -102z" />
    <glyph glyph-name="asterisk" unicode="*" horiz-adv-x="529" 
d="M465 608l-183 -33l132 -35c24 -6 54 -15 54 -48c0 -37 -35 -61 -68 -74l-129 143l45 -188c-24 -19 -48 -26 -66 -26c-28 0 -49 15 -49 40c0 14 1 25 9 49l43 126l-124 -144c-30 11 -68 36 -68 74c0 32 28 41 62 50l119 33l-178 33c-3 12 -4 27 -4 37c0 27 14 65 49 65
c21 0 31 -11 55 -33l91 -87l-44 175c24 19 48 26 66 26c28 0 49 -15 49 -40c0 -14 -4 -34 -13 -58l-39 -104l89 89c19 19 36 32 57 32c33 0 49 -30 49 -65c0 -15 -1 -25 -4 -37z" />
    <glyph glyph-name="comma" unicode="," horiz-adv-x="262" 
d="M86 -156l-12 15c88 75 100 106 100 144c0 30 -17 41 -31 43l-48 -43c-26 9 -60 36 -60 78c0 48 34 82 85 82c62 0 97 -50 97 -112c0 -78 -39 -139 -131 -207z" />
    <glyph glyph-name="hyphen" unicode="-" horiz-adv-x="352" 
d="M50 278v30h252v-30h-252z" />
    <glyph glyph-name="period" unicode="." horiz-adv-x="265" 
d="M45 76c0 49 30 88 86 88c52 0 89 -26 89 -85c0 -53 -30 -89 -86 -89c-67 0 -89 46 -89 86z" />
    <glyph glyph-name="colon" unicode=":" horiz-adv-x="265" 
d="M45 407c0 49 30 88 86 88c52 0 89 -26 89 -85c0 -53 -30 -89 -86 -89c-67 0 -89 46 -89 86zM45 76c0 49 30 88 86 88c52 0 89 -26 89 -85c0 -53 -30 -89 -86 -89c-67 0 -89 46 -89 86z" />
    <glyph glyph-name="semicolon" unicode=";" horiz-adv-x="262" 
d="M86 -156l-12 15c88 75 100 106 100 144c0 30 -17 41 -31 43l-48 -43c-26 9 -60 36 -60 78c0 48 34 82 85 82c62 0 97 -50 97 -112c0 -78 -39 -139 -131 -207zM36 407c0 49 30 88 86 88c52 0 89 -26 89 -85c0 -53 -30 -89 -86 -89c-67 0 -89 46 -89 86z" />
    <glyph glyph-name="question" unicode="?" horiz-adv-x="580" 
d="M286 711c144 0 228 -56 228 -166c0 -79 -48 -133 -100 -180l-151 -134v-58h-25v210c0 12 3 20 11 28l62 63c39 39 51 66 51 121c0 63 -29 97 -90 97c-64 0 -83 -43 -83 -75c0 -8 2 -18 6 -29h32c5 -13 8 -26 8 -45c0 -47 -38 -78 -88 -78c-62 0 -89 44 -89 93
c0 81 73 153 228 153zM174 65c0 42 27 76 75 76c44 0 77 -22 77 -74c0 -46 -27 -77 -75 -77c-58 0 -77 38 -77 75z" />
    <glyph glyph-name="exclam" unicode="!" horiz-adv-x="377" 
d="M178 178v86c0 157 -65 266 -65 366c0 63 42 81 81 81c38 0 76 -16 76 -81c0 -107 -70 -208 -70 -367v-85h-22zM111 65c0 42 27 76 75 76c44 0 77 -22 77 -74c0 -46 -27 -77 -75 -77c-58 0 -77 38 -77 75z" />
    <glyph glyph-name="exclamdown" unicode="&#xa1;" horiz-adv-x="377" 
d="M178 212v86h22v-85c0 -159 70 -260 70 -367c0 -65 -38 -81 -76 -81c-39 0 -81 18 -81 81c0 100 65 209 65 366zM111 411c0 37 19 75 77 75c48 0 75 -31 75 -77c0 -52 -33 -74 -77 -74c-48 0 -75 34 -75 76z" />
    <glyph glyph-name="questiondown" unicode="&#xbf;" horiz-adv-x="580" 
d="M298 -235c-144 0 -228 56 -228 166c0 79 48 133 100 180l151 134v58h25v-210c0 -12 -3 -20 -11 -28l-62 -63c-39 -39 -51 -66 -51 -121c0 -63 29 -97 90 -97c64 0 83 43 83 75c0 8 -2 18 -6 29h-32c-5 13 -8 26 -8 45c0 47 38 78 88 78c62 0 89 -44 89 -93
c0 -81 -73 -153 -228 -153zM410 411c0 -42 -27 -76 -75 -76c-44 0 -77 22 -77 74c0 46 27 77 75 77c58 0 77 -38 77 -75z" />
    <glyph glyph-name="at" unicode="@" horiz-adv-x="879" 
d="M433 395c42 0 64 -15 87 -37l17 30h109l-32 -182c-7 -42 -12 -76 -12 -106c0 -50 9 -78 57 -78c52 0 124 73 124 215c0 193 -117 313 -323 313c-191 0 -362 -138 -362 -376c0 -245 188 -333 366 -333c101 0 180 38 233 83l16 -18c-60 -56 -159 -89 -250 -89
c-206 0 -393 108 -393 353c0 231 160 402 397 402c199 0 342 -116 342 -328c0 -170 -76 -251 -201 -251c-85 0 -116 34 -131 72c-12 -32 -39 -70 -98 -70c-98 0 -146 73 -146 152c0 176 112 248 200 248zM481 130l34 214c-20 21 -38 30 -66 30c-84 0 -100 -199 -100 -274
c0 -60 17 -84 51 -84c39 0 71 48 81 114z" />
    <glyph glyph-name="at.case" horiz-adv-x="879" 
d="M433 527c42 0 64 -15 87 -37l17 30h109l-32 -182c-7 -42 -12 -76 -12 -106c0 -50 9 -78 57 -78c52 0 124 73 124 215c0 193 -117 313 -323 313c-191 0 -362 -138 -362 -376c0 -245 188 -333 366 -333c101 0 180 38 233 83l16 -18c-60 -56 -159 -89 -250 -89
c-206 0 -393 108 -393 353c0 231 160 402 397 402c199 0 342 -116 342 -328c0 -170 -76 -251 -201 -251c-85 0 -116 34 -131 72c-12 -32 -39 -70 -98 -70c-98 0 -146 73 -146 152c0 176 112 248 200 248zM481 262l34 214c-20 21 -38 30 -66 30c-84 0 -100 -199 -100 -274
c0 -60 17 -84 51 -84c39 0 71 48 81 114z" />
    <glyph glyph-name="A" unicode="A" horiz-adv-x="694" 
d="M432 19l-73 216h-198l-77 -216h75v-19h-153v19h47l255 687h82l252 -687h46v-19h-327v19h71zM264 519l-94 -262h181z" />
    <glyph glyph-name="B" unicode="B" horiz-adv-x="659" 
d="M21 700h299c176 0 278 -40 278 -164c0 -96 -60 -147 -165 -164v-2c126 -16 200 -69 200 -174c0 -155 -130 -196 -318 -196h-294v19h65v662h-65v19zM281 354v-335h47c77 0 99 58 99 150v53c0 82 -26 132 -123 132h-23zM281 681v-308h26c72 0 93 46 93 128v47
c0 96 -17 133 -87 133h-32z" />
    <glyph glyph-name="C" unicode="C" horiz-adv-x="690" 
d="M400 691c-101 0 -155 -92 -155 -299v-79c0 -184 53 -303 162 -303c81 0 146 84 202 214h18l-7 -223h-11c-7 13 -11 20 -27 20c-34 0 -89 -31 -199 -31c-212 0 -342 112 -342 351c0 242 140 370 345 370c104 0 152 -31 187 -31c16 0 20 7 27 20h11l8 -217h-18
c-55 123 -115 208 -201 208z" />
    <glyph glyph-name="D" unicode="D" horiz-adv-x="755" 
d="M714 362c0 -282 -171 -362 -410 -362h-283v19h66v662h-66v19h309c247 0 384 -89 384 -338zM282 19h38c135 0 188 87 188 311v58c0 243 -62 293 -202 293h-24v-662z" />
    <glyph glyph-name="E" unicode="E" horiz-adv-x="624" 
d="M21 700h520l10 -198h-18c-55 131 -102 176 -223 176h-35v-309h34c65 0 107 55 124 131h15v-296h-17c-24 100 -62 139 -132 139h-24v-321h38c127 0 215 87 245 196h20l-8 -218h-549v22h59v656h-59v22z" />
    <glyph glyph-name="F" unicode="F" horiz-adv-x="592" 
d="M21 700h520l10 -208h-18c-49 144 -102 186 -230 186h-28v-325h45c65 0 108 51 124 131h15v-296h-17c-22 101 -57 139 -122 139h-45v-305h124v-22h-378v22h59v656h-59v22z" />
    <glyph glyph-name="G" unicode="G" horiz-adv-x="723" 
d="M390 10c70 0 76 28 76 79v194h-64v22h288v-22h-39v-282h-15c-12 17 -23 25 -51 25c-40 0 -115 -36 -202 -36c-212 0 -342 112 -342 351c0 242 140 370 345 370c104 0 158 -31 193 -31c16 0 20 7 27 20h11l8 -217h-18c-56 112 -121 208 -209 208c-99 0 -153 -92 -153 -299
v-79c0 -203 53 -303 145 -303z" />
    <glyph glyph-name="H" unicode="H" horiz-adv-x="749" 
d="M21 700h312v-19h-58v-310h199v310h-59v19h313v-19h-59v-662h59v-19h-313v19h59v326h-199v-326h58v-19h-312v19h59v662h-59v19z" />
    <glyph glyph-name="I" unicode="I" horiz-adv-x="355" 
d="M25 700h305v-19h-55v-662h55v-19h-305v19h55v662h-55v19z" />
    <glyph glyph-name="J" unicode="J" horiz-adv-x="517" 
d="M176 700h325v-19h-55v-432c0 -184 -86 -258 -244 -258c-107 0 -176 43 -176 118c0 57 35 92 89 92c58 0 83 -33 83 -77c0 -17 -4 -35 -11 -54h-39c-6 -10 -9 -18 -9 -26c0 -21 20 -35 49 -35c53 0 63 28 63 168v504h-75v19z" />
    <glyph glyph-name="K" unicode="K" horiz-adv-x="734" 
d="M25 700h305v-19h-55v-316l8 2l282 314h-79v19h175v-19h-60l-172 -192l240 -470h54v-19h-321v19h47l-165 319l-9 -2v-317h55v-19h-305v19h55v662h-55v19z" />
    <glyph glyph-name="L" unicode="L" horiz-adv-x="596" 
d="M21 700h360v-22h-106v-656h36c124 0 179 90 238 212h21l-19 -234h-530v22h59v656h-59v22z" />
    <glyph glyph-name="M" unicode="M" horiz-adv-x="840" 
d="M548 700h267v-19h-55v-662h55v-19h-305v19h55v625h-4l-150 -644h-125l-176 647h-4v-628h55v-19h-136v19h55v662h-55v19h270l133 -515z" />
    <glyph glyph-name="N" unicode="N" horiz-adv-x="670" 
d="M590 681v-681h-140l-343 647v-628h55v-19h-137v19h55v662h-55v19h276l262 -502v483h-55v19h137v-19h-55z" />
    <glyph glyph-name="O" unicode="O" horiz-adv-x="748" 
d="M501 309v74c0 205 -6 307 -126 307c-121 0 -129 -106 -129 -311v-72c0 -188 12 -296 129 -296c112 0 126 97 126 298zM41 339c0 230 119 372 342 372c215 0 324 -132 324 -359c0 -223 -105 -362 -336 -362c-223 0 -330 129 -330 349z" />
    <glyph glyph-name="P" unicode="P" horiz-adv-x="634" 
d="M15 700h294c188 0 299 -42 299 -199c0 -170 -131 -214 -325 -214h-8v-268h125v-19h-385v19h65v662h-65v19zM275 681v-375h21c84 0 106 58 106 174v48c0 113 -24 153 -100 153h-27z" />
    <glyph glyph-name="Q" unicode="Q" horiz-adv-x="748" 
d="M41 339c0 230 119 372 342 372c215 0 324 -132 324 -359c0 -207 -88 -335 -284 -353v-7c82 -9 110 -49 126 -98c17 -49 26 -71 58 -71c26 0 40 24 45 80l22 -2c-3 -90 -61 -136 -143 -136c-109 0 -148 57 -172 136c-18 58 -27 65 -45 65c-17 0 -45 -15 -74 -41l-14 16
c19 19 56 43 91 49v6c-183 19 -276 144 -276 343zM501 309v74c0 205 -6 307 -126 307c-121 0 -129 -106 -129 -311v-72c0 -188 12 -296 129 -296c112 0 126 97 126 298z" />
    <glyph glyph-name="R" unicode="R" horiz-adv-x="716" 
d="M328 354h-53v-335h65v-19h-325v19h65v662h-65v19h302c209 0 309 -22 309 -168c0 -122 -64 -158 -170 -167v-3c108 -14 145 -56 145 -172v-53c0 -65 3 -88 31 -88c18 0 33 8 46 86l17 -2c-15 -114 -43 -143 -136 -143c-126 0 -163 42 -163 183v73c0 71 -14 108 -68 108z
M275 681v-308h32c74 0 112 41 112 149v29c0 112 -41 130 -111 130h-33z" />
    <glyph glyph-name="S" unicode="S" horiz-adv-x="600" 
d="M325 11c60 0 127 32 127 105c0 83 -62 110 -185 145c-121 34 -213 82 -213 233c0 112 83 217 237 217c92 0 144 -31 178 -31c17 0 22 7 29 20h11l7 -202h-16c-51 92 -119 192 -222 192c-72 0 -122 -42 -122 -101c0 -74 68 -99 169 -126c111 -30 234 -68 234 -234
c0 -144 -98 -239 -245 -239c-97 0 -181 30 -209 30c-16 0 -22 -11 -30 -30h-14l-10 238h17c50 -100 147 -217 257 -217z" />
    <glyph glyph-name="T" unicode="T" horiz-adv-x="683" 
d="M636 700l10 -251h-19c-54 163 -85 230 -176 230h-12v-658h85v-21h-365v21h85v658h-13c-91 0 -125 -75 -176 -230h-19l10 251h590z" />
    <glyph glyph-name="U" unicode="U" horiz-adv-x="683" 
d="M420 23c101 0 166 63 166 206v452h-65v19h146v-19h-55v-445c0 -154 -51 -246 -256 -246c-163 0 -280 58 -280 257v434h-55v19h315v-19h-65v-468c0 -110 26 -190 149 -190z" />
    <glyph glyph-name="V" unicode="V" horiz-adv-x="685" 
d="M430 181l174 500h-78v19h153v-19h-47l-241 -691h-84l-255 691h-46v19h327v-19h-71z" />
    <glyph glyph-name="W" unicode="W" horiz-adv-x="1015" 
d="M424 202l83 288l-60 191h-57v19h310v-19h-59l149 -473l120 473h-101v19h200v-19h-66l-184 -691h-89l-148 452l-130 -452h-87l-252 691h-47v19h325v-19h-70z" />
    <glyph glyph-name="X" unicode="X" horiz-adv-x="711" 
d="M700 0h-342v19h66l-149 264l-159 -264h106v-19h-207v19h67l175 294l-209 367h-54v20h337v-20h-68l135 -242l151 242h-104v20h205v-20h-66l-169 -270l227 -391h58v-19z" />
    <glyph glyph-name="Y" unicode="Y" horiz-adv-x="641" 
d="M397 371l142 313h-101v16h197v-16h-66l-151 -334v-331h61v-19h-317v19h61v312l-170 353h-47v16h320v-16h-65z" />
    <glyph glyph-name="Z" unicode="Z" horiz-adv-x="612" 
d="M559 700v-22l-296 -655h34c117 0 216 77 257 221h18l-12 -244h-512v19l299 659h-41c-121 0 -163 -41 -239 -199h-18l15 221h495z" />
    <glyph glyph-name="a" unicode="a" horiz-adv-x="549" 
d="M250 235h29v77c0 127 -11 160 -51 160c-18 0 -47 -8 -47 -40c0 -8 2 -18 6 -29h25c5 -13 8 -26 8 -45c0 -47 -38 -78 -88 -78c-62 0 -86 34 -86 83c0 84 73 123 209 123c157 0 210 -44 210 -189v-203c0 -41 12 -52 29 -52c18 0 35 19 40 103l15 -1
c-5 -120 -42 -154 -128 -154c-81 0 -126 25 -138 74c-16 -48 -45 -74 -115 -74s-148 21 -148 121c0 101 87 124 230 124zM236 30c19 0 43 32 43 96v93h-7c-42 0 -62 -30 -62 -91v-16c0 -72 7 -82 26 -82z" />
    <glyph glyph-name="b" unicode="b" horiz-adv-x="588" 
d="M329 443c-41 0 -78 -48 -78 -135v-186c0 -54 23 -103 65 -103c49 0 59 59 59 198v52c0 141 -12 174 -46 174zM251 750v-350c22 50 58 86 134 86c114 0 183 -78 183 -249s-70 -247 -206 -247c-69 0 -103 19 -117 69l-7 -59h-228v18h55v714h-55v18h241z" />
    <glyph glyph-name="c" unicode="c" horiz-adv-x="483" 
d="M290 468c-58 0 -82 -58 -82 -207v-52c0 -128 23 -185 101 -185c91 0 130 77 141 131l18 -2c-13 -62 -46 -163 -213 -163c-154 0 -240 86 -240 242c0 168 102 254 267 254c122 0 183 -52 183 -127c0 -62 -33 -94 -83 -94c-52 0 -89 27 -89 83c0 9 1 22 5 36h33
c5 14 7 26 7 36c0 34 -20 48 -48 48z" />
    <glyph glyph-name="d" unicode="d" horiz-adv-x="588" 
d="M268 33c29 0 69 28 69 103v218c0 54 -21 103 -65 103c-49 0 -59 -59 -59 -198v-52c0 -141 12 -174 55 -174zM350 0l-11 70c-21 -50 -60 -80 -138 -80c-111 0 -181 79 -181 247c0 169 70 249 198 249c62 0 98 -18 116 -49v295h-61v18h250v-732h49v-18h-222z" />
    <glyph glyph-name="e" unicode="e" horiz-adv-x="516" 
d="M15 237c0 173 118 249 257 249c157 0 224 -79 218 -228h-282v-39c0 -118 21 -198 118 -198c74 0 124 47 146 124l18 -3c-23 -86 -75 -152 -217 -152c-178 0 -258 102 -258 247zM209 278h103v49c0 105 -8 140 -49 140c-35 0 -54 -34 -54 -140v-49z" />
    <glyph glyph-name="f" unicode="f" horiz-adv-x="383" 
d="M313 756c-54 0 -62 -44 -62 -120v-160h132v-18h-132v-440h122v-18h-363v18h55v440h-58v18h58v4c0 182 59 293 239 293c125 0 159 -63 159 -112c0 -60 -36 -87 -83 -87c-54 0 -80 30 -80 71c0 15 3 31 6 43h38c18 49 -4 68 -31 68z" />
    <glyph glyph-name="f.calt" horiz-adv-x="369" 
d="M217 753c-31 0 -60 -19 -60 -63c0 -15 4 -34 14 -54l80 -160h122v-18h-122v-440h108v-18h-349v18h55v440h-58v18h58v47c0 139 56 250 178 250c96 0 136 -59 136 -109c0 -61 -37 -87 -83 -87c-53 0 -79 35 -79 78c0 7 0 14 1 21l38 6c17 40 8 71 -39 71z" />
    <glyph glyph-name="g" unicode="g" horiz-adv-x="522" 
d="M411 528l28 17c3 16 -3 31 -24 31c-13 0 -43 -4 -43 -66c0 -16 2 -36 7 -60c39 -26 76 -61 76 -127c0 -114 -82 -171 -204 -171c-29 0 -60 4 -81 8c-35 -22 -44 -33 -44 -42s11 -14 64 -14h102c113 0 227 -27 227 -163c0 -111 -80 -191 -282 -191
c-174 0 -247 42 -247 107c0 50 42 70 77 80l60 -27c-6 -22 -8 -39 -8 -55c0 -42 21 -86 128 -86c106 0 162 43 162 106c0 48 -22 67 -127 67h-97c-119 0 -151 49 -151 93c0 57 36 85 114 132c-78 22 -116 69 -116 152c0 94 65 167 216 167c49 0 78 -7 111 -25
c-4 18 -6 34 -6 49c0 82 57 106 98 106c47 0 81 -26 81 -74c0 -46 -30 -66 -63 -66c-30 0 -56 18 -58 52zM199 341v-54c0 -94 17 -115 47 -115c27 0 44 16 44 120v49c0 112 -16 127 -43 127c-28 0 -48 -18 -48 -127z" />
    <glyph glyph-name="g.calt" horiz-adv-x="509" 
d="M365 449c43 -28 70 -60 70 -126c0 -114 -82 -171 -204 -171c-29 0 -52 3 -73 7c-35 -22 -42 -32 -42 -41s11 -14 64 -14h92c113 0 227 -27 227 -163c0 -111 -80 -191 -282 -191c-160 0 -217 42 -217 103c0 45 42 66 77 76l60 -27c-6 -22 -8 -31 -8 -47
c0 -42 20 -86 107 -86c97 0 153 43 153 106c0 48 -22 67 -127 67h-87c-119 0 -151 49 -151 93c0 57 26 85 104 132c-78 22 -116 69 -116 152c0 94 65 167 216 167c47 0 84 -9 117 -26c-4 17 -5 36 -5 50c0 82 57 106 98 106c47 0 81 -26 81 -74c0 -46 -30 -66 -63 -66
c-30 0 -56 18 -58 52l28 17c3 16 -3 31 -24 31c-13 0 -43 -4 -43 -66c0 -15 2 -39 6 -61zM179 341v-54c0 -94 17 -115 47 -115c27 0 44 16 44 120v49c0 112 -16 127 -43 127c-28 0 -48 -18 -48 -127z" />
    <glyph glyph-name="h" unicode="h" horiz-adv-x="616" 
d="M10 750h241v-366c17 50 50 102 149 102c93 0 155 -46 155 -167v-301h56v-18h-283v18h41v325c0 85 -12 95 -37 95c-42 0 -81 -63 -81 -144v-276h43v-18h-284v18h55v714h-55v18z" />
    <glyph glyph-name="i" unicode="i" horiz-adv-x="317" 
d="M59 638c0 49 27 93 102 93c62 0 99 -31 99 -92c0 -53 -29 -94 -101 -94c-81 0 -100 51 -100 93zM6 476h245v-458h56v-18h-297v18h55v440h-59v18z" />
    <glyph glyph-name="j" unicode="j" horiz-adv-x="311" 
d="M251 476v-390c0 -208 -64 -336 -241 -336c-121 0 -160 60 -160 111c0 60 42 90 92 90c53 0 77 -34 77 -77c0 -14 -3 -30 -6 -42h-38c-23 -36 0 -65 34 -65c45 0 56 33 56 177v514h-65v18h251zM58 638c0 49 27 93 102 93c62 0 99 -31 99 -92c0 -53 -29 -94 -101 -94
c-81 0 -100 51 -100 93z" />
    <glyph glyph-name="j.calt" horiz-adv-x="311" 
d="M251 476v-441c0 -179 -51 -286 -301 -285l-1 17c66 10 116 54 116 190v501h-66v18h252zM52 638c0 49 27 93 102 93c62 0 99 -31 99 -92c0 -53 -29 -94 -101 -94c-81 0 -100 51 -100 93z" />
    <glyph glyph-name="k" unicode="k" horiz-adv-x="620" 
d="M337 0v18h46l-113 232l-19 -5v-227h46v-18h-287v18h55v714h-59v18h245v-485l16 6l225 187h-94v18h197v-18h-70l-119 -101l173 -339h36v-18h-278z" />
    <glyph glyph-name="l" unicode="l" horiz-adv-x="316" 
d="M6 750h245v-732h56v-18h-297v18h55v714h-59v18z" />
    <glyph glyph-name="m" unicode="m" horiz-adv-x="888" 
d="M10 476h241v-92c16 50 49 102 141 102c71 0 124 -31 141 -108c16 50 57 108 147 108c87 0 147 -46 147 -167v-301h56v-18h-277v18h35v325c0 85 -11 95 -29 95c-36 0 -73 -54 -73 -138v-282h36v-18h-257v18h35v325c0 85 -11 95 -29 95c-37 0 -73 -63 -73 -144v-276h36v-18
h-277v18h55v440h-55v18z" />
    <glyph glyph-name="n" unicode="n" horiz-adv-x="616" 
d="M12 476h241v-92c17 50 50 102 149 102c93 0 155 -46 155 -167v-301h56v-18h-283v18h41v325c0 85 -12 95 -37 95c-42 0 -81 -63 -81 -144v-276h43v-18h-284v18h55v440h-55v18z" />
    <glyph glyph-name="o" unicode="o" horiz-adv-x="543" 
d="M333 197v85c0 108 -3 186 -59 186c-61 0 -64 -78 -64 -191v-78c0 -116 2 -191 63 -191c57 0 60 59 60 189zM18 236c0 164 98 250 259 250c168 0 248 -79 248 -241c0 -164 -76 -255 -254 -255c-168 0 -253 90 -253 246z" />
    <glyph glyph-name="p" unicode="p" horiz-adv-x="588" 
d="M329 443c-41 0 -78 -51 -78 -138v-183c0 -54 21 -103 65 -103c49 0 59 59 59 198v52c0 141 -12 174 -46 174zM249 476v-79c22 50 60 89 138 89c112 0 181 -79 181 -249c0 -171 -70 -247 -206 -247c-68 0 -93 18 -111 49v-259h129v-18h-370v18h55v678h-53v18h237z" />
    <glyph glyph-name="q" unicode="q" horiz-adv-x="588" 
d="M259 33c41 0 78 48 78 135v186c0 55 -23 103 -66 103c-48 0 -58 -60 -58 -198v-52c0 -141 12 -174 46 -174zM337 -220v296c-22 -50 -58 -86 -135 -86c-113 0 -182 79 -182 249c0 171 70 247 206 247c54 0 92 -17 117 -63l7 53h228v-18h-55v-678h49v-18h-337v18h102z" />
    <glyph glyph-name="r" unicode="r" horiz-adv-x="495" 
d="M344 448c-48 0 -93 -72 -93 -162v-268h71v-18h-312v18h55v440h-55v18h241v-96c18 71 74 106 134 106c59 0 106 -31 106 -107c0 -57 -30 -95 -84 -95c-67 0 -99 42 -78 113h36c20 41 0 51 -21 51z" />
    <glyph glyph-name="s" unicode="s" horiz-adv-x="434" 
d="M33 -10v179h12c37 -122 98 -157 180 -157c74 0 102 27 102 65c0 45 -49 55 -125 76c-80 22 -169 53 -169 164c0 102 70 169 176 169c44 0 74 -11 101 -23c12 -5 16 -8 28 -8c15 0 22 8 35 33h11v-153h-12c-36 92 -87 130 -158 130c-66 0 -93 -27 -93 -58
c0 -46 60 -57 126 -75c79 -21 167 -53 167 -171c0 -114 -74 -171 -187 -171c-48 0 -82 10 -120 29c-6 4 -15 8 -19 8c-13 0 -27 -9 -43 -37h-12z" />
    <glyph glyph-name="t" unicode="t" horiz-adv-x="394" 
d="M60 143v315h-55v18h55v129l186 46v-175h130v-18h-130v-337c0 -59 9 -91 44 -91c48 0 78 44 87 112l17 -2c-9 -78 -42 -150 -164 -150c-99 0 -170 29 -170 153z" />
    <glyph glyph-name="u" unicode="u" horiz-adv-x="605" 
d="M595 0h-228l-11 73c-19 -47 -51 -83 -141 -83c-93 0 -155 46 -155 167v301h-56v18h242v-343c0 -85 12 -98 37 -98c40 0 71 41 71 117v306h-46v18h232v-458h55v-18z" />
    <glyph glyph-name="v" unicode="v" horiz-adv-x="532" 
d="M0 458v18h299v-18h-63l120 -332l108 332h-67v18h135v-18h-44l-148 -458h-114l-185 458h-41z" />
    <glyph glyph-name="w" unicode="w" horiz-adv-x="834" 
d="M352 458v18h258v-18h-41l90 -337l89 337h-69v18h135v-18h-42l-120 -458h-137l-87 307l-94 -307h-134l-148 458h-45v18h303v-18h-60l92 -340l72 234l-25 106h-37z" />
    <glyph glyph-name="x" unicode="x" horiz-adv-x="595" 
d="M367 295l118 163h-72v18h149v-18h-52l-130 -184l163 -256h52v-18h-334v18h71l-110 180l-114 -180h66v-18h-157v18h66l127 200l-152 240h-58v18h338v-18h-70z" />
    <glyph glyph-name="y" unicode="y" horiz-adv-x="532" 
d="M5 458v18h290v-18h-54l109 -332l116 332h-67v18h141v-18h-50l-187 -539c-45 -129 -97 -169 -176 -169c-75 0 -125 38 -125 101c0 50 32 81 80 81c51 0 83 -22 83 -69c0 -10 -2 -22 -6 -36h-35c-10 -30 -4 -53 25 -53c56 0 96 56 134 164l22 62h-88l-171 458h-41z" />
    <glyph glyph-name="z" unicode="z" horiz-adv-x="520" 
d="M475 476v-18l-237 -440h13c114 0 171 57 207 187h14l-16 -205h-420v15l241 443h-11c-136 0 -170 -32 -211 -174h-13l13 192h420z" />
    <glyph glyph-name="bracketleft" unicode="[" horiz-adv-x="329" 
d="M349 -142v-18h-288v941h288v-18h-45c-48 0 -58 -5 -58 -52v-800c0 -51 8 -53 57 -53h46z" />
    <glyph glyph-name="bracketright" unicode="]" horiz-adv-x="328" 
d="M-20 -160v18h46c49 0 57 2 57 53v800c0 47 -10 52 -58 52h-45v18h288v-941h-288z" />
    <glyph glyph-name="parenleft" unicode="(" horiz-adv-x="351" 
d="M50 306c0 224 109 465 321 472v-20c-113 -5 -120 -112 -120 -312v-287c0 -183 11 -291 120 -296v-21c-220 2 -321 245 -321 464z" />
    <glyph glyph-name="parenright" unicode=")" horiz-adv-x="351" 
d="M301 313c0 -224 -109 -465 -321 -472v20c113 5 120 112 120 312v287c0 183 -11 291 -120 296v21c220 -2 321 -245 321 -464z" />
    <glyph glyph-name="braceleft" unicode="{" horiz-adv-x="377" 
d="M24 324c43 1 94 19 94 117c0 75 -29 155 -29 202c0 91 59 137 187 137c46 0 76 -7 92 -13l-5 -16c-12 4 -23 7 -40 7c-25 0 -54 -8 -54 -65c0 -61 28 -176 28 -243c0 -95 -50 -124 -170 -131v-2c113 -9 170 -39 170 -137c0 -61 -28 -194 -28 -249c0 -57 28 -67 59 -67
c15 0 33 4 44 8l5 -16c-14 -6 -48 -16 -86 -16c-140 0 -202 50 -202 145c0 40 29 135 29 207c0 94 -51 115 -94 116v16z" />
    <glyph glyph-name="braceright" unicode="}" horiz-adv-x="377" 
d="M353 324v-16c-43 -1 -94 -22 -94 -116c0 -72 29 -167 29 -207c0 -95 -62 -145 -202 -145c-38 0 -72 10 -86 16l5 16c11 -4 29 -8 44 -8c31 0 59 10 59 67c0 55 -28 188 -28 249c0 98 57 128 170 137v2c-120 7 -170 36 -170 131c0 67 28 182 28 243c0 57 -29 65 -54 65
c-17 0 -28 -3 -40 -7l-5 16c16 6 46 13 92 13c128 0 187 -46 187 -137c0 -47 -29 -127 -29 -202c0 -98 51 -116 94 -117z" />
    <glyph glyph-name="backslash" unicode="\" horiz-adv-x="351" 
d="M49 795l295 -892h-42l-294 892h41z" />
    <glyph glyph-name="slash" unicode="/" horiz-adv-x="351" 
d="M8 -97l295 892h40l-294 -892h-41z" />
    <glyph glyph-name="brokenbar" unicode="&#xa6;" horiz-adv-x="319" 
d="M140 412v383h39v-383h-39zM140 -127v437h39v-437h-39z" />
    <glyph glyph-name="bar" unicode="|" horiz-adv-x="319" 
d="M140 -127v922h39v-922h-39z" />
    <glyph glyph-name="asciicircum" unicode="^" horiz-adv-x="560" 
d="M500 300l-37 -15l-190 336l-175 -337l-38 16l189 364h49z" />
    <glyph glyph-name="underscore" unicode="_" 
d="M500 -106h-500v37h500v-37z" />
    <glyph glyph-name="asciitilde" unicode="~" horiz-adv-x="530" 
d="M377 237c-42 0 -90 12 -134 23c-34 9 -71 18 -99 18c-25 0 -54 -7 -72 -43l-12 5c20 84 47 158 119 158c33 0 79 -12 122 -22c39 -9 84 -18 116 -18c28 0 44 9 61 43l12 -3c-36 -138 -62 -161 -113 -161z" />
    <glyph glyph-name="uni00A0" unicode="&#xa0;" horiz-adv-x="180" 
 />
    <glyph glyph-name="zero" unicode="0" horiz-adv-x="664" 
d="M30 351c0 261 127 360 302 360c177 0 302 -97 302 -360s-128 -361 -302 -361c-210 0 -302 152 -302 361zM235 388v-89c0 -211 0 -288 97 -288c95 0 98 76 98 280v88c0 236 0 311 -98 311c-96 0 -97 -84 -97 -302z" />
    <glyph glyph-name="one" unicode="1" horiz-adv-x="425" 
d="M127 674l-110 -14l-2 20l226 31h81v-692h78v-19h-378v19h105v655z" />
    <glyph glyph-name="two" unicode="2" horiz-adv-x="552" 
d="M266 711c153 0 242 -55 242 -172c0 -116 -77 -166 -321 -342l-61 -44h240c98 0 124 47 139 124h17l-10 -277h-470v116l101 93c129 118 189 201 189 341c0 99 -19 142 -88 142c-59 0 -76 -43 -76 -75c0 -8 2 -18 6 -29h30c5 -13 8 -26 8 -45c0 -47 -38 -78 -88 -78
c-62 0 -89 44 -89 93c0 84 69 153 231 153z" />
    <glyph glyph-name="three" unicode="3" horiz-adv-x="573" 
d="M273 711c174 0 235 -61 235 -159c0 -87 -74 -145 -207 -167v-2c173 -12 242 -86 242 -185c0 -126 -107 -208 -293 -208c-96 0 -220 32 -220 151c0 52 29 96 91 96c50 0 86 -31 86 -78c0 -19 -3 -32 -8 -45h-31c-4 -11 -6 -21 -6 -33c0 -27 10 -71 84 -71
c84 0 102 69 102 185c0 107 -32 148 -81 172c-32 -7 -47 -9 -87 -13l-3 22c117 12 143 41 143 174c0 87 -16 143 -74 143c-54 0 -70 -44 -70 -76c0 -8 2 -18 6 -29h29c5 -13 8 -26 8 -45c0 -47 -38 -78 -88 -78c-62 0 -89 44 -89 93c0 84 77 153 231 153z" />
    <glyph glyph-name="four" unicode="4" horiz-adv-x="603" 
d="M182 0v19h94v160h-271v19l282 502h173v-497h99v87h19v-185h-19v74h-99v-160h69v-19h-347zM37 203h239v421z" />
    <glyph glyph-name="five" unicode="5" horiz-adv-x="540" 
d="M218 405c-42 0 -86 -17 -128 -43l-17 8v319l16 12c83 -12 302 -34 331 -34c23 0 32 12 40 42l15 -2c-16 -163 -34 -197 -73 -197c-22 0 -49 8 -83 17l-218 57l-5 -194c45 24 98 39 157 39c200 0 257 -105 257 -209c0 -143 -109 -230 -287 -230c-80 0 -207 31 -207 154
c0 49 29 93 91 93c50 0 86 -27 86 -78c0 -19 -4 -38 -9 -51h-33c-4 -11 -6 -21 -6 -33c0 -27 14 -65 75 -65c85 0 88 81 88 218c0 125 -10 177 -90 177z" />
    <glyph glyph-name="six" unicode="6" horiz-adv-x="616" 
d="M34 308c0 261 126 403 324 403c142 0 213 -65 213 -150c0 -48 -32 -93 -92 -93c-48 0 -85 31 -85 78c0 19 3 32 8 46h32c4 11 6 28 6 36c0 36 -17 63 -73 63c-89 0 -134 -80 -136 -327c30 47 77 81 158 81c117 0 206 -69 206 -207c0 -153 -109 -248 -276 -248
c-179 0 -285 94 -285 318zM240 321c-7 -29 -7 -55 -7 -98c0 -135 1 -212 82 -212c80 0 84 83 84 205c0 140 -3 196 -69 196c-46 0 -77 -42 -90 -91z" />
    <glyph glyph-name="seven" unicode="7" horiz-adv-x="510" 
d="M119 88c0 60 18 106 158 268l165 191h-256c-94 0 -112 -13 -129 -101h-16l11 254h448v-108l-111 -194c-106 -186 -115 -232 -115 -299c0 -37 11 -63 30 -90l-7 -12c-20 -5 -46 -7 -62 -7c-77 0 -116 50 -116 98z" />
    <glyph glyph-name="eight" unicode="8" horiz-adv-x="611" 
d="M249 368c-132 7 -205 71 -205 161c0 109 86 182 264 182c174 0 260 -66 260 -176c0 -93 -67 -157 -198 -167v-3c154 -13 216 -81 216 -183c0 -126 -85 -192 -278 -192c-195 0 -283 68 -283 191c0 107 71 174 224 184v3zM308 355c-73 0 -88 -58 -88 -174
c0 -114 13 -170 88 -170c74 0 87 57 87 173c0 114 -16 171 -87 171zM239 535c0 -105 3 -157 72 -157c65 0 66 52 66 157c0 98 -5 155 -69 155s-69 -57 -69 -155z" />
    <glyph glyph-name="nine" unicode="9" horiz-adv-x="616" 
d="M584 393c0 -261 -121 -403 -319 -403c-142 0 -224 60 -224 144c0 49 31 99 92 99c50 0 85 -31 85 -78c0 -19 -3 -32 -8 -46h-30c-5 -11 -7 -28 -7 -36c0 -31 25 -63 85 -63c87 0 127 80 129 327c-30 -47 -77 -81 -158 -81c-117 0 -206 79 -206 217c0 170 131 238 283 238
c172 0 278 -94 278 -318zM378 380c7 29 7 55 7 98c0 135 -1 212 -78 212c-84 0 -88 -83 -88 -205c0 -140 3 -196 69 -196c46 0 77 42 90 91z" />
    <glyph glyph-name="cent" unicode="&#xa2;" horiz-adv-x="515" 
d="M312 511c-54 0 -80 -53 -80 -189v-47c0 -117 25 -167 98 -167c85 0 120 70 130 120l19 -4c-12 -57 -43 -149 -200 -149c-20 0 -39 1 -57 4l-23 -105l-28 6l23 105c-91 26 -140 99 -140 211c0 153 96 232 251 232h9l24 107l28 -5l-23 -104c88 -10 133 -56 133 -116
c0 -57 -28 -85 -75 -85c-48 0 -75 24 -75 75c0 8 1 20 5 33h31c4 12 6 23 6 33c0 31 -30 45 -56 45z" />
    <glyph glyph-name="sterling" unicode="&#xa3;" horiz-adv-x="581" 
d="M36 298v28h77c-30 50 -63 105 -63 177c0 135 106 208 265 208c147 0 219 -69 219 -153c0 -49 -27 -93 -89 -93c-50 0 -88 31 -88 78c0 19 3 32 8 45h31c4 11 6 26 6 34c0 36 -17 70 -73 70c-79 0 -84 -54 -84 -162v-204h176v-28h-176v-30c0 -75 -33 -109 -92 -167l3 -5
c61 41 104 64 146 64c64 0 134 -65 174 -65c34 0 49 20 54 92l21 -1c-6 -132 -64 -205 -133 -205c-38 0 -64 8 -103 27l-152 72c-8 -63 -45 -91 -91 -91c-39 0 -49 25 -49 44c0 41 44 74 108 75c16 31 22 55 22 91c0 34 -14 69 -28 99h-89z" />
    <glyph glyph-name="dollar" unicode="$" horiz-adv-x="565" 
d="M230 -71v67c-56 8 -101 23 -119 23c-14 0 -20 -10 -27 -29h-13l-9 232h16c32 -70 86 -149 152 -187v225c-96 33 -165 87 -165 221c0 95 57 185 165 206v83h28v-79c7 0 15 1 23 1c14 0 27 -1 39 -3v81h28v-85c44 -9 73 -23 95 -23c15 0 20 7 26 20h10l7 -197h-15
c-32 61 -71 126 -123 161v-206c90 -30 177 -78 177 -217c0 -124 -69 -210 -177 -229v-65h-28v62c-6 -1 -12 -1 -18 -1c-15 0 -30 1 -44 3v-64h-28zM312 11h8v219c-18 7 -39 14 -61 21h-1v-229c17 -7 35 -11 54 -11zM312 451l8 -2v212c-16 7 -33 11 -51 11c-4 0 -8 0 -11 -1
v-204c16 -5 34 -11 54 -16zM430 113c0 49 -28 80 -82 106v-204c43 11 82 42 82 98zM155 573c0 -49 28 -75 75 -95v189c-45 -13 -75 -48 -75 -94z" />
    <glyph glyph-name="yen" unicode="&#xa5;" horiz-adv-x="609" 
d="M387 391l142 293h-101v16h197v-16h-66l-148 -307h117v-28h-120v-73h120v-28h-120v-229h61v-19h-317v19h61v229h-114v28h114v73h-114v28h100l-156 307h-47v16h320v-16h-65z" />
    <glyph glyph-name="Euro" unicode="&#x20ac;" horiz-adv-x="612" 
d="M387 691c-84 0 -102 -48 -105 -264h201l-6 -28h-195v-80h180l-6 -28h-174c1 -204 19 -281 109 -281c54 0 80 24 80 57c0 7 -1 16 -5 25h-30c-4 12 -7 29 -7 46c0 41 34 69 78 69c54 0 78 -39 78 -82c0 -74 -76 -135 -199 -135c-175 0 -292 93 -307 301h-68l6 28h60v21
c0 20 1 40 2 59h-54l6 28h51c26 190 139 284 296 284c129 0 202 -61 202 -135c0 -43 -24 -82 -78 -82c-44 0 -78 28 -78 69c0 17 3 28 7 40h29c16 52 -26 88 -73 88z" />
    <glyph glyph-name="florin" unicode="&#x192;" horiz-adv-x="549" 
d="M411 694c-49 0 -65 -44 -79 -120l-30 -168h142l-3 -18h-142l-53 -305c-31 -178 -124 -294 -282 -294c-108 0 -145 54 -145 102c0 55 32 97 92 97c51 0 74 -29 74 -64c0 -16 -5 -33 -14 -50h-38c-10 -14 -14 -26 -14 -36c0 -22 22 -32 44 -32c49 0 65 44 79 120l81 462
h-58l3 18h58c32 184 122 305 284 305c108 0 145 -54 145 -102c0 -55 -32 -97 -92 -97c-51 0 -74 29 -74 64c0 16 5 33 14 50h38c10 14 14 26 14 36c0 22 -22 32 -44 32z" />
    <glyph glyph-name="afii61352" unicode="&#x2116;" horiz-adv-x="1072" 
d="M660 573v-580h-135l-309 584v-435c0 -127 -48 -152 -112 -152c-69 0 -95 47 -95 85c0 43 23 77 70 77c38 0 58 -22 58 -50c0 -17 -6 -32 -12 -44h-30c-8 -11 -11 -17 -11 -25c0 -16 11 -24 26 -24c45 0 79 28 79 119v491l-34 62h-62v19h283l256 -491v350
c0 127 62 152 112 152c69 0 95 -47 95 -85c0 -43 -22 -77 -66 -77c-40 0 -62 22 -62 50c0 17 6 32 12 44h30c8 11 11 17 11 25c0 16 -11 24 -26 24c-33 0 -78 -28 -78 -119zM729 320c0 113 76 176 168 176c82 0 161 -49 161 -168c0 -118 -85 -175 -166 -175
c-99 0 -163 69 -163 167zM853 321c0 -110 0 -153 42 -153c45 0 45 50 45 158c0 111 -1 153 -41 153c-46 0 -46 -45 -46 -158zM752 88v23h285v-23h-285z" />
    <glyph glyph-name="currency" unicode="&#xa4;" horiz-adv-x="530" 
d="M99 340c0 32 10 67 29 96l-77 89l19 18l90 -71c28 19 65 31 104 31c37 0 73 -10 98 -30l90 69l17 -16l-75 -85c18 -27 28 -65 28 -98c0 -36 -12 -72 -30 -100l75 -98l-18 -17l-94 77c-24 -19 -58 -29 -94 -29c-39 0 -76 11 -99 27l-89 -74l-18 18l72 89
c-19 28 -28 68 -28 104zM138 340c0 -72 31 -133 124 -133c80 0 121 61 121 133c0 76 -37 134 -123 134c-85 0 -122 -63 -122 -134z" />
    <glyph glyph-name="section" unicode="&#xa7;" horiz-adv-x="699" 
d="M70 418c0 199 145 293 297 293c147 0 213 -59 213 -143c0 -49 -27 -93 -89 -93c-50 0 -88 31 -88 78c0 19 3 32 8 45l36 8c4 11 6 21 6 36c0 32 -22 50 -79 50c-95 0 -115 -85 -119 -202c214 -45 364 -121 364 -324c0 -199 -145 -293 -297 -293c-147 0 -213 59 -213 143
c0 49 27 93 89 93c50 0 88 -31 88 -78c0 -19 -3 -32 -8 -45l-36 -8c-4 -11 -6 -21 -6 -36c0 -32 22 -50 79 -50c95 0 115 85 118 202c-214 45 -363 121 -363 324zM434 155c0 161 -44 257 -179 310v-36c0 -162 44 -257 179 -311v37z" />
    <glyph glyph-name="copyright" unicode="&#xa9;" horiz-adv-x="781" 
d="M721 320c0 -205 -135 -331 -331 -331c-219 0 -330 133 -330 317c0 207 148 330 332 330c204 0 329 -124 329 -316zM696 314c0 197 -128 300 -304 300c-174 0 -306 -111 -306 -307c0 -186 114 -295 304 -295c187 0 306 114 306 302zM416 496c-49 0 -64 -32 -64 -178
c0 -136 13 -178 64 -178c52 0 89 55 108 107h12l-4 -119h-10c-4 7 -6 15 -14 15c-11 0 -50 -21 -101 -21c-119 0 -199 59 -199 196c0 127 81 196 203 196c45 0 82 -20 94 -20c8 0 10 8 14 15h9l3 -119h-14c-21 62 -64 106 -101 106z" />
    <glyph glyph-name="registered" unicode="&#xae;" horiz-adv-x="459" 
d="M419 480c0 -112 -78 -188 -190 -188c-125 0 -189 78 -189 181c0 117 85 189 190 189c116 0 189 -72 189 -182zM394 477c0 105 -71 164 -164 164c-96 0 -164 -63 -164 -167c0 -99 59 -160 164 -160c100 0 164 63 164 163zM226 482h-3v-87h8v-8h-99v8h22v176h-22v8h104
c46 0 76 -6 76 -45c0 -33 -25 -44 -64 -47v-1c52 -3 66 -15 66 -47v-23c0 -11 1 -16 9 -16c10 0 16 16 18 34l8 -1c-4 -31 -13 -49 -54 -49c-34 0 -49 11 -49 37v29c0 24 -3 32 -20 32zM223 571v-79h3c23 0 26 14 26 40s-2 39 -24 39h-5z" />
    <glyph glyph-name="trademark" unicode="&#x2122;" horiz-adv-x="934" 
d="M379 648l6 -124h-13c-29 65 -63 103 -86 110v-339h51v-17h-230v17h52v339c-20 -9 -57 -43 -87 -110h-13l7 124h313zM728 648h176v-17h-40v-338h40v-15h-202v15h39v337l-99 -352h-64l-107 345v-330h44v-15h-99v15h34v338h-34v17h181l67 -228z" />
    <glyph glyph-name="ordfeminine" unicode="&#xaa;" horiz-adv-x="454" 
d="M205 568h22v55c0 90 -8 110 -39 110c-14 0 -36 -2 -36 -25c0 -5 1 -12 4 -20h20c3 -9 6 -19 6 -32c0 -34 -30 -56 -68 -56c-48 0 -67 24 -67 59c0 60 57 88 162 88c121 0 162 -31 162 -135v-140c0 -29 9 -37 22 -37c14 0 25 10 29 70l13 -2c-3 -85 -32 -109 -98 -109
c-63 0 -97 18 -107 53c-12 -35 -34 -53 -88 -53s-115 15 -115 86c0 72 68 88 178 88zM194 426c15 0 33 23 33 65v62h-5c-33 0 -48 -17 -48 -61v-11c0 -46 5 -55 20 -55z" />
    <glyph glyph-name="ordmasculine" unicode="&#xba;" horiz-adv-x="489" 
d="M295 541v60c0 77 -5 128 -48 128c-47 0 -53 -51 -53 -131v-56c0 -82 5 -131 52 -131c44 0 49 38 49 130zM46 569c0 116 71 178 203 178c129 0 194 -57 194 -172c0 -116 -62 -181 -199 -181c-133 0 -198 64 -198 175z" />
    <glyph glyph-name="guillemotleft" unicode="&#xab;" horiz-adv-x="494" 
d="M239 263l177 138l9 -7l-86 -163l85 -175l-9 -7l-159 130c-20 17 -30 29 -30 46c0 16 8 30 13 38zM63 263l177 138l9 -7l-86 -163l85 -175l-9 -7l-159 130c-20 17 -30 29 -30 46c0 16 8 30 13 38z" />
    <glyph glyph-name="guillemotright" unicode="&#xbb;" horiz-adv-x="494" 
d="M431 187l-177 -138l-8 7l85 163l-84 174l8 8l159 -130c20 -17 30 -29 30 -46c0 -16 -8 -30 -13 -38zM255 187l-177 -138l-8 7l85 163l-84 174l8 8l159 -130c20 -17 30 -29 30 -46c0 -16 -8 -30 -13 -38z" />
    <glyph glyph-name="guilsinglleft" unicode="&#x2039;" horiz-adv-x="318" 
d="M63 263l177 138l9 -7l-86 -163l85 -175l-9 -7l-159 130c-20 17 -30 29 -30 46c0 16 8 30 13 38z" />
    <glyph glyph-name="guilsinglright" unicode="&#x203a;" horiz-adv-x="318" 
d="M255 187l-177 -138l-8 7l85 163l-84 174l8 8l159 -130c20 -17 30 -29 30 -46c0 -16 -8 -30 -13 -38z" />
    <glyph glyph-name="quoteleft" unicode="&#x2018;" horiz-adv-x="260" 
d="M177 755l9 -14c-66 -43 -93 -85 -93 -122c0 -24 15 -34 27 -36l42 39c23 -8 53 -32 53 -70c0 -44 -36 -73 -80 -73c-54 0 -90 35 -90 96c0 76 58 134 132 180z" />
    <glyph glyph-name="quoteright" unicode="&#x2019;" horiz-adv-x="260" 
d="M83 452l-9 14c66 43 93 85 93 122c0 24 -15 34 -27 36l-42 -39c-23 8 -53 32 -53 70c0 44 36 73 80 73c54 0 90 -35 90 -96c0 -76 -58 -134 -132 -180z" />
    <glyph glyph-name="quotesinglbase" unicode="&#x201a;" horiz-adv-x="260" 
d="M83 -147l-9 14c66 43 93 85 93 122c0 24 -15 34 -27 36l-42 -39c-23 8 -53 32 -53 70c0 44 36 73 80 73c54 0 90 -35 90 -96c0 -76 -58 -134 -132 -180z" />
    <glyph glyph-name="quotedblleft" unicode="&#x201c;" horiz-adv-x="448" 
d="M365 755l9 -14c-66 -43 -93 -85 -93 -122c0 -24 15 -34 27 -36l42 39c23 -8 53 -32 53 -70c0 -44 -36 -73 -80 -73c-54 0 -90 35 -90 96c0 76 58 134 132 180zM177 755l9 -14c-66 -43 -93 -85 -93 -122c0 -24 15 -34 27 -36l42 39c23 -8 53 -32 53 -70
c0 -44 -36 -73 -80 -73c-54 0 -90 35 -90 96c0 76 58 134 132 180z" />
    <glyph glyph-name="quotedblright" unicode="&#x201d;" horiz-adv-x="445" 
d="M268 452l-9 14c66 43 93 85 93 122c0 24 -15 34 -27 36l-42 -39c-23 8 -53 32 -53 70c0 44 36 73 80 73c54 0 90 -35 90 -96c0 -76 -58 -134 -132 -180zM83 452l-9 14c66 43 93 85 93 122c0 24 -15 34 -27 36l-42 -39c-23 8 -53 32 -53 70c0 44 36 73 80 73
c54 0 90 -35 90 -96c0 -76 -58 -134 -132 -180z" />
    <glyph glyph-name="quotedblbase" unicode="&#x201e;" horiz-adv-x="445" 
d="M268 -147l-9 14c66 43 93 85 93 122c0 24 -15 34 -27 36l-42 -39c-23 8 -53 32 -53 70c0 44 36 73 80 73c54 0 90 -35 90 -96c0 -76 -58 -134 -132 -180zM83 -147l-9 14c66 43 93 85 93 122c0 24 -15 34 -27 36l-42 -39c-23 8 -53 32 -53 70c0 44 36 73 80 73
c54 0 90 -35 90 -96c0 -76 -58 -134 -132 -180z" />
    <glyph glyph-name="dagger" unicode="&#x2020;" horiz-adv-x="531" 
d="M352 355v-6c-23 -44 -66 -114 -68 -234l-5 -235h-26l-4 234c-1 124 -45 188 -70 234v6c24 30 71 91 78 131c-52 -3 -106 -54 -161 -54c-38 0 -56 34 -56 66c0 31 19 63 58 63c54 0 104 -57 160 -59c-3 62 -63 91 -63 146c0 34 24 64 77 64c48 0 70 -30 70 -64
c0 -53 -63 -81 -66 -146c55 4 104 59 160 59c25 0 55 -16 55 -63c0 -44 -28 -66 -56 -66c-49 0 -107 51 -159 54c5 -37 52 -101 76 -130z" />
    <glyph glyph-name="daggerdbl" unicode="&#x2021;" horiz-adv-x="571" 
d="M372 386v-6c-24 -24 -48 -54 -68 -87c21 -35 41 -59 68 -85v-6c-32 -31 -71 -71 -78 -100c52 3 106 54 161 54c38 0 56 -34 56 -66c0 -31 -19 -63 -58 -63c-54 0 -104 57 -160 59c3 -62 63 -91 63 -146c0 -34 -24 -64 -77 -64c-48 0 -70 30 -70 64c0 53 63 81 66 146
c-55 -4 -104 -59 -160 -59c-25 0 -55 16 -55 63c0 44 28 66 56 66c49 0 107 -51 159 -54c-9 28 -44 73 -76 99v6c24 24 48 54 67 86c-21 36 -40 60 -67 86v6c32 31 71 71 78 100c-52 -3 -106 -54 -161 -54c-38 0 -56 34 -56 66c0 31 19 63 58 63c54 0 104 -57 160 -59
c-3 62 -63 91 -63 146c0 34 24 64 77 64c48 0 70 -30 70 -64c0 -53 -63 -81 -66 -146c55 4 104 59 160 59c25 0 55 -16 55 -63c0 -44 -28 -66 -56 -66c-49 0 -107 51 -159 54c9 -28 44 -73 76 -99z" />
    <glyph glyph-name="bullet" unicode="&#x2022;" horiz-adv-x="400" 
d="M76 280c0 72 44 129 129 129c75 0 130 -40 130 -128c0 -76 -44 -130 -129 -130c-98 0 -130 66 -130 129z" />
    <glyph glyph-name="ellipsis" unicode="&#x2026;" horiz-adv-x="796" 
d="M45 76c0 49 30 88 86 88c52 0 89 -26 89 -85c0 -53 -30 -89 -86 -89c-67 0 -89 46 -89 86zM309 76c0 49 30 88 86 88c52 0 89 -26 89 -85c0 -53 -30 -89 -86 -89c-67 0 -89 46 -89 86zM576 76c0 49 30 88 86 88c52 0 89 -26 89 -85c0 -53 -30 -89 -86 -89
c-67 0 -89 46 -89 86z" />
    <glyph glyph-name="paragraph" unicode="&#xb6;" horiz-adv-x="628" 
d="M377 -82v257h-19c-185 0 -283 97 -283 261c0 152 100 264 296 264h227v-19h-65v-694c0 -165 -88 -237 -248 -237c-138 0 -168 76 -168 127c0 60 42 94 92 94c53 0 77 -34 77 -77c0 -14 -3 -30 -6 -42h-29c-30 -49 -9 -83 37 -83c55 0 89 34 89 149zM407 -93
c0 -51 -9 -99 -38 -125c112 25 135 121 135 214v685h-97v-774z" />
    <glyph glyph-name="periodcentered" unicode="&#xb7;" horiz-adv-x="300" 
d="M70 321c0 49 30 88 86 88c52 0 89 -26 89 -85c0 -53 -30 -89 -86 -89c-67 0 -89 46 -89 86z" />
    <glyph glyph-name="uni00AD" unicode="&#xad;" horiz-adv-x="340" 
d="M47 278v30h252v-30h-252z" />
    <glyph glyph-name="endash" unicode="&#x2013;" 
d="M20 272v27h460v-27h-460z" />
    <glyph glyph-name="emdash" unicode="&#x2014;" horiz-adv-x="1000" 
d="M20 272v27h960v-27h-960z" />
    <glyph glyph-name="hyphen.case" horiz-adv-x="352" 
d="M50 328v30h252v-30h-252z" />
    <glyph glyph-name="Agrave" unicode="&#xc0;" horiz-adv-x="694" 
d="M432 19l-73 216h-198l-77 -216h75v-19h-153v19h47l255 687h82l252 -687h46v-19h-327v19h71zM264 519l-94 -262h181zM329 905l115 -162l-8 -10l-159 65c-27 11 -44 33 -44 58c0 20 12 42 48 45z" />
    <glyph glyph-name="Aacute" unicode="&#xc1;" horiz-adv-x="694" 
d="M432 19l-73 216h-198l-77 -216h75v-19h-153v19h47l255 687h82l252 -687h46v-19h-327v19h71zM264 519l-94 -262h181zM261 743l115 162l48 -4c36 -3 48 -25 48 -45c0 -25 -17 -47 -44 -58l-159 -65z" />
    <glyph glyph-name="Acircumflex" unicode="&#xc2;" horiz-adv-x="694" 
d="M432 19l-73 216h-198l-77 -216h75v-19h-153v19h47l255 687h82l252 -687h46v-19h-327v19h71zM264 519l-94 -262h181zM197 743l106 148c14 8 37 16 55 16c37 0 55 -14 70 -40l74 -124l-9 -10l-142 68l-146 -68z" />
    <glyph glyph-name="Atilde" unicode="&#xc3;" horiz-adv-x="694" 
d="M432 19l-73 216h-198l-77 -216h75v-19h-153v19h47l255 687h82l252 -687h46v-19h-327v19h71zM264 519l-94 -262h181zM420 752c-54 0 -113 40 -154 40c-14 0 -40 -5 -55 -41l-12 4c27 88 43 138 107 138c50 0 108 -40 145 -40c20 0 45 3 58 42l13 -4
c-27 -107 -53 -139 -102 -139z" />
    <glyph glyph-name="Adieresis" unicode="&#xc4;" horiz-adv-x="694" 
d="M432 19l-73 216h-198l-77 -216h75v-19h-153v19h47l255 687h82l252 -687h46v-19h-327v19h71zM264 519l-94 -262h181zM371 821c0 39 26 73 74 73c43 0 75 -23 75 -73c0 -44 -26 -75 -74 -75c-56 0 -75 39 -75 75zM178 821c0 39 26 73 74 73c43 0 75 -23 75 -73
c0 -44 -26 -75 -74 -75c-56 0 -75 39 -75 75z" />
    <glyph glyph-name="Aring" unicode="&#xc5;" horiz-adv-x="694" 
d="M432 19l-73 216h-198l-77 -216h75v-19h-153v19h47l255 687h82l252 -687h46v-19h-327v19h71zM264 519l-94 -262h181zM277 823c0 -37 16 -73 72 -73c50 0 71 34 71 73c0 37 -21 71 -73 71s-70 -35 -70 -71zM247 823c0 52 33 95 103 95c66 0 99 -39 99 -93
c0 -58 -36 -99 -101 -99c-71 0 -101 40 -101 97z" />
    <glyph glyph-name="Aringacute" unicode="&#x1fa;" horiz-adv-x="694" 
d="M248 785c0 52 33 95 103 95c66 0 99 -39 99 -93c0 -43 -20 -77 -57 -91l249 -677h46v-19h-327v19h71l-73 216h-198l-77 -216h75v-19h-153v19h47l251 676c-39 14 -56 47 -56 90zM264 519l-94 -262h181zM277 896l115 162l48 -4c36 -3 48 -25 48 -45c0 -25 -17 -47 -44 -58
l-159 -65zM278 785c0 -37 16 -73 72 -73c50 0 71 34 71 73c0 37 -21 71 -73 71s-70 -35 -70 -71z" />
    <glyph glyph-name="AE" unicode="&#xc6;" horiz-adv-x="1033" 
d="M376 678v22h574l10 -198h-18c-54 127 -100 176 -214 176h-44v-316h34c65 0 107 55 124 131h15v-296h-17c-24 100 -62 139 -132 139h-24v-314h38c127 0 215 87 245 196h20l-8 -218h-549v22h59v317h-210l-194 -320h75v-19h-154v19h47l399 659h-76zM483 678l-192 -315h198
v315h-6z" />
    <glyph glyph-name="AEacute" unicode="&#x1fc;" horiz-adv-x="1033" 
d="M376 678v22h574l10 -198h-18c-54 127 -100 176 -214 176h-44v-316h34c65 0 107 55 124 131h15v-296h-17c-24 100 -62 139 -132 139h-24v-314h38c127 0 215 87 245 196h20l-8 -218h-549v22h59v317h-210l-194 -320h75v-19h-154v19h47l399 659h-76zM483 678l-192 -315h198
v315h-6zM605 743l115 162l48 -4c36 -3 48 -25 48 -45c0 -25 -17 -47 -44 -58l-159 -65z" />
    <glyph glyph-name="Ccedilla" unicode="&#xc7;" horiz-adv-x="690" 
d="M400 691c-101 0 -155 -92 -155 -299v-79c0 -184 53 -303 162 -303c81 0 146 84 202 214h18l-7 -223h-11c-7 13 -11 20 -27 20c-32 0 -82 -27 -177 -30l-29 -50c7 1 21 3 33 3c74 0 105 -36 105 -89c0 -45 -33 -104 -136 -104c-62 0 -103 28 -103 66c0 28 18 45 43 45
s40 -19 46 -38l-26 -20c0 -16 8 -37 34 -37c25 0 36 20 36 77c0 52 -1 82 -32 82c-9 0 -18 -1 -30 -4l-3 9l35 59c-209 2 -337 113 -337 351c0 242 140 370 345 370c104 0 152 -31 187 -31c16 0 20 7 27 20h11l8 -217h-18c-55 123 -115 208 -201 208z" />
    <glyph glyph-name="Egrave" unicode="&#xc8;" horiz-adv-x="624" 
d="M21 700h520l10 -198h-18c-55 131 -102 176 -223 176h-35v-309h34c65 0 107 55 124 131h15v-296h-17c-24 100 -62 139 -132 139h-24v-321h38c127 0 215 87 245 196h20l-8 -218h-549v22h59v656h-59v22zM275 905l115 -162l-8 -10l-159 65c-27 11 -44 33 -44 58
c0 20 12 42 48 45z" />
    <glyph glyph-name="Eacute" unicode="&#xc9;" horiz-adv-x="624" 
d="M21 700h520l10 -198h-18c-55 131 -102 176 -223 176h-35v-309h34c65 0 107 55 124 131h15v-296h-17c-24 100 -62 139 -132 139h-24v-321h38c127 0 215 87 245 196h20l-8 -218h-549v22h59v656h-59v22zM207 743l115 162l48 -4c36 -3 48 -25 48 -45c0 -25 -17 -47 -44 -58
l-159 -65z" />
    <glyph glyph-name="Ecircumflex" unicode="&#xca;" horiz-adv-x="624" 
d="M21 700h520l10 -198h-18c-55 131 -102 176 -223 176h-35v-309h34c65 0 107 55 124 131h15v-296h-17c-24 100 -62 139 -132 139h-24v-321h38c127 0 215 87 245 196h20l-8 -218h-549v22h59v656h-59v22zM143 743l106 148c14 8 37 16 55 16c37 0 55 -14 70 -40l74 -124
l-9 -10l-142 68l-146 -68z" />
    <glyph glyph-name="Edieresis" unicode="&#xcb;" horiz-adv-x="624" 
d="M21 700h520l10 -198h-18c-55 131 -102 176 -223 176h-35v-309h34c65 0 107 55 124 131h15v-296h-17c-24 100 -62 139 -132 139h-24v-321h38c127 0 215 87 245 196h20l-8 -218h-549v22h59v656h-59v22zM317 821c0 39 26 73 74 73c43 0 75 -23 75 -73c0 -44 -26 -75 -74 -75
c-56 0 -75 39 -75 75zM124 821c0 39 26 73 74 73c43 0 75 -23 75 -73c0 -44 -26 -75 -74 -75c-56 0 -75 39 -75 75z" />
    <glyph glyph-name="Igrave" unicode="&#xcc;" horiz-adv-x="355" 
d="M25 700h305v-19h-55v-662h55v-19h-305v19h55v662h-55v19zM157 905l115 -162l-8 -10l-159 65c-27 11 -44 33 -44 58c0 20 12 42 48 45z" />
    <glyph glyph-name="Iacute" unicode="&#xcd;" horiz-adv-x="355" 
d="M25 700h305v-19h-55v-662h55v-19h-305v19h55v662h-55v19zM89 743l115 162l48 -4c36 -3 48 -25 48 -45c0 -25 -17 -47 -44 -58l-159 -65z" />
    <glyph glyph-name="Icircumflex" unicode="&#xce;" horiz-adv-x="355" 
d="M25 700h305v-19h-55v-662h55v-19h-305v19h55v662h-55v19zM25 743l106 148c14 8 37 16 55 16c37 0 55 -14 70 -40l74 -124l-9 -10l-142 68l-146 -68z" />
    <glyph glyph-name="Idieresis" unicode="&#xcf;" horiz-adv-x="355" 
d="M25 700h305v-19h-55v-662h55v-19h-305v19h55v662h-55v19zM199 821c0 39 26 73 74 73c43 0 75 -23 75 -73c0 -44 -26 -75 -74 -75c-56 0 -75 39 -75 75zM6 821c0 39 26 73 74 73c43 0 75 -23 75 -73c0 -44 -26 -75 -74 -75c-56 0 -75 39 -75 75z" />
    <glyph glyph-name="Eth" unicode="&#xd0;" horiz-adv-x="763" 
d="M19 359v26h76v296h-66v19h309c247 0 384 -89 384 -338c0 -282 -171 -362 -410 -362h-283v19h66v340h-76zM290 19h38c135 0 188 87 188 311v58c0 243 -62 293 -202 293h-24v-296h129v-26h-129v-340z" />
    <glyph glyph-name="Ntilde" unicode="&#xd1;" horiz-adv-x="670" 
d="M590 681v-681h-140l-343 647v-628h55v-19h-137v19h55v662h-55v19h276l262 -502v483h-55v19h137v-19h-55zM413 752c-54 0 -113 40 -154 40c-14 0 -40 -5 -55 -41l-12 4c27 88 43 138 107 138c50 0 108 -40 145 -40c20 0 45 3 58 42l13 -4c-27 -107 -53 -139 -102 -139z
" />
    <glyph glyph-name="Ograve" unicode="&#xd2;" horiz-adv-x="748" 
d="M501 309v74c0 205 -6 307 -126 307c-121 0 -129 -106 -129 -311v-72c0 -188 12 -296 129 -296c112 0 126 97 126 298zM41 339c0 230 119 372 342 372c215 0 324 -132 324 -359c0 -223 -105 -362 -336 -362c-223 0 -330 129 -330 349zM356 905l115 -162l-8 -10l-159 65
c-27 11 -44 33 -44 58c0 20 12 42 48 45z" />
    <glyph glyph-name="Oacute" unicode="&#xd3;" horiz-adv-x="748" 
d="M501 309v74c0 205 -6 307 -126 307c-121 0 -129 -106 -129 -311v-72c0 -188 12 -296 129 -296c112 0 126 97 126 298zM41 339c0 230 119 372 342 372c215 0 324 -132 324 -359c0 -223 -105 -362 -336 -362c-223 0 -330 129 -330 349zM288 743l115 162l48 -4
c36 -3 48 -25 48 -45c0 -25 -17 -47 -44 -58l-159 -65z" />
    <glyph glyph-name="Ocircumflex" unicode="&#xd4;" horiz-adv-x="748" 
d="M501 309v74c0 205 -6 307 -126 307c-121 0 -129 -106 -129 -311v-72c0 -188 12 -296 129 -296c112 0 126 97 126 298zM41 339c0 230 119 372 342 372c215 0 324 -132 324 -359c0 -223 -105 -362 -336 -362c-223 0 -330 129 -330 349zM224 743l106 148c14 8 37 16 55 16
c37 0 55 -14 70 -40l74 -124l-9 -10l-142 68l-146 -68z" />
    <glyph glyph-name="Otilde" unicode="&#xd5;" horiz-adv-x="748" 
d="M501 309v74c0 205 -6 307 -126 307c-121 0 -129 -106 -129 -311v-72c0 -188 12 -296 129 -296c112 0 126 97 126 298zM41 339c0 230 119 372 342 372c215 0 324 -132 324 -359c0 -223 -105 -362 -336 -362c-223 0 -330 129 -330 349zM447 752c-54 0 -113 40 -154 40
c-14 0 -40 -5 -55 -41l-12 4c27 88 43 138 107 138c50 0 108 -40 145 -40c20 0 45 3 58 42l13 -4c-27 -107 -53 -139 -102 -139z" />
    <glyph glyph-name="Odieresis" unicode="&#xd6;" horiz-adv-x="748" 
d="M501 309v74c0 205 -6 307 -126 307c-121 0 -129 -106 -129 -311v-72c0 -188 12 -296 129 -296c112 0 126 97 126 298zM41 339c0 230 119 372 342 372c215 0 324 -132 324 -359c0 -223 -105 -362 -336 -362c-223 0 -330 129 -330 349zM398 821c0 39 26 73 74 73
c43 0 75 -23 75 -73c0 -44 -26 -75 -74 -75c-56 0 -75 39 -75 75zM205 821c0 39 26 73 74 73c43 0 75 -23 75 -73c0 -44 -26 -75 -74 -75c-56 0 -75 39 -75 75z" />
    <glyph glyph-name="Oslash" unicode="&#xd8;" horiz-adv-x="748" 
d="M41 339c0 230 119 372 342 372c38 0 73 -4 105 -13l27 71l25 -10l-26 -69c128 -45 193 -163 193 -338c0 -223 -105 -362 -336 -362c-43 0 -82 5 -117 14l-29 -78l-25 10l29 76c-127 46 -188 160 -188 327zM501 309v74c0 100 -2 176 -17 227l-207 -546
c19 -35 50 -53 98 -53c112 0 126 97 126 298zM246 307c0 -87 2 -156 16 -206l206 544c-18 30 -47 45 -93 45c-121 0 -129 -106 -129 -311v-72z" />
    <glyph glyph-name="Oslashacute" unicode="&#x1fe;" horiz-adv-x="748" 
d="M41 339c0 230 119 372 342 372c38 0 73 -4 105 -13l27 71l25 -10l-26 -69c128 -45 193 -163 193 -338c0 -223 -105 -362 -336 -362c-43 0 -82 5 -117 14l-29 -78l-25 10l29 76c-127 46 -188 160 -188 327zM501 309v74c0 100 -2 176 -17 227l-207 -546
c19 -35 50 -53 98 -53c112 0 126 97 126 298zM246 307c0 -87 2 -156 16 -206l206 544c-18 30 -47 45 -93 45c-121 0 -129 -106 -129 -311v-72zM323 743l115 162l48 -4c36 -3 48 -25 48 -45c0 -25 -17 -47 -44 -58l-159 -65z" />
    <glyph glyph-name="Ugrave" unicode="&#xd9;" horiz-adv-x="683" 
d="M420 23c-123 0 -149 80 -149 190v468h65v19h-315v-19h55v-434c0 -199 117 -257 280 -257c205 0 256 92 256 246v445h55v19h-146v-19h65v-452c0 -143 -65 -206 -166 -206zM350 905l115 -162l-8 -10l-159 65c-27 11 -44 33 -44 58c0 20 12 42 48 45z" />
    <glyph glyph-name="Uacute" unicode="&#xda;" horiz-adv-x="683" 
d="M420 23c-123 0 -149 80 -149 190v468h65v19h-315v-19h55v-434c0 -199 117 -257 280 -257c205 0 256 92 256 246v445h55v19h-146v-19h65v-452c0 -143 -65 -206 -166 -206zM282 743l115 162l48 -4c36 -3 48 -25 48 -45c0 -25 -17 -47 -44 -58l-159 -65z" />
    <glyph glyph-name="Ucircumflex" unicode="&#xdb;" horiz-adv-x="683" 
d="M420 23c-123 0 -149 80 -149 190v468h65v19h-315v-19h55v-434c0 -199 117 -257 280 -257c205 0 256 92 256 246v445h55v19h-146v-19h65v-452c0 -143 -65 -206 -166 -206zM218 743l106 148c14 8 37 16 55 16c37 0 55 -14 70 -40l74 -124l-9 -10l-142 68l-146 -68z" />
    <glyph glyph-name="Udieresis" unicode="&#xdc;" horiz-adv-x="683" 
d="M420 23c101 0 166 63 166 206v452h-65v19h146v-19h-55v-445c0 -154 -51 -246 -256 -246c-163 0 -280 58 -280 257v434h-55v19h315v-19h-65v-468c0 -110 26 -190 149 -190zM392 821c0 39 26 73 74 73c43 0 75 -23 75 -73c0 -44 -26 -75 -74 -75c-56 0 -75 39 -75 75z
M199 821c0 39 26 73 74 73c43 0 75 -23 75 -73c0 -44 -26 -75 -74 -75c-56 0 -75 39 -75 75z" />
    <glyph glyph-name="Yacute" unicode="&#xdd;" horiz-adv-x="641" 
d="M397 371l142 313h-101v16h197v-16h-66l-151 -334v-331h61v-19h-317v19h61v312l-170 353h-47v16h320v-16h-65zM261 743l115 162l48 -4c36 -3 48 -25 48 -45c0 -25 -17 -47 -44 -58l-159 -65z" />
    <glyph glyph-name="Thorn" unicode="&#xde;" horiz-adv-x="634" 
d="M275 681v-115h34c188 0 299 -42 299 -199c0 -170 -131 -214 -325 -214h-8v-134h125v-19h-385v19h65v662h-65v19h385v-19h-125zM275 547v-375h21c84 0 106 58 106 174v48c0 113 -24 153 -100 153h-27z" />
    <glyph glyph-name="germandbls" unicode="&#xdf;" horiz-adv-x="674" 
d="M307 -10v179h12c31 -98 79 -157 161 -157c59 0 92 21 92 66c0 114 -254 61 -254 263c0 144 179 189 179 305c0 69 -50 105 -127 105c-107 0 -119 -72 -119 -147v-604h-262v18h76v451c0 234 123 304 288 304c137 0 173 -66 173 -124c0 -108 -117 -147 -117 -218
c0 -100 250 -57 250 -270c0 -104 -81 -171 -170 -171c-48 0 -71 8 -108 29c-16 9 -24 12 -31 12c-13 0 -24 -10 -31 -41h-12z" />
    <glyph glyph-name="agrave" unicode="&#xe0;" horiz-adv-x="549" 
d="M250 235h29v77c0 127 -11 160 -51 160c-18 0 -47 -8 -47 -40c0 -8 2 -18 6 -29h25c5 -13 8 -26 8 -45c0 -47 -38 -78 -88 -78c-62 0 -86 34 -86 83c0 84 73 123 209 123c157 0 210 -44 210 -189v-203c0 -41 12 -52 29 -52c18 0 35 19 40 103l15 -1
c-5 -120 -42 -154 -128 -154c-81 0 -126 25 -138 74c-16 -48 -45 -74 -115 -74s-148 21 -148 121c0 101 87 124 230 124zM236 30c19 0 43 32 43 96v93h-7c-42 0 -62 -30 -62 -91v-16c0 -72 7 -82 26 -82zM263 738l63 -191l-11 -7l-134 111c-21 19 -29 35 -29 53
c0 26 19 54 64 44z" />
    <glyph glyph-name="aacute" unicode="&#xe1;" horiz-adv-x="549" 
d="M250 235h29v77c0 127 -11 160 -51 160c-18 0 -47 -8 -47 -40c0 -8 2 -18 6 -29h25c5 -13 8 -26 8 -45c0 -47 -38 -78 -88 -78c-62 0 -86 34 -86 83c0 84 73 123 209 123c157 0 210 -44 210 -189v-203c0 -41 12 -52 29 -52c18 0 35 19 40 103l15 -1
c-5 -120 -42 -154 -128 -154c-81 0 -126 25 -138 74c-16 -48 -45 -74 -115 -74s-148 21 -148 121c0 101 87 124 230 124zM236 30c19 0 43 32 43 96v93h-7c-42 0 -62 -30 -62 -91v-16c0 -72 7 -82 26 -82zM188 547l63 191l47 10c45 10 64 -18 64 -44c0 -18 -8 -34 -29 -53
l-134 -111z" />
    <glyph glyph-name="acircumflex" unicode="&#xe2;" horiz-adv-x="549" 
d="M250 235h29v77c0 127 -11 160 -51 160c-18 0 -47 -8 -47 -40c0 -8 2 -18 6 -29h25c5 -13 8 -26 8 -45c0 -47 -38 -78 -88 -78c-62 0 -86 34 -86 83c0 84 73 123 209 123c157 0 210 -44 210 -189v-203c0 -41 12 -52 29 -52c18 0 35 19 40 103l15 -1
c-5 -120 -42 -154 -128 -154c-81 0 -126 25 -138 74c-16 -48 -45 -74 -115 -74s-148 21 -148 121c0 101 87 124 230 124zM236 30c19 0 43 32 43 96v93h-7c-42 0 -62 -30 -62 -91v-16c0 -72 7 -82 26 -82zM121 532l89 190c15 8 37 16 59 16c32 0 52 -18 64 -48l61 -159
l-11 -7l-125 104l-125 -105z" />
    <glyph glyph-name="atilde" unicode="&#xe3;" horiz-adv-x="549" 
d="M250 235h29v77c0 127 -11 160 -51 160c-18 0 -47 -8 -47 -40c0 -8 2 -18 6 -29h25c5 -13 8 -26 8 -45c0 -47 -38 -78 -88 -78c-62 0 -86 34 -86 83c0 84 73 123 209 123c157 0 210 -44 210 -189v-203c0 -41 12 -52 29 -52c18 0 35 19 40 103l15 -1
c-5 -120 -42 -154 -128 -154c-81 0 -126 25 -138 74c-16 -48 -45 -74 -115 -74s-148 21 -148 121c0 101 87 124 230 124zM236 30c19 0 43 32 43 96v93h-7c-42 0 -62 -30 -62 -91v-16c0 -72 7 -82 26 -82zM321 563c-54 0 -113 40 -154 40c-14 0 -40 -5 -55 -41l-12 4
c27 88 53 146 117 146c50 0 108 -40 145 -40c20 0 45 3 58 42l13 -4c-27 -107 -63 -147 -112 -147z" />
    <glyph glyph-name="adieresis" unicode="&#xe4;" horiz-adv-x="549" 
d="M250 235h29v77c0 127 -11 160 -51 160c-18 0 -47 -8 -47 -40c0 -8 2 -18 6 -29h25c5 -13 8 -26 8 -45c0 -47 -38 -78 -88 -78c-62 0 -86 34 -86 83c0 84 73 123 209 123c157 0 210 -44 210 -189v-203c0 -41 12 -52 29 -52c18 0 35 19 40 103l15 -1
c-5 -120 -42 -154 -128 -154c-81 0 -126 25 -138 74c-16 -48 -45 -74 -115 -74s-148 21 -148 121c0 101 87 124 230 124zM236 30c19 0 43 32 43 96v93h-7c-42 0 -62 -30 -62 -91v-16c0 -72 7 -82 26 -82zM279 633c0 39 26 73 74 73c43 0 75 -23 75 -73
c0 -44 -26 -75 -74 -75c-56 0 -75 39 -75 75zM86 633c0 39 26 73 74 73c43 0 75 -23 75 -73c0 -44 -26 -75 -74 -75c-56 0 -75 39 -75 75z" />
    <glyph glyph-name="aring" unicode="&#xe5;" horiz-adv-x="549" 
d="M250 235h29v77c0 127 -11 160 -51 160c-18 0 -47 -8 -47 -40c0 -8 2 -18 6 -29h25c5 -13 8 -26 8 -45c0 -47 -38 -78 -88 -78c-62 0 -86 34 -86 83c0 84 73 123 209 123c157 0 210 -44 210 -189v-203c0 -41 12 -52 29 -52c18 0 35 19 40 103l15 -1
c-5 -120 -42 -154 -128 -154c-81 0 -126 25 -138 74c-16 -48 -45 -74 -115 -74s-148 21 -148 121c0 101 87 124 230 124zM236 30c19 0 43 32 43 96v93h-7c-42 0 -62 -30 -62 -91v-16c0 -72 7 -82 26 -82zM186 632c0 -37 16 -73 72 -73c50 0 71 34 71 73c0 37 -21 71 -73 71
s-70 -35 -70 -71zM156 632c0 52 33 95 103 95c66 0 99 -39 99 -93c0 -58 -36 -99 -101 -99c-71 0 -101 40 -101 97z" />
    <glyph glyph-name="aringacute" unicode="&#x1fb;" horiz-adv-x="549" 
d="M250 235h29v77c0 127 -11 160 -51 160c-18 0 -47 -8 -47 -40c0 -8 2 -18 6 -29h25c5 -13 8 -26 8 -45c0 -47 -38 -78 -88 -78c-62 0 -86 34 -86 83c0 84 73 123 209 123c157 0 210 -44 210 -189v-203c0 -41 12 -52 29 -52c18 0 35 19 40 103l15 -1
c-5 -120 -42 -154 -128 -154c-81 0 -126 25 -138 74c-16 -48 -45 -74 -115 -74s-148 21 -148 121c0 101 87 124 230 124zM236 30c19 0 43 32 43 96v93h-7c-42 0 -62 -30 -62 -91v-16c0 -72 7 -82 26 -82zM186 607c0 -37 16 -73 72 -73c50 0 71 34 71 73c0 37 -21 71 -73 71
s-70 -35 -70 -71zM156 607c0 52 33 95 103 95c66 0 99 -39 99 -93c0 -58 -36 -99 -101 -99c-71 0 -101 40 -101 97zM165 713l115 162l48 -4c36 -3 48 -25 48 -45c0 -25 -17 -47 -44 -58l-159 -65z" />
    <glyph glyph-name="ae" unicode="&#xe6;" horiz-adv-x="772" 
d="M279 237v75c0 127 -11 160 -51 160c-18 0 -47 -8 -47 -40c0 -8 2 -18 6 -29h25c5 -13 8 -26 8 -45c0 -47 -38 -78 -88 -78c-62 0 -86 34 -86 83c0 84 79 123 191 123c78 0 123 -21 152 -63c32 43 91 63 152 63c144 0 211 -79 205 -228h-282v-39c0 -118 21 -198 118 -198
c74 0 124 47 146 124l18 -3c-23 -86 -75 -152 -217 -152c-97 0 -162 30 -201 80c-15 -35 -54 -80 -155 -80c-70 0 -153 21 -153 121c0 101 87 124 230 124h29v2zM465 278h103v49c0 105 -8 140 -49 140c-35 0 -54 -34 -54 -140v-49zM249 30c18 0 51 14 65 59
c-22 36 -33 80 -35 129v1h-7c-42 0 -62 -30 -62 -91v-16c0 -72 15 -82 39 -82z" />
    <glyph glyph-name="aeacute" unicode="&#x1fd;" horiz-adv-x="772" 
d="M279 237v75c0 127 -11 160 -51 160c-18 0 -47 -8 -47 -40c0 -8 2 -18 6 -29h25c5 -13 8 -26 8 -45c0 -47 -38 -78 -88 -78c-62 0 -86 34 -86 83c0 84 79 123 191 123c78 0 123 -21 152 -63c32 43 91 63 152 63c144 0 211 -79 205 -228h-282v-39c0 -118 21 -198 118 -198
c74 0 124 47 146 124l18 -3c-23 -86 -75 -152 -217 -152c-97 0 -162 30 -201 80c-15 -35 -54 -80 -155 -80c-70 0 -153 21 -153 121c0 101 87 124 230 124h29v2zM465 278h103v49c0 105 -8 140 -49 140c-35 0 -54 -34 -54 -140v-49zM249 30c18 0 51 14 65 59
c-22 36 -33 80 -35 129v1h-7c-42 0 -62 -30 -62 -91v-16c0 -72 15 -82 39 -82zM360 532l63 191l47 10c45 10 64 -18 64 -44c0 -18 -8 -34 -29 -53l-134 -111z" />
    <glyph glyph-name="ccedilla" unicode="&#xe7;" horiz-adv-x="483" 
d="M290 468c-58 0 -82 -58 -82 -207v-52c0 -128 23 -185 101 -185c91 0 130 77 141 131l18 -2c-13 -59 -43 -153 -187 -162l-27 -46c7 1 21 3 33 3c74 0 105 -36 105 -89c0 -45 -33 -104 -136 -104c-62 0 -103 28 -103 66c0 28 18 45 43 45s40 -19 46 -38l-26 -20
c0 -16 8 -37 34 -37c25 0 36 20 36 77c0 52 -1 82 -32 82c-9 0 -18 -1 -30 -4l-3 9l33 55c-154 1 -239 86 -239 242c0 168 102 254 267 254c122 0 183 -52 183 -127c0 -62 -33 -94 -83 -94c-52 0 -89 27 -89 83c0 9 1 22 5 36h33c5 14 7 26 7 36c0 34 -20 48 -48 48z" />
    <glyph glyph-name="egrave" unicode="&#xe8;" horiz-adv-x="516" 
d="M15 237c0 173 118 249 257 249c157 0 224 -79 218 -228h-282v-39c0 -118 21 -198 118 -198c74 0 124 47 146 124l18 -3c-23 -86 -75 -152 -217 -152c-178 0 -258 102 -258 247zM209 278h103v49c0 105 -8 140 -49 140c-35 0 -54 -34 -54 -140v-49zM273 738l63 -191l-11 -7
l-134 111c-21 19 -29 35 -29 53c0 26 19 54 64 44z" />
    <glyph glyph-name="eacute" unicode="&#xe9;" horiz-adv-x="516" 
d="M15 237c0 -145 80 -247 258 -247c142 0 194 66 217 152l-18 3c-22 -77 -72 -124 -146 -124c-97 0 -118 80 -118 198v39h282c6 149 -61 228 -218 228c-139 0 -257 -76 -257 -249zM312 278h-103v49c0 106 19 140 54 140c41 0 49 -35 49 -140v-49zM198 547l63 191l47 10
c45 10 64 -18 64 -44c0 -18 -8 -34 -29 -53l-134 -111z" />
    <glyph glyph-name="ecircumflex" unicode="&#xea;" horiz-adv-x="516" 
d="M15 237c0 173 118 249 257 249c157 0 224 -79 218 -228h-282v-39c0 -118 21 -198 118 -198c74 0 124 47 146 124l18 -3c-23 -86 -75 -152 -217 -152c-178 0 -258 102 -258 247zM209 278h103v49c0 105 -8 140 -49 140c-35 0 -54 -34 -54 -140v-49zM131 532l89 190
c15 8 37 16 59 16c32 0 52 -18 64 -48l61 -159l-11 -7l-125 104l-125 -105z" />
    <glyph glyph-name="edieresis" unicode="&#xeb;" horiz-adv-x="516" 
d="M15 237c0 173 118 249 257 249c157 0 224 -79 218 -228h-282v-39c0 -118 21 -198 118 -198c74 0 124 47 146 124l18 -3c-23 -86 -75 -152 -217 -152c-178 0 -258 102 -258 247zM209 278h103v49c0 105 -8 140 -49 140c-35 0 -54 -34 -54 -140v-49zM289 633
c0 39 26 73 74 73c43 0 75 -23 75 -73c0 -44 -26 -75 -74 -75c-56 0 -75 39 -75 75zM96 633c0 39 26 73 74 73c43 0 75 -23 75 -73c0 -44 -26 -75 -74 -75c-56 0 -75 39 -75 75z" />
    <glyph glyph-name="igrave" unicode="&#xec;" horiz-adv-x="317" 
d="M147 738l63 -191l-11 -7l-134 111c-21 19 -29 35 -29 53c0 26 19 54 64 44zM6 476h245v-458h56v-18h-297v18h55v440h-59v18z" />
    <glyph glyph-name="iacute" unicode="&#xed;" horiz-adv-x="317" 
d="M85 547l63 191l47 10c45 10 64 -18 64 -44c0 -18 -8 -34 -29 -53l-134 -111zM6 476h245v-458h56v-18h-297v18h55v440h-59v18z" />
    <glyph glyph-name="icircumflex" unicode="&#xee;" horiz-adv-x="317" 
d="M6 476h245v-458h56v-18h-297v18h55v440h-59v18zM4 532l89 190c15 8 37 16 59 16c32 0 52 -18 64 -48l61 -159l-11 -7l-125 104l-125 -105z" />
    <glyph glyph-name="idieresis" unicode="&#xef;" horiz-adv-x="317" 
d="M169 633c0 39 26 73 74 73c43 0 75 -23 75 -73c0 -44 -26 -75 -74 -75c-56 0 -75 39 -75 75zM-24 633c0 39 26 73 74 73c43 0 75 -23 75 -73c0 -44 -26 -75 -74 -75c-56 0 -75 39 -75 75zM6 476h245v-458h56v-18h-297v18h55v440h-59v18z" />
    <glyph glyph-name="eth" unicode="&#xf0;" horiz-adv-x="560" 
d="M195 575l-8 25l106 69c-40 49 -103 81 -204 80l2 16c114 9 206 -7 276 -47l106 70l8 -25l-91 -60c101 -71 150 -198 150 -371s-40 -342 -262 -342c-173 0 -258 90 -258 246c0 164 87 258 229 258c63 0 93 -23 111 -63c-4 74 -13 156 -53 218zM344 197v85
c0 108 -7 186 -63 186c-61 0 -68 -78 -68 -191v-78c0 -116 6 -191 67 -191c57 0 64 59 64 189z" />
    <glyph glyph-name="ntilde" unicode="&#xf1;" horiz-adv-x="616" 
d="M10 476h241v-92c17 50 50 102 149 102c93 0 155 -46 155 -167v-301h56v-18h-283v18h41v325c0 85 -12 95 -37 95c-42 0 -81 -63 -81 -144v-276h43v-18h-284v18h55v440h-55v18zM369 563c-54 0 -113 40 -154 40c-14 0 -40 -5 -55 -41l-12 4c27 88 53 146 117 146
c50 0 108 -40 145 -40c20 0 45 3 58 42l13 -4c-27 -107 -63 -147 -112 -147z" />
    <glyph glyph-name="ograve" unicode="&#xf2;" horiz-adv-x="543" 
d="M333 197v85c0 108 -3 186 -59 186c-61 0 -64 -78 -64 -191v-78c0 -116 2 -191 63 -191c57 0 60 59 60 189zM18 236c0 164 98 250 259 250c168 0 248 -79 248 -241c0 -164 -76 -255 -254 -255c-168 0 -253 90 -253 246zM280 738l63 -191l-11 -7l-134 111
c-21 19 -29 35 -29 53c0 26 19 54 64 44z" />
    <glyph glyph-name="oacute" unicode="&#xf3;" horiz-adv-x="543" 
d="M333 197v85c0 108 -3 186 -59 186c-61 0 -64 -78 -64 -191v-78c0 -116 2 -191 63 -191c57 0 60 59 60 189zM18 236c0 164 98 250 259 250c168 0 248 -79 248 -241c0 -164 -76 -255 -254 -255c-168 0 -253 90 -253 246zM205 547l63 191l47 10c45 10 64 -18 64 -44
c0 -18 -8 -34 -29 -53l-134 -111z" />
    <glyph glyph-name="ocircumflex" unicode="&#xf4;" horiz-adv-x="543" 
d="M333 197v85c0 108 -3 186 -59 186c-61 0 -64 -78 -64 -191v-78c0 -116 2 -191 63 -191c57 0 60 59 60 189zM18 236c0 164 98 250 259 250c168 0 248 -79 248 -241c0 -164 -76 -255 -254 -255c-168 0 -253 90 -253 246zM138 532l89 190c15 8 37 16 59 16
c32 0 52 -18 64 -48l61 -159l-11 -7l-125 104l-125 -105z" />
    <glyph glyph-name="otilde" unicode="&#xf5;" horiz-adv-x="543" 
d="M333 197v85c0 108 -3 186 -59 186c-61 0 -64 -78 -64 -191v-78c0 -116 2 -191 63 -191c57 0 60 59 60 189zM18 236c0 164 98 250 259 250c168 0 248 -79 248 -241c0 -164 -76 -255 -254 -255c-168 0 -253 90 -253 246zM338 563c-54 0 -113 40 -154 40
c-14 0 -40 -5 -55 -41l-12 4c27 88 53 146 117 146c50 0 108 -40 145 -40c20 0 45 3 58 42l13 -4c-27 -107 -63 -147 -112 -147z" />
    <glyph glyph-name="odieresis" unicode="&#xf6;" horiz-adv-x="543" 
d="M333 197v85c0 108 -3 186 -59 186c-61 0 -64 -78 -64 -191v-78c0 -116 2 -191 63 -191c57 0 60 59 60 189zM18 236c0 164 98 250 259 250c168 0 248 -79 248 -241c0 -164 -76 -255 -254 -255c-168 0 -253 90 -253 246zM296 633c0 39 26 73 74 73c43 0 75 -23 75 -73
c0 -44 -26 -75 -74 -75c-56 0 -75 39 -75 75zM103 633c0 39 26 73 74 73c43 0 75 -23 75 -73c0 -44 -26 -75 -74 -75c-56 0 -75 39 -75 75z" />
    <glyph glyph-name="oslash" unicode="&#xf8;" horiz-adv-x="546" 
d="M15 236c0 164 93 250 264 250c23 0 45 -2 65 -5l26 69l22 -8l-25 -65c109 -25 164 -102 164 -232c0 -164 -80 -255 -258 -255c-32 0 -61 3 -87 9l-28 -74l-22 8l27 72c-99 32 -148 112 -148 231zM339 197v85c0 40 -1 77 -5 107l-119 -314c8 -43 25 -67 60 -67
c57 0 64 59 64 189zM208 199c0 -26 0 -51 1 -72l115 302c-10 25 -24 39 -48 39c-61 0 -68 -78 -68 -191v-78z" />
    <glyph glyph-name="oslashacute" unicode="&#x1ff;" horiz-adv-x="546" 
d="M15 236c0 164 93 250 264 250c23 0 45 -2 65 -5l26 69l22 -8l-25 -65c109 -25 164 -102 164 -232c0 -164 -80 -255 -258 -255c-32 0 -61 3 -87 9l-28 -74l-22 8l27 72c-99 32 -148 112 -148 231zM339 197v85c0 40 -1 77 -5 107l-119 -314c8 -43 25 -67 60 -67
c57 0 64 59 64 189zM208 199c0 -26 0 -51 1 -72l115 302c-10 25 -24 39 -48 39c-61 0 -68 -78 -68 -191v-78zM205 547l63 191l47 10c45 10 64 -18 64 -44c0 -18 -8 -34 -29 -53l-134 -111z" />
    <glyph glyph-name="ugrave" unicode="&#xf9;" horiz-adv-x="605" 
d="M595 0h-228l-11 73c-19 -47 -51 -83 -141 -83c-93 0 -155 46 -155 167v301h-56v18h242v-343c0 -85 12 -98 37 -98c40 0 71 41 71 117v306h-46v18h232v-458h55v-18zM289 738l63 -191l-11 -7l-134 111c-21 19 -29 35 -29 53c0 26 19 54 64 44z" />
    <glyph glyph-name="uacute" unicode="&#xfa;" horiz-adv-x="605" 
d="M595 0h-228l-11 73c-19 -47 -51 -83 -141 -83c-93 0 -155 46 -155 167v301h-56v18h242v-343c0 -85 12 -98 37 -98c40 0 71 41 71 117v306h-46v18h232v-458h55v-18zM223 547l63 191l47 10c45 10 64 -18 64 -44c0 -18 -8 -34 -29 -53l-134 -111z" />
    <glyph glyph-name="ucircumflex" unicode="&#xfb;" horiz-adv-x="605" 
d="M595 0h-228l-11 73c-19 -47 -51 -83 -141 -83c-93 0 -155 46 -155 167v301h-56v18h242v-343c0 -85 12 -98 37 -98c40 0 71 41 71 117v306h-46v18h232v-458h55v-18zM156 532l89 190c15 8 37 16 59 16c32 0 52 -18 64 -48l61 -159l-11 -7l-125 104l-125 -105z" />
    <glyph glyph-name="udieresis" unicode="&#xfc;" horiz-adv-x="605" 
d="M595 0h-228l-11 73c-19 -47 -51 -83 -141 -83c-93 0 -155 46 -155 167v301h-56v18h242v-343c0 -85 12 -98 37 -98c40 0 71 41 71 117v306h-46v18h232v-458h55v-18zM314 633c0 39 26 73 74 73c43 0 75 -23 75 -73c0 -44 -26 -75 -74 -75c-56 0 -75 39 -75 75zM121 633
c0 39 26 73 74 73c43 0 75 -23 75 -73c0 -44 -26 -75 -74 -75c-56 0 -75 39 -75 75z" />
    <glyph glyph-name="yacute" unicode="&#xfd;" horiz-adv-x="532" 
d="M5 458v18h290v-18h-54l109 -332l116 332h-67v18h141v-18h-50l-187 -539c-45 -129 -97 -169 -176 -169c-75 0 -125 38 -125 101c0 50 32 81 80 81c51 0 83 -22 83 -69c0 -10 -2 -22 -6 -36h-35c-10 -30 -4 -53 25 -53c56 0 96 56 134 164l22 62h-88l-171 458h-41zM231 547
l63 191l47 10c45 10 64 -18 64 -44c0 -18 -8 -34 -29 -53l-134 -111z" />
    <glyph glyph-name="thorn" unicode="&#xfe;" horiz-adv-x="588" 
d="M329 443c-41 0 -78 -48 -78 -135v-186c0 -54 23 -103 65 -103c49 0 59 59 59 198v52c0 141 -12 174 -46 174zM65 -220v952h-49v18h235v-350c22 50 58 86 134 86c114 0 183 -79 183 -249c0 -171 -70 -247 -206 -247c-68 0 -93 18 -111 49v-259h129v-18h-370v18h55z" />
    <glyph glyph-name="ydieresis" unicode="&#xff;" horiz-adv-x="532" 
d="M5 458v18h290v-18h-54l109 -332l116 332h-67v18h141v-18h-50l-187 -539c-45 -129 -97 -169 -176 -169c-75 0 -125 38 -125 101c0 50 32 81 80 81c51 0 83 -22 83 -69c0 -10 -2 -22 -6 -36h-35c-10 -30 -4 -53 25 -53c56 0 96 56 134 164l22 62h-88l-171 458h-41zM322 633
c0 39 26 73 74 73c43 0 75 -23 75 -73c0 -44 -26 -75 -74 -75c-56 0 -75 39 -75 75zM129 633c0 39 26 73 74 73c43 0 75 -23 75 -73c0 -44 -26 -75 -74 -75c-56 0 -75 39 -75 75z" />
    <glyph glyph-name="Amacron" unicode="&#x100;" horiz-adv-x="694" 
d="M432 19l-73 216h-198l-77 -216h75v-19h-153v19h47l255 687h82l252 -687h46v-19h-327v19h71zM264 519l-94 -262h181zM213 770v97h272v-97h-272z" />
    <glyph glyph-name="amacron" unicode="&#x101;" horiz-adv-x="549" 
d="M250 235h29v77c0 127 -11 160 -51 160c-18 0 -47 -8 -47 -40c0 -8 2 -18 6 -29h25c5 -13 8 -26 8 -45c0 -47 -38 -78 -88 -78c-62 0 -86 34 -86 83c0 84 73 123 209 123c157 0 210 -44 210 -189v-203c0 -41 12 -52 29 -52c18 0 35 19 40 103l15 -1
c-5 -120 -42 -154 -128 -154c-81 0 -126 25 -138 74c-16 -48 -45 -74 -115 -74s-148 21 -148 121c0 101 87 124 230 124zM236 30c19 0 43 32 43 96v93h-7c-42 0 -62 -30 -62 -91v-16c0 -72 7 -82 26 -82zM121 567v95h272v-95h-272z" />
    <glyph glyph-name="Abreve" unicode="&#x102;" horiz-adv-x="694" 
d="M432 19l-73 216h-198l-77 -216h75v-19h-153v19h47l255 687h82l252 -687h46v-19h-327v19h71zM264 519l-94 -262h181zM207 918l16 3c19 -56 56 -68 128 -68c70 0 108 8 125 68l15 -3c-10 -97 -45 -172 -142 -172c-104 0 -129 75 -142 172z" />
    <glyph glyph-name="abreve" unicode="&#x103;" horiz-adv-x="549" 
d="M250 235h29v77c0 127 -11 160 -51 160c-18 0 -47 -8 -47 -40c0 -8 2 -18 6 -29h25c5 -13 8 -26 8 -45c0 -47 -38 -78 -88 -78c-62 0 -86 34 -86 83c0 84 73 123 209 123c157 0 210 -44 210 -189v-203c0 -41 12 -52 29 -52c18 0 35 19 40 103l15 -1
c-5 -120 -42 -154 -128 -154c-81 0 -126 25 -138 74c-16 -48 -45 -74 -115 -74s-148 21 -148 121c0 101 87 124 230 124zM236 30c19 0 43 32 43 96v93h-7c-42 0 -62 -30 -62 -91v-16c0 -72 7 -82 26 -82zM115 721l16 3c19 -56 56 -68 128 -68c70 0 108 8 125 68l15 -3
c-10 -100 -45 -180 -142 -180c-104 0 -128 80 -142 180z" />
    <glyph glyph-name="Aogonek" unicode="&#x104;" horiz-adv-x="694" 
d="M432 19l-73 216h-198l-77 -216h75v-19h-153v19h47l255 687h82l252 -687h46v-19h-111c-45 -37 -62 -82 -62 -147c0 -50 9 -63 32 -63c19 0 36 15 55 43l13 -8c-23 -38 -51 -76 -120 -76c-56 0 -100 26 -100 83c0 54 18 86 110 142l42 26h-186v19h71zM264 519l-94 -262h181
z" />
    <glyph glyph-name="aogonek" unicode="&#x105;" horiz-adv-x="549" 
d="M250 235h29v77c0 127 -11 160 -51 160c-18 0 -47 -8 -47 -40c0 -8 2 -18 6 -29h25c5 -13 8 -26 8 -45c0 -47 -38 -78 -88 -78c-62 0 -86 34 -86 83c0 84 73 123 209 123c157 0 210 -44 210 -189v-203c0 -41 12 -52 29 -52c18 0 35 19 40 103l15 -1
c-3 -77 -19 -117 -51 -139c-52 -35 -71 -84 -71 -152c0 -50 9 -63 32 -63c19 0 36 15 55 43l13 -8c-23 -38 -51 -76 -120 -76c-56 0 -100 26 -100 83c0 54 18 86 110 142l28 17c-8 0 -16 -1 -24 -1c-81 0 -126 25 -138 74c-16 -48 -45 -74 -115 -74s-148 21 -148 121
c0 101 87 124 230 124zM236 30c19 0 43 32 43 96v93h-7c-42 0 -62 -30 -62 -91v-16c0 -72 7 -82 26 -82z" />
    <glyph glyph-name="Cacute" unicode="&#x106;" horiz-adv-x="690" 
d="M400 691c-101 0 -155 -92 -155 -299v-79c0 -184 53 -303 162 -303c81 0 146 84 202 214h18l-7 -223h-11c-7 13 -11 20 -27 20c-34 0 -89 -31 -199 -31c-212 0 -342 112 -342 351c0 242 140 370 345 370c104 0 152 -31 187 -31c16 0 20 7 27 20h11l8 -217h-18
c-55 123 -115 208 -201 208zM290 743l115 162l48 -4c36 -3 48 -25 48 -45c0 -25 -17 -47 -44 -58l-159 -65z" />
    <glyph glyph-name="cacute" unicode="&#x107;" horiz-adv-x="483" 
d="M290 468c-58 0 -82 -58 -82 -207v-52c0 -128 23 -185 101 -185c91 0 130 77 141 131l18 -2c-13 -62 -46 -163 -213 -163c-154 0 -240 86 -240 242c0 168 102 254 267 254c122 0 183 -52 183 -127c0 -62 -33 -94 -83 -94c-52 0 -89 27 -89 83c0 9 1 22 5 36h33
c5 14 7 26 7 36c0 34 -20 48 -48 48zM194 547l63 191l47 10c45 10 64 -18 64 -44c0 -18 -8 -34 -29 -53l-134 -111z" />
    <glyph glyph-name="Ccircumflex" unicode="&#x108;" horiz-adv-x="690" 
d="M400 691c-101 0 -155 -92 -155 -299v-79c0 -184 53 -303 162 -303c81 0 146 84 202 214h18l-7 -223h-11c-7 13 -11 20 -27 20c-34 0 -89 -31 -199 -31c-212 0 -342 112 -342 351c0 242 140 370 345 370c104 0 152 -31 187 -31c16 0 20 7 27 20h11l8 -217h-18
c-55 123 -115 208 -201 208zM226 743l106 148c14 8 37 16 55 16c37 0 55 -14 70 -40l74 -124l-9 -10l-142 68l-146 -68z" />
    <glyph glyph-name="ccircumflex" unicode="&#x109;" horiz-adv-x="483" 
d="M290 468c-58 0 -82 -58 -82 -207v-52c0 -128 23 -185 101 -185c91 0 130 77 141 131l18 -2c-13 -62 -46 -163 -213 -163c-154 0 -240 86 -240 242c0 168 102 254 267 254c122 0 183 -52 183 -127c0 -62 -33 -94 -83 -94c-52 0 -89 27 -89 83c0 9 1 22 5 36h33
c5 14 7 26 7 36c0 34 -20 48 -48 48zM131 532l89 190c15 8 37 16 59 16c32 0 52 -18 64 -48l61 -159l-11 -7l-125 104l-125 -105z" />
    <glyph glyph-name="Cdotaccent" unicode="&#x10a;" horiz-adv-x="690" 
d="M400 691c-101 0 -155 -92 -155 -299v-79c0 -184 53 -303 162 -303c81 0 146 84 202 214h18l-7 -223h-11c-7 13 -11 20 -27 20c-34 0 -89 -31 -199 -31c-212 0 -342 112 -342 351c0 242 140 370 345 370c104 0 152 -31 187 -31c16 0 20 7 27 20h11l8 -217h-18
c-55 123 -115 208 -201 208zM278 846c0 49 27 93 102 93c62 0 99 -31 99 -92c0 -53 -29 -94 -101 -94c-81 0 -100 51 -100 93z" />
    <glyph glyph-name="cdotaccent" unicode="&#x10b;" horiz-adv-x="483" 
d="M290 468c-58 0 -82 -58 -82 -207v-52c0 -128 23 -185 101 -185c91 0 130 77 141 131l18 -2c-13 -62 -46 -163 -213 -163c-154 0 -240 86 -240 242c0 168 102 254 267 254c122 0 183 -52 183 -127c0 -62 -33 -94 -83 -94c-52 0 -89 27 -89 83c0 9 1 22 5 36h33
c5 14 7 26 7 36c0 34 -20 48 -48 48zM166 638c0 49 27 93 102 93c62 0 99 -31 99 -92c0 -53 -29 -94 -101 -94c-81 0 -100 51 -100 93z" />
    <glyph glyph-name="Ccaron" unicode="&#x10c;" horiz-adv-x="690" 
d="M400 691c-101 0 -155 -92 -155 -299v-79c0 -184 53 -303 162 -303c81 0 146 84 202 214h18l-7 -223h-11c-7 13 -11 20 -27 20c-34 0 -89 -31 -199 -31c-212 0 -342 112 -342 351c0 242 140 370 345 370c104 0 152 -31 187 -31c16 0 20 7 27 20h11l8 -217h-18
c-55 123 -115 208 -201 208zM534 909l-106 -148c-14 -8 -37 -16 -55 -16c-37 0 -55 14 -70 40l-74 124l9 10l142 -68l146 68z" />
    <glyph glyph-name="ccaron" unicode="&#x10d;" horiz-adv-x="483" 
d="M290 468c-58 0 -82 -58 -82 -207v-52c0 -128 23 -185 101 -185c91 0 130 77 141 131l18 -2c-13 -62 -46 -163 -213 -163c-154 0 -240 86 -240 242c0 168 102 254 267 254c122 0 183 -52 183 -127c0 -62 -33 -94 -83 -94c-52 0 -89 27 -89 83c0 9 1 22 5 36h33
c5 14 7 26 7 36c0 34 -20 48 -48 48zM404 734l-86 -190c-15 -9 -37 -16 -54 -16c-37 0 -57 19 -69 48l-64 159l11 7l126 -106l124 107z" />
    <glyph glyph-name="Dcaron" unicode="&#x10e;" horiz-adv-x="755" 
d="M714 362c0 -282 -171 -362 -410 -362h-283v19h66v662h-66v19h309c247 0 384 -89 384 -338zM282 19h38c135 0 188 87 188 311v58c0 243 -62 293 -202 293h-24v-662zM488 909l-106 -148c-14 -8 -37 -16 -55 -16c-37 0 -55 14 -70 40l-74 124l9 10l142 -68l146 68z" />
    <glyph glyph-name="dcaron" unicode="&#x10f;" horiz-adv-x="664" 
d="M268 33c-43 0 -55 33 -55 174v52c0 139 10 198 59 198c44 0 65 -49 65 -103v-218c0 -75 -40 -103 -69 -103zM339 70l11 -70h222v18h-49v732h-250v-18h61v-295c-18 31 -54 49 -116 49c-128 0 -198 -80 -198 -249c0 -168 70 -247 181 -247c78 0 117 30 138 80zM570 520
l-12 13c32 35 42 75 42 102c0 30 -22 53 -45 73l22 22c19 19 36 29 55 29c42 0 62 -35 62 -70c0 -53 -45 -113 -124 -169z" />
    <glyph glyph-name="Dcroat" unicode="&#x110;" horiz-adv-x="763" 
d="M19 359v26h76v296h-66v19h309c247 0 384 -89 384 -338c0 -282 -171 -362 -410 -362h-283v19h66v340h-76zM290 19h38c135 0 188 87 188 311v58c0 243 -62 293 -202 293h-24v-296h129v-26h-129v-340z" />
    <glyph glyph-name="dcroat" unicode="&#x111;" horiz-adv-x="584" 
d="M350 0l-11 70c-21 -50 -60 -80 -138 -80c-111 0 -181 79 -181 247c0 169 70 249 198 249c62 0 98 -18 116 -49v148h-164v21h164v126h-61v18h250v-144h56v-21h-56v-567h49v-18h-222zM268 33c29 0 69 28 69 103v218c0 54 -21 103 -65 103c-49 0 -59 -59 -59 -198v-52
c0 -141 12 -174 55 -174z" />
    <glyph glyph-name="Emacron" unicode="&#x112;" horiz-adv-x="624" 
d="M21 700h520l10 -198h-18c-55 131 -102 176 -223 176h-35v-309h34c65 0 107 55 124 131h15v-296h-17c-24 100 -62 139 -132 139h-24v-321h38c127 0 215 87 245 196h20l-8 -218h-549v22h59v656h-59v22zM159 770v97h272v-97h-272z" />
    <glyph glyph-name="emacron" unicode="&#x113;" horiz-adv-x="516" 
d="M15 237c0 173 118 249 257 249c157 0 224 -79 218 -228h-282v-39c0 -118 21 -198 118 -198c74 0 124 47 146 124l18 -3c-23 -86 -75 -152 -217 -152c-178 0 -258 102 -258 247zM209 278h103v49c0 105 -8 140 -49 140c-35 0 -54 -34 -54 -140v-49zM131 567v95h272v-95
h-272z" />
    <glyph glyph-name="Ebreve" unicode="&#x114;" horiz-adv-x="624" 
d="M21 700h520l10 -198h-18c-55 131 -102 176 -223 176h-35v-309h34c65 0 107 55 124 131h15v-296h-17c-24 100 -62 139 -132 139h-24v-321h38c127 0 215 87 245 196h20l-8 -218h-549v22h59v656h-59v22zM157 918l16 3c19 -56 56 -68 128 -68c70 0 108 8 125 68l15 -3
c-10 -97 -45 -172 -142 -172c-104 0 -129 75 -142 172z" />
    <glyph glyph-name="ebreve" unicode="&#x115;" horiz-adv-x="516" 
d="M15 237c0 173 118 249 257 249c157 0 224 -79 218 -228h-282v-39c0 -118 21 -198 118 -198c74 0 124 47 146 124l18 -3c-23 -86 -75 -152 -217 -152c-178 0 -258 102 -258 247zM209 278h103v49c0 105 -8 140 -49 140c-35 0 -54 -34 -54 -140v-49zM125 721l16 3
c19 -56 56 -68 128 -68c70 0 108 8 125 68l15 -3c-10 -100 -45 -180 -142 -180c-104 0 -128 80 -142 180z" />
    <glyph glyph-name="Edotaccent" unicode="&#x116;" horiz-adv-x="624" 
d="M21 700h520l10 -198h-18c-55 131 -102 176 -223 176h-35v-309h34c65 0 107 55 124 131h15v-296h-17c-24 100 -62 139 -132 139h-24v-321h38c127 0 215 87 245 196h20l-8 -218h-549v22h59v656h-59v22zM200 846c0 49 27 93 102 93c62 0 99 -31 99 -92
c0 -53 -29 -94 -101 -94c-81 0 -100 51 -100 93z" />
    <glyph glyph-name="edotaccent" unicode="&#x117;" horiz-adv-x="516" 
d="M15 237c0 173 118 249 257 249c157 0 224 -79 218 -228h-282v-39c0 -118 21 -198 118 -198c74 0 124 47 146 124l18 -3c-23 -86 -75 -152 -217 -152c-178 0 -258 102 -258 247zM209 278h103v49c0 105 -8 140 -49 140c-35 0 -54 -34 -54 -140v-49zM167 638
c0 49 27 93 102 93c62 0 99 -31 99 -92c0 -53 -29 -94 -101 -94c-81 0 -100 51 -100 93z" />
    <glyph glyph-name="Eogonek" unicode="&#x118;" horiz-adv-x="624" 
d="M21 700h520l10 -198h-18c-55 131 -102 176 -223 176h-35v-309h34c65 0 107 55 124 131h15v-296h-17c-24 100 -62 139 -132 139h-24v-321h38c127 0 215 87 245 196h20l-8 -218h-69c-46 -37 -63 -82 -63 -147c0 -50 9 -63 32 -63c19 0 36 15 55 43l13 -8
c-23 -38 -51 -76 -120 -76c-56 0 -100 26 -100 83c0 54 18 86 110 142l42 26h-449v22h59v656h-59v22z" />
    <glyph glyph-name="eogonek" unicode="&#x119;" horiz-adv-x="516" 
d="M15 237c0 173 118 249 257 249c157 0 224 -79 218 -228h-282v-39c0 -118 21 -198 118 -198c74 0 124 47 146 124l18 -3c-15 -57 -41 -99 -96 -131c-54 -32 -74 -90 -74 -158c0 -50 9 -63 32 -63c19 0 36 15 55 43l13 -8c-23 -38 -51 -76 -120 -76c-56 0 -100 26 -100 83
c0 54 24 85 106 141l35 24c-20 -4 -43 -7 -68 -7c-178 0 -258 102 -258 247zM209 278h103v49c0 105 -8 140 -49 140c-35 0 -54 -34 -54 -140v-49z" />
    <glyph glyph-name="Ecaron" unicode="&#x11a;" horiz-adv-x="624" 
d="M21 700h520l10 -198h-18c-55 131 -102 176 -223 176h-35v-309h34c65 0 107 55 124 131h15v-296h-17c-24 100 -62 139 -132 139h-24v-321h38c127 0 215 87 245 196h20l-8 -218h-549v22h59v656h-59v22zM451 909l-106 -148c-14 -8 -37 -16 -55 -16c-37 0 -55 14 -70 40
l-74 124l9 10l142 -68l146 68z" />
    <glyph glyph-name="ecaron" unicode="&#x11b;" horiz-adv-x="516" 
d="M15 237c0 173 118 249 257 249c157 0 224 -79 218 -228h-282v-39c0 -118 21 -198 118 -198c74 0 124 47 146 124l18 -3c-23 -86 -75 -152 -217 -152c-178 0 -258 102 -258 247zM209 278h103v49c0 105 -8 140 -49 140c-35 0 -54 -34 -54 -140v-49zM405 734l-86 -190
c-15 -9 -37 -16 -54 -16c-37 0 -57 19 -69 48l-64 159l11 7l126 -106l124 107z" />
    <glyph glyph-name="Gcircumflex" unicode="&#x11c;" horiz-adv-x="723" 
d="M390 10c70 0 76 28 76 79v194h-64v22h288v-22h-39v-282h-15c-12 17 -23 25 -51 25c-40 0 -115 -36 -202 -36c-212 0 -342 112 -342 351c0 242 140 370 345 370c104 0 158 -31 193 -31c16 0 20 7 27 20h11l8 -217h-18c-56 112 -121 208 -209 208c-99 0 -153 -92 -153 -299
v-79c0 -203 53 -303 145 -303zM227 743l106 148c14 8 37 16 55 16c37 0 55 -14 70 -40l74 -124l-9 -10l-142 68l-146 -68z" />
    <glyph glyph-name="gcircumflex" unicode="&#x11d;" horiz-adv-x="522" 
d="M111 532l92 183c14 8 33 16 56 16c31 0 48 -17 60 -46l38 -95l-11 -7l-98 60l-125 -120zM439 545l-28 -17c2 -34 28 -52 58 -52c33 0 63 20 63 66c0 48 -34 74 -81 74c-41 0 -98 -24 -98 -106c0 -15 2 -31 6 -49c-33 18 -62 25 -111 25c-151 0 -216 -73 -216 -167
c0 -83 38 -130 116 -152c-78 -47 -114 -75 -114 -132c0 -44 32 -93 151 -93h97c105 0 127 -19 127 -67c0 -63 -56 -106 -162 -106c-107 0 -128 44 -128 86c0 16 2 33 8 55l-60 27c-35 -10 -77 -30 -77 -80c0 -65 73 -107 247 -107c202 0 282 80 282 191
c0 136 -114 163 -227 163h-102c-53 0 -64 5 -64 14s9 20 44 42c21 -4 52 -8 81 -8c122 0 204 57 204 171c0 66 -37 101 -76 127c-5 24 -7 44 -7 60c0 62 30 66 43 66c21 0 27 -15 24 -31zM199 287v54c0 109 20 127 48 127c27 0 43 -15 43 -127v-49c0 -104 -17 -120 -44 -120
c-30 0 -47 21 -47 115z" />
    <glyph glyph-name="Gbreve" unicode="&#x11e;" horiz-adv-x="723" 
d="M390 10c70 0 76 28 76 79v194h-64v22h288v-22h-39v-282h-15c-12 17 -23 25 -51 25c-40 0 -115 -36 -202 -36c-212 0 -342 112 -342 351c0 242 140 370 345 370c104 0 158 -31 193 -31c16 0 20 7 27 20h11l8 -217h-18c-56 112 -121 208 -209 208c-99 0 -153 -92 -153 -299
v-79c0 -203 53 -303 145 -303zM237 918l16 3c19 -56 56 -68 128 -68c70 0 108 8 125 68l15 -3c-10 -97 -45 -172 -142 -172c-104 0 -129 75 -142 172z" />
    <glyph glyph-name="gbreve" unicode="&#x11f;" horiz-adv-x="522" 
d="M411 528l28 17c3 16 -3 31 -24 31c-13 0 -43 -4 -43 -66c0 -16 2 -36 7 -60c39 -26 76 -61 76 -127c0 -114 -82 -171 -204 -171c-29 0 -60 4 -81 8c-35 -22 -44 -33 -44 -42s11 -14 64 -14h102c113 0 227 -27 227 -163c0 -111 -80 -191 -282 -191
c-174 0 -247 42 -247 107c0 50 42 70 77 80l60 -27c-6 -22 -8 -39 -8 -55c0 -42 21 -86 128 -86c106 0 162 43 162 106c0 48 -22 67 -127 67h-97c-119 0 -151 49 -151 93c0 57 36 85 114 132c-78 22 -116 69 -116 152c0 94 65 167 216 167c49 0 78 -7 111 -25
c-4 18 -6 34 -6 49c0 82 57 106 98 106c47 0 81 -26 81 -74c0 -46 -30 -66 -63 -66c-30 0 -56 18 -58 52zM199 341v-54c0 -94 17 -115 47 -115c27 0 44 16 44 120v49c0 112 -16 127 -43 127c-28 0 -48 -18 -48 -127zM105 721l16 3c19 -56 56 -68 128 -68c70 0 108 8 125 68
l15 -3c-10 -100 -45 -180 -142 -180c-104 0 -128 80 -142 180z" />
    <glyph glyph-name="Gdotaccent" unicode="&#x120;" horiz-adv-x="723" 
d="M390 10c70 0 76 28 76 79v194h-64v22h288v-22h-39v-282h-15c-12 17 -23 25 -51 25c-40 0 -115 -36 -202 -36c-212 0 -342 112 -342 351c0 242 140 370 345 370c104 0 158 -31 193 -31c16 0 20 7 27 20h11l8 -217h-18c-56 112 -121 208 -209 208c-99 0 -153 -92 -153 -299
v-79c0 -203 53 -303 145 -303zM279 846c0 49 27 93 102 93c62 0 99 -31 99 -92c0 -53 -29 -94 -101 -94c-81 0 -100 51 -100 93z" />
    <glyph glyph-name="gdotaccent" unicode="&#x121;" horiz-adv-x="522" 
d="M411 528l28 17c3 16 -3 31 -24 31c-13 0 -43 -4 -43 -66c0 -16 2 -36 7 -60c39 -26 76 -61 76 -127c0 -114 -82 -171 -204 -171c-29 0 -60 4 -81 8c-35 -22 -44 -33 -44 -42s11 -14 64 -14h102c113 0 227 -27 227 -163c0 -111 -80 -191 -282 -191
c-174 0 -247 42 -247 107c0 50 42 70 77 80l60 -27c-6 -22 -8 -39 -8 -55c0 -42 21 -86 128 -86c106 0 162 43 162 106c0 48 -22 67 -127 67h-97c-119 0 -151 49 -151 93c0 57 36 85 114 132c-78 22 -116 69 -116 152c0 94 65 167 216 167c49 0 78 -7 111 -25
c-4 18 -6 34 -6 49c0 82 57 106 98 106c47 0 81 -26 81 -74c0 -46 -30 -66 -63 -66c-30 0 -56 18 -58 52zM199 341v-54c0 -94 17 -115 47 -115c27 0 44 16 44 120v49c0 112 -16 127 -43 127c-28 0 -48 -18 -48 -127zM147 638c0 49 27 93 102 93c62 0 99 -31 99 -92
c0 -53 -29 -94 -101 -94c-81 0 -100 51 -100 93z" />
    <glyph glyph-name="Gcommaaccent" unicode="&#x122;" horiz-adv-x="723" 
d="M390 10c70 0 76 28 76 79v194h-64v22h288v-22h-39v-282h-15c-12 17 -23 25 -51 25c-40 0 -115 -36 -202 -36c-212 0 -342 112 -342 351c0 242 140 370 345 370c104 0 158 -31 193 -31c16 0 20 7 27 20h11l8 -217h-18c-56 112 -121 208 -209 208c-99 0 -153 -92 -153 -299
v-79c0 -203 53 -303 145 -303zM351 -290l-11 15c50 38 63 65 63 83c0 19 -7 28 -18 33l-31 -31c-22 8 -49 29 -49 67c0 45 29 69 71 69c50 0 77 -36 77 -91c0 -56 -32 -104 -102 -145z" />
    <glyph glyph-name="gcommaaccent" unicode="&#x123;" horiz-adv-x="522" 
d="M439 545l-28 -17c2 -34 28 -52 58 -52c33 0 63 20 63 66c0 48 -34 74 -81 74c-41 0 -98 -24 -98 -106c0 -15 2 -31 6 -49c-33 18 -62 25 -111 25c-151 0 -216 -73 -216 -167c0 -83 38 -130 116 -152c-78 -47 -114 -75 -114 -132c0 -44 32 -93 151 -93h97
c105 0 127 -19 127 -67c0 -63 -56 -106 -162 -106c-107 0 -128 44 -128 86c0 16 2 33 8 55l-60 27c-35 -10 -77 -30 -77 -80c0 -65 73 -107 247 -107c202 0 282 80 282 191c0 136 -114 163 -227 163h-102c-53 0 -64 5 -64 14s9 20 44 42c21 -4 52 -8 81 -8
c122 0 204 57 204 171c0 66 -37 101 -76 127c-5 24 -7 44 -7 60c0 62 30 66 43 66c21 0 27 -15 24 -31zM199 287v54c0 109 20 127 48 127c27 0 43 -15 43 -127v-49c0 -104 -17 -120 -44 -120c-30 0 -47 21 -47 115zM275 776l11 -15c-50 -38 -63 -65 -63 -83
c0 -19 7 -28 18 -33l31 31c22 -8 49 -29 49 -67c0 -45 -29 -69 -71 -69c-50 0 -77 36 -77 91c0 56 32 104 102 145z" />
    <glyph glyph-name="Hcircumflex" unicode="&#x124;" horiz-adv-x="749" 
d="M21 700h312v-19h-58v-310h199v310h-59v19h313v-19h-59v-662h59v-19h-313v19h59v326h-199v-326h58v-19h-312v19h59v662h-59v19zM222 743l106 148c14 8 37 16 55 16c37 0 55 -14 70 -40l74 -124l-9 -10l-142 68l-146 -68z" />
    <glyph glyph-name="hcircumflex" unicode="&#x125;" horiz-adv-x="616" 
d="M10 750h241v-366c17 50 50 102 149 102c93 0 155 -46 155 -167v-301h56v-18h-283v18h41v325c0 85 -12 95 -37 95c-42 0 -81 -63 -81 -144v-276h43v-18h-284v18h55v714h-55v18zM-13 780l106 148c14 8 37 16 55 16c37 0 55 -14 70 -40l74 -124l-9 -10l-142 68l-146 -68z
" />
    <glyph glyph-name="Hbar" unicode="&#x126;" horiz-adv-x="749" 
d="M21 700h312v-19h-58v-147h199v147h-59v19h313v-19h-59v-147h69v-26h-69v-489h59v-19h-313v19h59v326h-199v-326h58v-19h-312v19h59v489h-69v26h69v147h-59v19zM275 371h199v137h-199v-137z" />
    <glyph glyph-name="hbar" unicode="&#x127;" horiz-adv-x="616" 
d="M10 750h241v-144h171v-21h-171v-201c17 50 50 102 149 102c93 0 155 -46 155 -167v-301h56v-18h-283v18h41v325c0 85 -12 95 -37 95c-42 0 -81 -63 -81 -144v-276h43v-18h-284v18h55v567h-62v21h62v126h-55v18z" />
    <glyph glyph-name="Itilde" unicode="&#x128;" horiz-adv-x="355" 
d="M25 700h305v-19h-55v-662h55v-19h-305v19h55v662h-55v19zM248 752c-54 0 -113 40 -154 40c-14 0 -40 -5 -55 -41l-12 4c27 88 43 138 107 138c50 0 108 -40 145 -40c20 0 45 3 58 42l13 -4c-27 -107 -53 -139 -102 -139z" />
    <glyph glyph-name="itilde" unicode="&#x129;" horiz-adv-x="317" 
d="M205 548c-54 0 -113 40 -154 40c-14 0 -40 -5 -55 -41l-12 4c27 88 53 146 117 146c50 0 108 -40 145 -40c20 0 45 3 58 42l13 -4c-27 -107 -63 -147 -112 -147zM6 476h245v-458h56v-18h-297v18h55v440h-59v18z" />
    <glyph glyph-name="Imacron" unicode="&#x12a;" horiz-adv-x="355" 
d="M25 700h305v-19h-55v-662h55v-19h-305v19h55v662h-55v19zM41 770v97h272v-97h-272z" />
    <glyph glyph-name="imacron" unicode="&#x12b;" horiz-adv-x="317" 
d="M0 552v95h272v-95h-272zM6 476h245v-458h56v-18h-297v18h55v440h-59v18z" />
    <glyph glyph-name="Ibreve" unicode="&#x12c;" horiz-adv-x="355" 
d="M25 700h305v-19h-55v-662h55v-19h-305v19h55v662h-55v19zM35 918l16 3c19 -56 56 -68 128 -68c70 0 108 8 125 68l15 -3c-10 -97 -45 -172 -142 -172c-104 0 -129 75 -142 172z" />
    <glyph glyph-name="ibreve" unicode="&#x12d;" horiz-adv-x="317" 
d="M1 706l16 3c19 -56 56 -68 128 -68c70 0 108 8 125 68l15 -3c-10 -100 -45 -180 -142 -180c-104 0 -128 80 -142 180zM6 476h245v-458h56v-18h-297v18h55v440h-59v18z" />
    <glyph glyph-name="Iogonek" unicode="&#x12e;" horiz-adv-x="355" 
d="M25 700h305v-19h-55v-662h55v-19h-103c-45 -37 -62 -82 -62 -147c0 -50 9 -63 32 -63c19 0 36 15 55 43l13 -8c-23 -38 -51 -76 -120 -76c-56 0 -100 26 -100 83c0 54 18 86 110 142l42 26h-172v19h55v662h-55v19z" />
    <glyph glyph-name="iogonek" unicode="&#x12f;" horiz-adv-x="317" 
d="M6 476h245v-458h56v-18h-99c-45 -37 -62 -82 -62 -147c0 -50 9 -63 32 -63c19 0 36 15 55 43l13 -8c-23 -38 -51 -76 -120 -76c-56 0 -100 26 -100 83c0 54 18 86 110 142l42 26h-168v18h55v440h-59v18zM50 638c0 49 27 93 102 93c62 0 99 -31 99 -92
c0 -53 -29 -94 -101 -94c-81 0 -100 51 -100 93z" />
    <glyph glyph-name="Idotaccent" unicode="&#x130;" horiz-adv-x="355" 
d="M25 700h305v-19h-55v-662h55v-19h-305v19h55v662h-55v19zM77 846c0 49 27 93 102 93c62 0 99 -31 99 -92c0 -53 -29 -94 -101 -94c-81 0 -100 51 -100 93z" />
    <glyph glyph-name="idotaccent" horiz-adv-x="317" 
d="M59 638c0 49 27 93 102 93c62 0 99 -31 99 -92c0 -53 -29 -94 -101 -94c-81 0 -100 51 -100 93zM6 476h245v-458h56v-18h-297v18h55v440h-59v18z" />
    <glyph glyph-name="dotlessi" unicode="&#x131;" horiz-adv-x="317" 
d="M6 476h245v-458h56v-18h-297v18h55v440h-59v18z" />
    <glyph glyph-name="IJ" unicode="&#x132;" horiz-adv-x="862" 
d="M25 700h305v-19h-55v-662h55v-19h-305v19h55v662h-55v19zM521 700h325v-19h-55v-432c0 -184 -86 -258 -244 -258c-107 0 -176 43 -176 118c0 57 35 92 89 92c58 0 83 -33 83 -77c0 -17 -4 -35 -11 -54h-39c-6 -10 -9 -18 -9 -26c0 -21 20 -35 49 -35c53 0 63 28 63 168
v504h-75v19z" />
    <glyph glyph-name="Jcircumflex" unicode="&#x134;" horiz-adv-x="507" 
d="M166 700h325v-19h-55v-432c0 -184 -86 -258 -244 -258c-107 0 -176 43 -176 118c0 57 35 92 89 92c58 0 83 -33 83 -77c0 -17 -4 -35 -11 -54h-39c-6 -10 -9 -18 -9 -26c0 -21 20 -35 49 -35c53 0 63 28 63 168v504h-75v19zM173 743l106 148c14 8 37 16 55 16
c37 0 55 -14 70 -40l74 -124l-9 -10l-142 68l-146 -68z" />
    <glyph glyph-name="jcircumflex" unicode="&#x135;" horiz-adv-x="306" 
d="M251 476v-390c0 -208 -64 -336 -241 -336c-121 0 -160 60 -160 111c0 60 42 90 92 90c53 0 77 -34 77 -77c0 -14 -3 -30 -6 -42h-38c-23 -36 0 -65 34 -65c45 0 56 33 56 177v514h-65v18h251zM-2 532l89 190c15 8 37 16 59 16c32 0 52 -18 64 -48l61 -159l-11 -7
l-125 104l-125 -105z" />
    <glyph glyph-name="Kcommaaccent" unicode="&#x136;" horiz-adv-x="734" 
d="M25 700h305v-19h-55v-316l8 2l282 314h-79v19h175v-19h-60l-172 -192l240 -470h54v-19h-321v19h47l-165 319l-9 -2v-317h55v-19h-305v19h55v662h-55v19zM315 -290l-11 15c50 38 63 65 63 83c0 19 -7 28 -18 33l-31 -31c-22 8 -49 29 -49 67c0 45 29 69 71 69
c50 0 77 -36 77 -91c0 -56 -32 -104 -102 -145z" />
    <glyph glyph-name="kcommaaccent" unicode="&#x137;" horiz-adv-x="620" 
d="M337 0v18h46l-113 232l-19 -5v-227h46v-18h-287v18h55v714h-59v18h245v-485l16 6l225 187h-94v18h197v-18h-70l-119 -101l173 -339h36v-18h-278zM275 -290l-11 15c50 38 63 65 63 83c0 19 -7 28 -18 33l-31 -31c-22 8 -49 29 -49 67c0 45 29 69 71 69c50 0 77 -36 77 -91
c0 -56 -32 -104 -102 -145z" />
    <glyph glyph-name="kgreenlandic" unicode="&#x138;" horiz-adv-x="620" 
d="M337 0v18h46l-113 232l-19 -5v-227h46v-18h-287v18h55v440h-59v18h245v-211l16 6l225 187h-94v18h197v-18h-70l-119 -101l173 -339h36v-18h-278z" />
    <glyph glyph-name="Lacute" unicode="&#x139;" horiz-adv-x="596" 
d="M21 700h360v-22h-106v-656h36c124 0 179 90 238 212h21l-19 -234h-530v22h59v656h-59v22zM92 743l115 162l48 -4c36 -3 48 -25 48 -45c0 -25 -17 -47 -44 -58l-159 -65z" />
    <glyph glyph-name="lacute" unicode="&#x13a;" horiz-adv-x="316" 
d="M6 750h245v-732h56v-18h-297v18h55v714h-59v18zM51 780l115 162l48 -4c36 -3 48 -25 48 -45c0 -25 -17 -47 -44 -58l-159 -65z" />
    <glyph glyph-name="Lcommaaccent" unicode="&#x13b;" horiz-adv-x="596" 
d="M21 700h360v-22h-106v-656h36c124 0 179 90 238 212h21l-19 -234h-530v22h59v656h-59v22zM276 -290l-11 15c50 38 63 65 63 83c0 19 -7 28 -18 33l-31 -31c-22 8 -49 29 -49 67c0 45 29 69 71 69c50 0 77 -36 77 -91c0 -56 -32 -104 -102 -145z" />
    <glyph glyph-name="lcommaaccent" unicode="&#x13c;" horiz-adv-x="316" 
d="M6 750h245v-732h56v-18h-297v18h55v714h-59v18zM126 -291l-11 15c50 38 63 65 63 83c0 19 -7 28 -18 33l-31 -31c-22 8 -49 29 -49 67c0 45 29 69 71 69c50 0 77 -36 77 -91c0 -56 -32 -104 -102 -145z" />
    <glyph glyph-name="Lcaron" unicode="&#x13d;" horiz-adv-x="596" 
d="M21 700h360v-22h-106v-656h36c124 0 179 90 238 212h21l-19 -234h-530v22h59v656h-59v22zM424 477l-12 13c32 35 42 75 42 102c0 30 -22 53 -45 73l22 22c19 19 36 29 55 29c42 0 62 -35 62 -70c0 -53 -45 -113 -124 -169z" />
    <glyph glyph-name="lcaron" unicode="&#x13e;" horiz-adv-x="385" 
d="M6 750h245v-732h56v-18h-297v18h55v714h-59v18zM294 521l-12 13c32 35 42 75 42 102c0 30 -22 53 -45 73l22 22c19 19 36 29 55 29c42 0 62 -35 62 -70c0 -53 -45 -113 -124 -169z" />
    <glyph glyph-name="Ldot" unicode="&#x13f;" horiz-adv-x="596" 
d="M21 700h360v-22h-106v-656h36c124 0 179 90 238 212h21l-19 -234h-530v22h59v656h-59v22zM361 408c0 -42 19 -93 100 -93c72 0 101 41 101 94c0 61 -37 92 -99 92c-75 0 -102 -44 -102 -93z" />
    <glyph glyph-name="ldot" unicode="&#x140;" horiz-adv-x="437" 
d="M6 750h245v-732h56v-18h-297v18h55v714h-59v18zM276 411c0 -42 19 -93 100 -93c72 0 101 41 101 94c0 61 -37 92 -99 92c-75 0 -102 -44 -102 -93z" />
    <glyph glyph-name="Lslash" unicode="&#x141;" horiz-adv-x="596" 
d="M21 700h360v-22h-106v-271l156 87l13 -22l-169 -95v-355h36c124 0 179 90 238 212h21l-19 -234h-530v22h59v266l-62 -34l-12 23l74 40v361h-59v22z" />
    <glyph glyph-name="lslash" unicode="&#x142;" horiz-adv-x="322" 
d="M6 750h245v-297l66 34l6 -19l-72 -38v-412h56v-18h-297v18h55v337l-67 -33l-6 20l73 36v354h-59v18z" />
    <glyph glyph-name="Nacute" unicode="&#x143;" horiz-adv-x="670" 
d="M590 681v-681h-140l-343 647v-628h55v-19h-137v19h55v662h-55v19h276l262 -502v483h-55v19h137v-19h-55zM267 743l115 162l48 -4c36 -3 48 -25 48 -45c0 -25 -17 -47 -44 -58l-159 -65z" />
    <glyph glyph-name="nacute" unicode="&#x144;" horiz-adv-x="616" 
d="M10 476h241v-92c17 50 50 102 149 102c93 0 155 -46 155 -167v-301h56v-18h-283v18h41v325c0 85 -12 95 -37 95c-42 0 -81 -63 -81 -144v-276h43v-18h-284v18h55v440h-55v18zM256 547l63 191l47 10c45 10 64 -18 64 -44c0 -18 -8 -34 -29 -53l-134 -111z" />
    <glyph glyph-name="Ncommaaccent" unicode="&#x145;" horiz-adv-x="670" 
d="M590 681v-681h-140l-343 647v-628h55v-19h-137v19h55v662h-55v19h276l262 -502v483h-55v19h137v-19h-55zM310 -290l-11 15c50 38 63 65 63 83c0 19 -7 28 -18 33l-31 -31c-22 8 -49 29 -49 67c0 45 29 69 71 69c50 0 77 -36 77 -91c0 -56 -32 -104 -102 -145z" />
    <glyph glyph-name="ncommaaccent" unicode="&#x146;" horiz-adv-x="616" 
d="M10 476h241v-92c17 50 50 102 149 102c93 0 155 -46 155 -167v-301h56v-18h-283v18h41v325c0 85 -12 95 -37 95c-42 0 -81 -63 -81 -144v-276h43v-18h-284v18h55v440h-55v18zM280 -290l-11 15c50 38 63 65 63 83c0 19 -7 28 -18 33l-31 -31c-22 8 -49 29 -49 67
c0 45 29 69 71 69c50 0 77 -36 77 -91c0 -56 -32 -104 -102 -145z" />
    <glyph glyph-name="Ncaron" unicode="&#x147;" horiz-adv-x="670" 
d="M590 681v-681h-140l-343 647v-628h55v-19h-137v19h55v662h-55v19h276l262 -502v483h-55v19h137v-19h-55zM499 909l-106 -148c-14 -8 -37 -16 -55 -16c-37 0 -55 14 -70 40l-74 124l9 10l142 -68l146 68z" />
    <glyph glyph-name="ncaron" unicode="&#x148;" horiz-adv-x="616" 
d="M10 476h241v-92c17 50 50 102 149 102c93 0 155 -46 155 -167v-301h56v-18h-283v18h41v325c0 85 -12 95 -37 95c-42 0 -81 -63 -81 -144v-276h43v-18h-284v18h55v440h-55v18zM449 734l-86 -190c-15 -9 -37 -16 -54 -16c-37 0 -57 19 -69 48l-64 159l11 7l126 -106
l124 107z" />
    <glyph glyph-name="napostrophe" unicode="&#x149;" horiz-adv-x="667" 
d="M61 476h241v-92c17 50 50 102 149 102c93 0 155 -46 155 -167v-301h56v-18h-283v18h41v325c0 85 -12 95 -37 95c-42 0 -81 -63 -81 -144v-276h43v-18h-284v18h55v440h-55v18zM-11 448l-11 15c50 38 63 63 63 81c0 19 -7 28 -18 33l-29 -29c-22 8 -45 28 -45 65
c0 42 29 65 65 65c44 0 71 -35 71 -89s-26 -100 -96 -141z" />
    <glyph glyph-name="Eng" unicode="&#x14a;" horiz-adv-x="670" 
d="M590 681v-640c0 -184 -66 -258 -194 -258c-107 0 -171 43 -171 118c0 57 36 92 90 92s80 -35 80 -74c0 -13 -3 -36 -9 -57h-29c-23 -35 3 -61 31 -61c42 0 52 28 52 168v50l-333 628v-628h55v-19h-137v19h55v662h-55v19h276l262 -502v483h-55v19h137v-19h-55z" />
    <glyph glyph-name="eng" unicode="&#x14b;" horiz-adv-x="610" 
d="M10 476h241v-92c17 50 50 102 149 102c93 0 155 -46 155 -167v-233c0 -208 -64 -336 -241 -336c-121 0 -151 60 -151 111c0 60 42 90 92 90c53 0 77 -34 77 -77c0 -14 -3 -30 -6 -42h-29c-23 -36 -6 -65 20 -65c41 0 52 33 52 177v399c0 85 -12 95 -37 95
c-42 0 -81 -63 -81 -144v-276h43v-18h-284v18h55v440h-55v18z" />
    <glyph glyph-name="Omacron" unicode="&#x14c;" horiz-adv-x="748" 
d="M501 309v74c0 205 -6 307 -126 307c-121 0 -129 -106 -129 -311v-72c0 -188 12 -296 129 -296c112 0 126 97 126 298zM41 339c0 230 119 372 342 372c215 0 324 -132 324 -359c0 -223 -105 -362 -336 -362c-223 0 -330 129 -330 349zM240 770v97h272v-97h-272z" />
    <glyph glyph-name="omacron" unicode="&#x14d;" horiz-adv-x="543" 
d="M333 197v85c0 108 -3 186 -59 186c-61 0 -64 -78 -64 -191v-78c0 -116 2 -191 63 -191c57 0 60 59 60 189zM18 236c0 164 98 250 259 250c168 0 248 -79 248 -241c0 -164 -76 -255 -254 -255c-168 0 -253 90 -253 246zM138 567v95h272v-95h-272z" />
    <glyph glyph-name="Obreve" unicode="&#x14e;" horiz-adv-x="748" 
d="M501 309v74c0 205 -6 307 -126 307c-121 0 -129 -106 -129 -311v-72c0 -188 12 -296 129 -296c112 0 126 97 126 298zM41 339c0 230 119 372 342 372c215 0 324 -132 324 -359c0 -223 -105 -362 -336 -362c-223 0 -330 129 -330 349zM234 918l16 3c19 -56 56 -68 128 -68
c70 0 108 8 125 68l15 -3c-10 -97 -45 -172 -142 -172c-104 0 -129 75 -142 172z" />
    <glyph glyph-name="obreve" unicode="&#x14f;" horiz-adv-x="543" 
d="M333 197v85c0 108 -3 186 -59 186c-61 0 -64 -78 -64 -191v-78c0 -116 2 -191 63 -191c57 0 60 59 60 189zM18 236c0 164 98 250 259 250c168 0 248 -79 248 -241c0 -164 -76 -255 -254 -255c-168 0 -253 90 -253 246zM132 721l16 3c19 -56 56 -68 128 -68
c70 0 108 8 125 68l15 -3c-10 -100 -45 -180 -142 -180c-104 0 -128 80 -142 180z" />
    <glyph glyph-name="Ohungarumlaut" unicode="&#x150;" horiz-adv-x="748" 
d="M501 309v74c0 205 -6 307 -126 307c-121 0 -129 -106 -129 -311v-72c0 -188 12 -296 129 -296c112 0 126 97 126 298zM41 339c0 230 119 372 342 372c215 0 324 -132 324 -359c0 -223 -105 -362 -336 -362c-223 0 -330 129 -330 349zM406 742l88 174l45 5
c41 5 53 -19 53 -41c0 -24 -16 -43 -35 -55l-141 -91zM265 742l76 180l44 7c40 7 55 -14 55 -38c0 -21 -11 -43 -29 -56l-135 -101z" />
    <glyph glyph-name="ohungarumlaut" unicode="&#x151;" horiz-adv-x="543" 
d="M333 197v85c0 108 -3 186 -59 186c-61 0 -64 -78 -64 -191v-78c0 -116 2 -191 63 -191c57 0 60 59 60 189zM18 236c0 164 98 250 259 250c168 0 248 -79 248 -241c0 -164 -76 -255 -254 -255c-168 0 -253 90 -253 246zM316 547l63 191l47 10c45 10 64 -18 64 -44
c0 -18 -8 -34 -29 -53l-134 -111zM168 546l53 194l46 13c44 12 65 -15 66 -41c1 -18 -6 -34 -26 -54l-128 -118z" />
    <glyph glyph-name="OE" unicode="&#x152;" horiz-adv-x="1045" 
d="M564 700h398l10 -198h-18c-55 131 -102 176 -223 176h-35v-309h34c65 0 107 55 124 131h15v-296h-17c-24 100 -62 139 -132 139h-24v-321h38c127 0 215 87 245 196h20l-8 -218h-428v73c-48 -50 -118 -83 -206 -83c-202 0 -316 129 -316 349c0 230 124 372 332 372
c86 0 144 -28 191 -83v72zM501 309v74c0 205 -6 307 -126 307c-121 0 -129 -106 -129 -311v-72c0 -188 12 -296 129 -296c112 0 126 97 126 298z" />
    <glyph glyph-name="oe" unicode="&#x153;" horiz-adv-x="832" 
d="M15 236c0 164 93 250 258 250c75 0 130 -27 165 -70c40 43 93 70 168 70c139 0 206 -79 200 -228h-282v-39c0 -118 21 -198 118 -198c74 0 124 47 146 124l18 -3c-23 -86 -75 -152 -197 -152c-87 0 -144 31 -177 70c-41 -43 -90 -70 -172 -70c-160 0 -245 90 -245 246z
M339 197v85c0 108 -7 186 -63 186c-61 0 -68 -78 -68 -191v-78c0 -116 6 -191 67 -191c57 0 64 59 64 189zM525 278h103v49c0 105 -8 140 -49 140c-35 0 -54 -34 -54 -140v-49z" />
    <glyph glyph-name="Racute" unicode="&#x154;" horiz-adv-x="716" 
d="M328 354h-53v-335h65v-19h-325v19h65v662h-65v19h302c209 0 309 -22 309 -168c0 -122 -64 -158 -170 -167v-3c108 -14 145 -56 145 -172v-53c0 -65 3 -88 31 -88c18 0 33 8 46 86l17 -2c-15 -114 -43 -143 -136 -143c-126 0 -163 42 -163 183v73c0 71 -14 108 -68 108z
M275 681v-308h32c74 0 112 41 112 149v29c0 112 -41 130 -111 130h-33zM234 743l115 162l48 -4c36 -3 48 -25 48 -45c0 -25 -17 -47 -44 -58l-159 -65z" />
    <glyph glyph-name="racute" unicode="&#x155;" horiz-adv-x="495" 
d="M344 448c-48 0 -93 -72 -93 -162v-268h71v-18h-312v18h55v440h-55v18h241v-96c18 71 74 106 134 106c59 0 106 -31 106 -107c0 -57 -30 -95 -84 -95c-67 0 -99 42 -78 113h36c20 41 0 51 -21 51zM203 547l63 191l47 10c45 10 64 -18 64 -44c0 -18 -8 -34 -29 -53
l-134 -111z" />
    <glyph glyph-name="Rcommaaccent" unicode="&#x156;" horiz-adv-x="716" 
d="M328 354h-53v-335h65v-19h-325v19h65v662h-65v19h302c209 0 309 -22 309 -168c0 -122 -64 -158 -170 -167v-3c108 -14 145 -56 145 -172v-53c0 -65 3 -88 31 -88c18 0 33 8 46 86l17 -2c-15 -114 -43 -143 -136 -143c-126 0 -163 42 -163 183v73c0 71 -14 108 -68 108z
M275 681v-308h32c74 0 112 41 112 149v29c0 112 -41 130 -111 130h-33zM321 -290l-11 15c50 38 63 65 63 83c0 19 -7 28 -18 33l-31 -31c-22 8 -49 29 -49 67c0 45 29 69 71 69c50 0 77 -36 77 -91c0 -56 -32 -104 -102 -145z" />
    <glyph glyph-name="rcommaaccent" unicode="&#x157;" horiz-adv-x="495" 
d="M344 448c-48 0 -93 -72 -93 -162v-268h71v-18h-312v18h55v440h-55v18h241v-96c18 71 74 106 134 106c59 0 106 -31 106 -107c0 -57 -30 -95 -84 -95c-67 0 -99 42 -78 113h36c20 41 0 51 -21 51zM126 -290l-11 15c50 38 63 65 63 83c0 19 -7 28 -18 33l-31 -31
c-22 8 -49 29 -49 67c0 45 29 69 71 69c50 0 77 -36 77 -91c0 -56 -32 -104 -102 -145z" />
    <glyph glyph-name="Rcaron" unicode="&#x158;" horiz-adv-x="716" 
d="M328 354h-53v-335h65v-19h-325v19h65v662h-65v19h302c209 0 309 -22 309 -168c0 -122 -64 -158 -170 -167v-3c108 -14 145 -56 145 -172v-53c0 -65 3 -88 31 -88c18 0 33 8 46 86l17 -2c-15 -114 -43 -143 -136 -143c-126 0 -163 42 -163 183v73c0 71 -14 108 -68 108z
M275 681v-308h32c74 0 112 41 112 149v29c0 112 -41 130 -111 130h-33zM478 909l-106 -148c-14 -8 -37 -16 -55 -16c-37 0 -55 14 -70 40l-74 124l9 10l142 -68l146 68z" />
    <glyph glyph-name="rcaron" unicode="&#x159;" horiz-adv-x="495" 
d="M344 448c-48 0 -93 -72 -93 -162v-268h71v-18h-312v18h55v440h-55v18h241v-96c18 71 74 106 134 106c59 0 106 -31 106 -107c0 -57 -30 -95 -84 -95c-67 0 -99 42 -78 113h36c20 41 0 51 -21 51zM388 734l-86 -190c-15 -9 -37 -16 -54 -16c-37 0 -57 19 -69 48l-64 159
l11 7l126 -106l124 107z" />
    <glyph glyph-name="Sacute" unicode="&#x15a;" horiz-adv-x="600" 
d="M325 11c60 0 127 32 127 105c0 83 -62 110 -185 145c-121 34 -213 82 -213 233c0 112 83 217 237 217c92 0 144 -31 178 -31c17 0 22 7 29 20h11l7 -202h-16c-51 92 -119 192 -222 192c-72 0 -122 -42 -122 -101c0 -74 68 -99 169 -126c111 -30 234 -68 234 -234
c0 -144 -98 -239 -245 -239c-97 0 -181 30 -209 30c-16 0 -22 -11 -30 -30h-14l-10 238h17c50 -100 147 -217 257 -217zM203 743l115 162l48 -4c36 -3 48 -25 48 -45c0 -25 -17 -47 -44 -58l-159 -65z" />
    <glyph glyph-name="sacute" unicode="&#x15b;" horiz-adv-x="434" 
d="M33 -10v179h12c37 -122 98 -157 180 -157c74 0 102 27 102 65c0 45 -49 55 -125 76c-80 22 -169 53 -169 164c0 102 70 169 176 169c44 0 74 -11 101 -23c12 -5 16 -8 28 -8c15 0 22 8 35 33h11v-153h-12c-36 92 -87 130 -158 130c-66 0 -93 -27 -93 -58
c0 -46 60 -57 126 -75c79 -21 167 -53 167 -171c0 -114 -74 -171 -187 -171c-48 0 -82 10 -120 29c-6 4 -15 8 -19 8c-13 0 -27 -9 -43 -37h-12zM160 547l63 191l47 10c45 10 64 -18 64 -44c0 -18 -8 -34 -29 -53l-134 -111z" />
    <glyph glyph-name="Scircumflex" unicode="&#x15c;" horiz-adv-x="600" 
d="M325 11c60 0 127 32 127 105c0 83 -62 110 -185 145c-121 34 -213 82 -213 233c0 112 83 217 237 217c92 0 144 -31 178 -31c17 0 22 7 29 20h11l7 -202h-16c-51 92 -119 192 -222 192c-72 0 -122 -42 -122 -101c0 -74 68 -99 169 -126c111 -30 234 -68 234 -234
c0 -144 -98 -239 -245 -239c-97 0 -181 30 -209 30c-16 0 -22 -11 -30 -30h-14l-10 238h17c50 -100 147 -217 257 -217zM139 743l106 148c14 8 37 16 55 16c37 0 55 -14 70 -40l74 -124l-9 -10l-142 68l-146 -68z" />
    <glyph glyph-name="scircumflex" unicode="&#x15d;" horiz-adv-x="434" 
d="M33 -10v179h12c37 -122 98 -157 180 -157c74 0 102 27 102 65c0 45 -49 55 -125 76c-80 22 -169 53 -169 164c0 102 70 169 176 169c44 0 74 -11 101 -23c12 -5 16 -8 28 -8c15 0 22 8 35 33h11v-153h-12c-36 92 -87 130 -158 130c-66 0 -93 -27 -93 -58
c0 -46 60 -57 126 -75c79 -21 167 -53 167 -171c0 -114 -74 -171 -187 -171c-48 0 -82 10 -120 29c-6 4 -15 8 -19 8c-13 0 -27 -9 -43 -37h-12zM81 532l89 190c15 8 37 16 59 16c32 0 52 -18 64 -48l61 -159l-11 -7l-125 104l-125 -105z" />
    <glyph glyph-name="Scedilla" unicode="&#x15e;" horiz-adv-x="600" 
d="M325 11c60 0 127 32 127 105c0 83 -62 110 -185 145c-121 34 -213 82 -213 233c0 112 83 217 237 217c92 0 144 -31 178 -31c17 0 22 7 29 20h11l7 -202h-16c-51 92 -119 192 -222 192c-72 0 -122 -42 -122 -101c0 -74 68 -99 169 -126c111 -30 234 -68 234 -234
c0 -144 -98 -239 -245 -239h-13l-29 -49c7 1 21 3 33 3c74 0 105 -36 105 -89c0 -45 -33 -104 -136 -104c-62 0 -103 28 -103 66c0 28 18 45 43 45s40 -19 46 -38l-26 -20c0 -16 8 -37 34 -37c25 0 36 20 36 77c0 52 -1 82 -32 82c-9 0 -18 -1 -30 -4l-3 9l36 61
c-80 6 -146 28 -170 28c-16 0 -22 -11 -30 -30h-14l-10 238h17c50 -100 147 -217 257 -217z" />
    <glyph glyph-name="scedilla" unicode="&#x15f;" horiz-adv-x="428" 
d="M33 -10v179h12c37 -122 98 -157 180 -157c74 0 102 27 102 65c0 45 -49 55 -125 76c-80 22 -169 53 -169 164c0 102 70 169 176 169c44 0 74 -11 101 -23c12 -5 16 -8 28 -8c15 0 22 8 35 33h11v-153h-12c-36 92 -87 130 -158 130c-66 0 -93 -27 -93 -58
c0 -46 60 -57 126 -75c79 -21 167 -53 167 -171c0 -114 -74 -171 -187 -171c-6 0 -11 0 -16 1l-28 -49c7 1 21 3 33 3c74 0 105 -36 105 -89c0 -45 -33 -104 -136 -104c-62 0 -103 28 -103 66c0 28 18 45 43 45s40 -19 46 -38l-26 -20c0 -16 8 -37 34 -37c25 0 36 20 36 77
c0 52 -1 82 -32 82c-9 0 -18 -1 -30 -4l-3 9l36 61c-28 4 -53 13 -79 26c-6 4 -15 8 -19 8c-13 0 -27 -9 -43 -37h-12z" />
    <glyph glyph-name="Scaron" unicode="&#x160;" horiz-adv-x="600" 
d="M325 11c60 0 127 32 127 105c0 83 -62 110 -185 145c-121 34 -213 82 -213 233c0 112 83 217 237 217c92 0 144 -31 178 -31c17 0 22 7 29 20h11l7 -202h-16c-51 92 -119 192 -222 192c-72 0 -122 -42 -122 -101c0 -74 68 -99 169 -126c111 -30 234 -68 234 -234
c0 -144 -98 -239 -245 -239c-97 0 -181 30 -209 30c-16 0 -22 -11 -30 -30h-14l-10 238h17c50 -100 147 -217 257 -217zM457 909l-106 -148c-14 -8 -37 -16 -55 -16c-37 0 -55 14 -70 40l-74 124l9 10l142 -68l146 68z" />
    <glyph glyph-name="scaron" unicode="&#x161;" horiz-adv-x="434" 
d="M33 -10v179h12c37 -122 98 -157 180 -157c74 0 102 27 102 65c0 45 -49 55 -125 76c-80 22 -169 53 -169 164c0 102 70 169 176 169c44 0 74 -11 101 -23c12 -5 16 -8 28 -8c15 0 22 8 35 33h11v-153h-12c-36 92 -87 130 -158 130c-66 0 -93 -27 -93 -58
c0 -46 60 -57 126 -75c79 -21 167 -53 167 -171c0 -114 -74 -171 -187 -171c-48 0 -82 10 -120 29c-6 4 -15 8 -19 8c-13 0 -27 -9 -43 -37h-12zM358 734l-86 -190c-15 -9 -37 -16 -54 -16c-37 0 -57 19 -69 48l-64 159l11 7l126 -106l124 107z" />
    <glyph glyph-name="Scommaaccent" unicode="&#x218;" horiz-adv-x="600" 
d="M325 11c60 0 127 32 127 105c0 83 -62 110 -185 145c-121 34 -213 82 -213 233c0 112 83 217 237 217c92 0 144 -31 178 -31c17 0 22 7 29 20h11l7 -202h-16c-51 92 -119 192 -222 192c-72 0 -122 -42 -122 -101c0 -74 68 -99 169 -126c111 -30 234 -68 234 -234
c0 -144 -98 -239 -245 -239c-97 0 -181 30 -209 30c-16 0 -22 -11 -30 -30h-14l-10 238h17c50 -100 147 -217 257 -217zM268 -290l-11 15c50 38 63 65 63 83c0 19 -7 28 -18 33l-31 -31c-22 8 -49 29 -49 67c0 45 29 69 71 69c50 0 77 -36 77 -91c0 -56 -32 -104 -102 -145z
" />
    <glyph glyph-name="scommaaccent" unicode="&#x219;" horiz-adv-x="434" 
d="M33 -10v179h12c37 -122 98 -157 180 -157c74 0 102 27 102 65c0 45 -49 55 -125 76c-80 22 -169 53 -169 164c0 102 70 169 176 169c44 0 74 -11 101 -23c12 -5 16 -8 28 -8c15 0 22 8 35 33h11v-153h-12c-36 92 -87 130 -158 130c-66 0 -93 -27 -93 -58
c0 -46 60 -57 126 -75c79 -21 167 -53 167 -171c0 -114 -74 -171 -187 -171c-48 0 -82 10 -120 29c-6 4 -15 8 -19 8c-13 0 -27 -9 -43 -37h-12zM188 -290l-11 15c50 38 63 65 63 83c0 19 -7 28 -18 33l-31 -31c-22 8 -49 29 -49 67c0 45 29 69 71 69c50 0 77 -36 77 -91
c0 -56 -32 -104 -102 -145z" />
    <glyph glyph-name="uni0162" unicode="&#x162;" horiz-adv-x="683" 
d="M636 700l10 -251h-19c-54 163 -85 230 -176 230h-12v-658h85v-21h-168l-32 -55c7 1 21 3 33 3c74 0 105 -36 105 -89c0 -45 -33 -104 -136 -104c-62 0 -103 28 -103 66c0 28 18 45 43 45s40 -19 46 -38l-26 -20c0 -16 8 -37 34 -37c25 0 36 20 36 77c0 52 -1 82 -32 82
c-9 0 -18 -1 -30 -4l-3 9l39 65h-171v21h85v658h-13c-91 0 -125 -75 -176 -230h-19l10 251h590z" />
    <glyph glyph-name="uni0163" unicode="&#x163;" horiz-adv-x="384" 
d="M50 143v315h-55v18h55v129l186 46v-175h130v-18h-130v-337c0 -59 9 -91 44 -91c48 0 78 44 87 112l17 -2c-9 -78 -42 -150 -164 -150h-7l-26 -45c7 1 21 3 33 3c74 0 105 -36 105 -89c0 -45 -33 -104 -136 -104c-62 0 -103 28 -103 66c0 28 18 45 43 45s40 -19 46 -38
l-26 -20c0 -16 8 -37 34 -37c25 0 36 20 36 77c0 52 -1 82 -32 82c-9 0 -18 -1 -30 -4l-3 9l34 56c-82 7 -138 42 -138 152z" />
    <glyph glyph-name="Tcaron" unicode="&#x164;" horiz-adv-x="683" 
d="M636 700l10 -251h-19c-54 163 -85 230 -176 230h-12v-658h85v-21h-365v21h85v658h-13c-91 0 -125 -75 -176 -230h-19l10 251h590zM497 909l-106 -148c-14 -8 -37 -16 -55 -16c-37 0 -55 14 -70 40l-74 124l9 10l142 -68l146 68z" />
    <glyph glyph-name="tcaron" unicode="&#x165;" horiz-adv-x="394" 
d="M60 143v315h-55v18h55v129l186 46v-175h130v-18h-130v-337c0 -59 9 -91 44 -91c48 0 78 44 87 112l17 -2c-9 -78 -42 -150 -164 -150c-99 0 -170 29 -170 153zM285 514l-12 13c32 35 42 75 42 102c0 30 -22 53 -45 73l22 22c19 19 36 29 55 29c42 0 62 -35 62 -70
c0 -53 -45 -113 -124 -169z" />
    <glyph glyph-name="Tbar" unicode="&#x166;" horiz-adv-x="683" 
d="M636 700l10 -251h-19c-54 163 -85 230 -176 230h-12v-312h144v-26h-144v-320h85v-21h-365v21h85v320h-144v26h144v312h-13c-91 0 -125 -75 -176 -230h-19l10 251h590z" />
    <glyph glyph-name="tbar" unicode="&#x167;" horiz-adv-x="384" 
d="M-5 287v21h55v150h-55v18h55v129l186 46v-175h130v-18h-130v-150h130v-21h-130v-166c0 -59 9 -91 44 -91c48 0 78 44 87 112l17 -2c-9 -78 -42 -150 -164 -150c-99 0 -170 29 -170 153v144h-55z" />
    <glyph glyph-name="uni021A" unicode="&#x21a;" horiz-adv-x="683" 
d="M636 700l10 -251h-19c-54 163 -85 230 -176 230h-12v-658h85v-21h-365v21h85v658h-13c-91 0 -125 -75 -176 -230h-19l10 251h590zM313 -290l-11 15c50 38 63 65 63 83c0 19 -7 28 -18 33l-31 -31c-22 8 -49 29 -49 67c0 45 29 69 71 69c50 0 77 -36 77 -91
c0 -56 -32 -104 -102 -145z" />
    <glyph glyph-name="uni021B" unicode="&#x21b;" horiz-adv-x="394" 
d="M60 143v315h-55v18h55v129l186 46v-175h130v-18h-130v-337c0 -59 9 -91 44 -91c48 0 78 44 87 112l17 -2c-9 -78 -42 -150 -164 -150c-99 0 -170 29 -170 153zM197 -290l-11 15c50 38 63 65 63 83c0 19 -7 28 -18 33l-31 -31c-22 8 -49 29 -49 67c0 45 29 69 71 69
c50 0 77 -36 77 -91c0 -56 -32 -104 -102 -145z" />
    <glyph glyph-name="Utilde" unicode="&#x168;" horiz-adv-x="683" 
d="M420 23c-123 0 -149 80 -149 190v468h65v19h-315v-19h55v-434c0 -199 117 -257 280 -257c205 0 256 92 256 246v445h55v19h-146v-19h65v-452c0 -143 -65 -206 -166 -206zM441 752c-54 0 -113 40 -154 40c-14 0 -40 -5 -55 -41l-12 4c27 88 43 138 107 138
c50 0 108 -40 145 -40c20 0 45 3 58 42l13 -4c-27 -107 -53 -139 -102 -139z" />
    <glyph glyph-name="utilde" unicode="&#x169;" horiz-adv-x="605" 
d="M595 0h-228l-11 73c-19 -47 -51 -83 -141 -83c-93 0 -155 46 -155 167v301h-56v18h242v-343c0 -85 12 -98 37 -98c40 0 71 41 71 117v306h-46v18h232v-458h55v-18zM356 563c-54 0 -113 40 -154 40c-14 0 -40 -5 -55 -41l-12 4c27 88 53 146 117 146c50 0 108 -40 145 -40
c20 0 45 3 58 42l13 -4c-27 -107 -63 -147 -112 -147z" />
    <glyph glyph-name="Umacron" unicode="&#x16a;" horiz-adv-x="683" 
d="M420 23c-123 0 -149 80 -149 190v468h65v19h-315v-19h55v-434c0 -199 117 -257 280 -257c205 0 256 92 256 246v445h55v19h-146v-19h65v-452c0 -143 -65 -206 -166 -206zM234 770v97h272v-97h-272z" />
    <glyph glyph-name="umacron" unicode="&#x16b;" horiz-adv-x="605" 
d="M595 0h-228l-11 73c-19 -47 -51 -83 -141 -83c-93 0 -155 46 -155 167v301h-56v18h242v-343c0 -85 12 -98 37 -98c40 0 71 41 71 117v306h-46v18h232v-458h55v-18zM156 567v95h272v-95h-272z" />
    <glyph glyph-name="Ubreve" unicode="&#x16c;" horiz-adv-x="683" 
d="M420 23c101 0 166 63 166 206v452h-65v19h146v-19h-55v-445c0 -154 -51 -246 -256 -246c-163 0 -280 58 -280 257v434h-55v19h315v-19h-65v-468c0 -110 26 -190 149 -190zM253 918l16 3c19 -56 56 -68 128 -68c70 0 108 8 125 68l15 -3c-10 -97 -45 -172 -142 -172
c-104 0 -129 75 -142 172z" />
    <glyph glyph-name="ubreve" unicode="&#x16d;" horiz-adv-x="605" 
d="M595 0h-228l-11 73c-19 -47 -51 -83 -141 -83c-93 0 -155 46 -155 167v301h-56v18h242v-343c0 -85 12 -98 37 -98c40 0 71 41 71 117v306h-46v18h232v-458h55v-18zM150 721l16 3c19 -56 56 -68 128 -68c70 0 108 8 125 68l15 -3c-10 -100 -45 -180 -142 -180
c-104 0 -128 80 -142 180z" />
    <glyph glyph-name="Uring" unicode="&#x16e;" horiz-adv-x="683" 
d="M420 23c-123 0 -149 80 -149 190v468h65v19h-315v-19h55v-434c0 -199 117 -257 280 -257c205 0 256 92 256 246v445h55v19h-146v-19h65v-452c0 -143 -65 -206 -166 -206zM331 836c0 -37 16 -73 72 -73c50 0 71 34 71 73c0 37 -21 71 -73 71s-70 -35 -70 -71zM301 836
c0 52 33 95 103 95c66 0 99 -39 99 -93c0 -58 -36 -99 -101 -99c-71 0 -101 40 -101 97z" />
    <glyph glyph-name="uring" unicode="&#x16f;" horiz-adv-x="605" 
d="M595 0h-228l-11 73c-19 -47 -51 -83 -141 -83c-93 0 -155 46 -155 167v301h-56v18h242v-343c0 -85 12 -98 37 -98c40 0 71 41 71 117v306h-46v18h232v-458h55v-18zM221 632c0 -37 16 -73 72 -73c50 0 71 34 71 73c0 37 -21 71 -73 71s-70 -35 -70 -71zM191 632
c0 52 33 95 103 95c66 0 99 -39 99 -93c0 -58 -36 -99 -101 -99c-71 0 -101 40 -101 97z" />
    <glyph glyph-name="Uhungarumlaut" unicode="&#x170;" horiz-adv-x="683" 
d="M420 23c-123 0 -149 80 -149 190v468h65v19h-315v-19h55v-434c0 -199 117 -257 280 -257c205 0 256 92 256 246v445h55v19h-146v-19h65v-452c0 -143 -65 -206 -166 -206zM400 742l88 174l45 5c41 5 53 -19 53 -41c0 -24 -16 -43 -35 -55l-141 -91zM259 742l76 180l44 7
c40 7 55 -14 55 -38c0 -21 -11 -43 -29 -56l-135 -101z" />
    <glyph glyph-name="uhungarumlaut" unicode="&#x171;" horiz-adv-x="605" 
d="M595 0h-228l-11 73c-19 -47 -51 -83 -141 -83c-93 0 -155 46 -155 167v301h-56v18h242v-343c0 -85 12 -98 37 -98c40 0 71 41 71 117v306h-46v18h232v-458h55v-18zM334 547l63 191l47 10c45 10 64 -18 64 -44c0 -18 -8 -34 -29 -53l-134 -111zM186 546l53 194l46 13
c44 12 65 -15 66 -41c1 -18 -6 -34 -26 -54l-128 -118z" />
    <glyph glyph-name="Uogonek" unicode="&#x172;" horiz-adv-x="683" 
d="M420 23c101 0 166 63 166 206v452h-65v19h146v-19h-55v-445c0 -111 -27 -177 -110 -224c-55 -31 -75 -91 -75 -159c0 -50 9 -63 32 -63c19 0 36 15 55 43l13 -8c-23 -38 -51 -76 -120 -76c-56 0 -100 26 -100 83c0 54 13 83 104 141l41 26c-28 -5 -59 -9 -96 -9
c-163 0 -280 58 -280 257v434h-55v19h315v-19h-65v-468c0 -110 26 -190 149 -190z" />
    <glyph glyph-name="uogonek" unicode="&#x173;" horiz-adv-x="605" 
d="M595 0h-79c-45 -37 -62 -82 -62 -147c0 -50 9 -63 32 -63c19 0 36 15 55 43l13 -8c-23 -38 -51 -76 -120 -76c-56 0 -100 26 -100 83c0 54 18 86 110 142l42 26h-119l-11 73c-19 -47 -51 -83 -141 -83c-93 0 -155 46 -155 167v301h-56v18h242v-343c0 -85 12 -98 37 -98
c40 0 71 41 71 117v306h-46v18h232v-458h55v-18z" />
    <glyph glyph-name="Wcircumflex" unicode="&#x174;" horiz-adv-x="1015" 
d="M424 202l83 288l-60 191h-57v19h310v-19h-59l149 -473l120 473h-101v19h200v-19h-66l-184 -691h-89l-148 452l-130 -452h-87l-252 691h-47v19h325v-19h-70zM392 743l106 148c14 8 37 16 55 16c37 0 55 -14 70 -40l74 -124l-9 -10l-142 68l-146 -68z" />
    <glyph glyph-name="wcircumflex" unicode="&#x175;" horiz-adv-x="834" 
d="M352 458v18h258v-18h-41l90 -337l89 337h-69v18h135v-18h-42l-120 -458h-137l-87 307l-94 -307h-134l-148 458h-45v18h303v-18h-60l92 -340l72 234l-25 106h-37zM337 532l89 190c15 8 37 16 59 16c32 0 52 -18 64 -48l61 -159l-11 -7l-125 104l-125 -105z" />
    <glyph glyph-name="Wgrave" unicode="&#x1e80;" horiz-adv-x="1015" 
d="M424 202l83 288l-60 191h-57v19h310v-19h-59l149 -473l120 473h-101v19h200v-19h-66l-184 -691h-89l-148 452l-130 -452h-87l-252 691h-47v19h325v-19h-70zM524 905l115 -162l-8 -10l-159 65c-27 11 -44 33 -44 58c0 20 12 42 48 45z" />
    <glyph glyph-name="wgrave" unicode="&#x1e81;" horiz-adv-x="834" 
d="M352 458v18h258v-18h-41l90 -337l89 337h-69v18h135v-18h-42l-120 -458h-137l-87 307l-94 -307h-134l-148 458h-45v18h303v-18h-60l92 -340l72 234l-25 106h-37zM479 738l63 -191l-11 -7l-134 111c-21 19 -29 35 -29 53c0 26 19 54 64 44z" />
    <glyph glyph-name="Wacute" unicode="&#x1e82;" horiz-adv-x="1015" 
d="M424 202l83 288l-60 191h-57v19h310v-19h-59l149 -473l120 473h-101v19h200v-19h-66l-184 -691h-89l-148 452l-130 -452h-87l-252 691h-47v19h325v-19h-70zM456 743l115 162l48 -4c36 -3 48 -25 48 -45c0 -25 -17 -47 -44 -58l-159 -65z" />
    <glyph glyph-name="wacute" unicode="&#x1e83;" horiz-adv-x="834" 
d="M352 458v18h258v-18h-41l90 -337l89 337h-69v18h135v-18h-42l-120 -458h-137l-87 307l-94 -307h-134l-148 458h-45v18h303v-18h-60l92 -340l72 234l-25 106h-37zM404 547l63 191l47 10c45 10 64 -18 64 -44c0 -18 -8 -34 -29 -53l-134 -111z" />
    <glyph glyph-name="Wdieresis" unicode="&#x1e84;" horiz-adv-x="1015" 
d="M424 202l83 288l-60 191h-57v19h310v-19h-59l149 -473l120 473h-101v19h200v-19h-66l-184 -691h-89l-148 452l-130 -452h-87l-252 691h-47v19h325v-19h-70zM566 821c0 39 26 73 74 73c43 0 75 -23 75 -73c0 -44 -26 -75 -74 -75c-56 0 -75 39 -75 75zM373 821
c0 39 26 73 74 73c43 0 75 -23 75 -73c0 -44 -26 -75 -74 -75c-56 0 -75 39 -75 75z" />
    <glyph glyph-name="wdieresis" unicode="&#x1e85;" horiz-adv-x="834" 
d="M352 458v18h258v-18h-41l90 -337l89 337h-69v18h135v-18h-42l-120 -458h-137l-87 307l-94 -307h-134l-148 458h-45v18h303v-18h-60l92 -340l72 234l-25 106h-37zM495 633c0 39 26 73 74 73c43 0 75 -23 75 -73c0 -44 -26 -75 -74 -75c-56 0 -75 39 -75 75zM302 633
c0 39 26 73 74 73c43 0 75 -23 75 -73c0 -44 -26 -75 -74 -75c-56 0 -75 39 -75 75z" />
    <glyph glyph-name="Ygrave" unicode="&#x1ef2;" horiz-adv-x="641" 
d="M397 371l142 313h-101v16h197v-16h-66l-151 -334v-331h61v-19h-317v19h61v312l-170 353h-47v16h320v-16h-65zM290 905l115 -162l-8 -10l-159 65c-27 11 -44 33 -44 58c0 20 12 42 48 45z" />
    <glyph glyph-name="ygrave" unicode="&#x1ef3;" horiz-adv-x="532" 
d="M5 458v18h290v-18h-54l109 -332l116 332h-67v18h141v-18h-50l-187 -539c-45 -129 -97 -169 -176 -169c-75 0 -125 38 -125 101c0 50 32 81 80 81c51 0 83 -22 83 -69c0 -10 -2 -22 -6 -36h-35c-10 -30 -4 -53 25 -53c56 0 96 56 134 164l22 62h-88l-171 458h-41zM279 738
l63 -191l-11 -7l-134 111c-21 19 -29 35 -29 53c0 26 19 54 64 44z" />
    <glyph glyph-name="Ycircumflex" unicode="&#x176;" horiz-adv-x="641" 
d="M397 371l142 313h-101v16h197v-16h-66l-151 -334v-331h61v-19h-317v19h61v312l-170 353h-47v16h320v-16h-65zM190 743l106 148c14 8 37 16 55 16c37 0 55 -14 70 -40l74 -124l-9 -10l-142 68l-146 -68z" />
    <glyph glyph-name="ycircumflex" unicode="&#x177;" horiz-adv-x="532" 
d="M5 458v18h290v-18h-54l109 -332l116 332h-67v18h141v-18h-50l-187 -539c-45 -129 -97 -169 -176 -169c-75 0 -125 38 -125 101c0 50 32 81 80 81c51 0 83 -22 83 -69c0 -10 -2 -22 -6 -36h-35c-10 -30 -4 -53 25 -53c56 0 96 56 134 164l22 62h-88l-171 458h-41zM162 532
l89 190c15 8 37 16 59 16c32 0 52 -18 64 -48l61 -159l-11 -7l-125 104l-125 -105z" />
    <glyph glyph-name="Ydieresis" unicode="&#x178;" horiz-adv-x="641" 
d="M397 371l142 313h-101v16h197v-16h-66l-151 -334v-331h61v-19h-317v19h61v312l-170 353h-47v16h320v-16h-65zM354 821c0 39 26 73 74 73c43 0 75 -23 75 -73c0 -44 -26 -75 -74 -75c-56 0 -75 39 -75 75zM161 821c0 39 26 73 74 73c43 0 75 -23 75 -73
c0 -44 -26 -75 -74 -75c-56 0 -75 39 -75 75z" />
    <glyph glyph-name="Zacute" unicode="&#x179;" horiz-adv-x="612" 
d="M559 700v-22l-296 -655h34c117 0 216 77 257 221h18l-12 -244h-512v19l299 659h-41c-121 0 -163 -41 -239 -199h-18l15 221h495zM218 743l115 162l48 -4c36 -3 48 -25 48 -45c0 -25 -17 -47 -44 -58l-159 -65z" />
    <glyph glyph-name="zacute" unicode="&#x17a;" 
d="M475 476v-18l-237 -440h13c114 0 171 57 207 187h14l-16 -205h-420v15l241 443h-11c-136 0 -170 -32 -211 -174h-13l13 192h420zM191 547l63 191l47 10c45 10 64 -18 64 -44c0 -18 -8 -34 -29 -53l-134 -111z" />
    <glyph glyph-name="Zdotaccent" unicode="&#x17b;" horiz-adv-x="612" 
d="M559 700v-22l-296 -655h34c117 0 216 77 257 221h18l-12 -244h-512v19l299 659h-41c-121 0 -163 -41 -239 -199h-18l15 221h495zM210 846c0 49 27 93 102 93c62 0 99 -31 99 -92c0 -53 -29 -94 -101 -94c-81 0 -100 51 -100 93z" />
    <glyph glyph-name="zdotaccent" unicode="&#x17c;" 
d="M475 476v-18l-237 -440h13c114 0 171 57 207 187h14l-16 -205h-420v15l241 443h-11c-136 0 -170 -32 -211 -174h-13l13 192h420zM160 638c0 49 27 93 102 93c62 0 99 -31 99 -92c0 -53 -29 -94 -101 -94c-81 0 -100 51 -100 93z" />
    <glyph glyph-name="Zcaron" unicode="&#x17d;" horiz-adv-x="612" 
d="M559 700v-22l-296 -655h34c117 0 216 77 257 221h18l-12 -244h-512v19l299 659h-41c-121 0 -163 -41 -239 -199h-18l15 221h495zM466 909l-106 -148c-14 -8 -37 -16 -55 -16c-37 0 -55 14 -70 40l-74 124l9 10l142 -68l146 68z" />
    <glyph glyph-name="zcaron" unicode="&#x17e;" 
d="M475 476v-18l-237 -440h13c114 0 171 57 207 187h14l-16 -205h-420v15l241 443h-11c-136 0 -170 -32 -211 -174h-13l13 192h420zM398 734l-86 -190c-15 -9 -37 -16 -54 -16c-37 0 -57 19 -69 48l-64 159l11 7l126 -106l124 107z" />
    <glyph glyph-name="longs" unicode="&#x17f;" horiz-adv-x="383" 
d="M313 756c-54 0 -62 -44 -62 -120v-618h122v-18h-363v18h55v440h-58v18h58v4c0 182 59 293 239 293c125 0 159 -63 159 -112c0 -60 -36 -87 -83 -87c-54 0 -80 30 -80 71c0 15 3 31 6 43h38c18 49 -4 68 -31 68z" />
    <glyph glyph-name="dotlessj" unicode="&#x237;" horiz-adv-x="311" 
d="M251 476v-390c0 -208 -64 -336 -241 -336c-121 0 -160 60 -160 111c0 60 42 90 92 90c53 0 77 -34 77 -77c0 -14 -3 -30 -6 -42h-38c-23 -36 0 -65 34 -65c45 0 56 33 56 177v514h-65v18h251z" />
    <glyph glyph-name="g_i" horiz-adv-x="823" 
d="M561 604l41 25c5 22 -3 42 -31 42c-18 0 -109 -21 -182 -224c39 -26 66 -58 66 -124c0 -114 -82 -171 -204 -171c-29 0 -60 4 -81 8c-35 -22 -44 -33 -44 -42s11 -14 64 -14h102c113 0 227 -27 227 -163c0 -111 -80 -191 -282 -191c-174 0 -247 42 -247 107
c0 50 42 70 77 80l60 -27c-6 -22 -8 -39 -8 -55c0 -42 21 -86 128 -86c106 0 162 43 162 106c0 48 -22 67 -127 67h-97c-119 0 -151 49 -151 93c0 57 36 85 114 132c-78 22 -116 69 -116 152c0 94 65 167 216 167c49 0 88 -9 121 -27c78 212 179 274 274 274
c65 0 115 -40 115 -109c0 -63 -48 -96 -100 -96c-53 0 -88 31 -97 76zM199 341v-54c0 -94 17 -115 47 -115c27 0 44 16 44 120v49c0 112 -16 127 -43 127c-28 0 -48 -18 -48 -127zM512 476h245v-458h56v-18h-277v18h35v440h-59v18z" />
    <glyph glyph-name="v_i" horiz-adv-x="839" 
d="M0 458v18h299v-18h-63l120 -332c34 124 63 222 103 350c67 208 126 257 218 257c61 0 107 -38 107 -100c0 -63 -41 -105 -101 -105c-48 0 -86 28 -95 73l40 30c5 22 -5 38 -25 38c-26 0 -59 -26 -120 -211c-51 -156 -87 -292 -134 -458h-123l-185 458h-41zM528 476h245
v-458h56v-18h-297v18h55v440h-59v18z" />
    <glyph glyph-name="w_i" horiz-adv-x="1141" 
d="M352 458v18h258v-18h-41l90 -337c31 129 55 229 86 341c62 227 142 271 227 271c65 0 111 -38 111 -100c0 -63 -41 -105 -101 -105c-48 0 -86 28 -95 73l40 30c5 22 -5 38 -25 38c-26 0 -71 -16 -128 -213c-44 -151 -73 -281 -114 -456h-145l-87 307l-94 -307h-134
l-148 458h-45v18h303v-18h-60l92 -340l72 234l-25 106h-37zM830 476h245v-458h56v-18h-297v18h55v440h-59v18z" />
    <glyph glyph-name="circumflex" unicode="&#x2c6;" 
d="M118 532l89 190c15 8 37 16 59 16c32 0 52 -18 64 -48l61 -159l-11 -7l-125 104l-125 -105z" />
    <glyph glyph-name="caron" unicode="&#x2c7;" 
d="M391 719l-86 -190c-15 -9 -37 -16 -54 -16c-37 0 -57 19 -69 48l-64 159l11 7l126 -106l124 107z" />
    <glyph glyph-name="uni02C9" unicode="&#x2c9;" 
d="M114 552v95h272v-95h-272z" />
    <glyph glyph-name="breve" unicode="&#x2d8;" 
d="M108 706l16 3c19 -56 56 -68 128 -68c70 0 108 8 125 68l15 -3c-10 -100 -45 -180 -142 -180c-104 0 -128 80 -142 180z" />
    <glyph glyph-name="dieresis" unicode="&#xa8;" 
d="M291 618c0 39 26 73 74 73c43 0 75 -23 75 -73c0 -44 -26 -75 -74 -75c-56 0 -75 39 -75 75zM98 618c0 39 26 73 74 73c43 0 75 -23 75 -73c0 -44 -26 -75 -74 -75c-56 0 -75 39 -75 75z" />
    <glyph glyph-name="macron" unicode="&#xaf;" 
d="M114 552v95h272v-95h-272z" />
    <glyph glyph-name="degree" unicode="&#xb0;" horiz-adv-x="329" 
d="M76 627c0 -53 30 -92 90 -92c54 0 88 39 88 92c0 56 -35 92 -91 92c-54 0 -87 -38 -87 -92zM40 627c0 64 44 120 127 120c80 0 122 -48 122 -118c0 -68 -44 -123 -125 -123c-84 0 -124 52 -124 121z" />
    <glyph glyph-name="acute" unicode="&#xb4;" 
d="M163 532l63 191l47 10c45 10 64 -18 64 -44c0 -18 -8 -34 -29 -53l-134 -111z" />
    <glyph glyph-name="grave" unicode="`" 
d="M246 723l63 -191l-11 -7l-134 111c-21 19 -29 35 -29 53c0 26 19 54 64 44z" />
    <glyph glyph-name="cedilla" unicode="&#xb8;" 
d="M244 13h26l-40 -68c7 1 21 3 33 3c74 0 105 -36 105 -89c0 -45 -33 -104 -136 -104c-62 0 -103 28 -103 66c0 28 18 45 43 45s40 -19 46 -38l-26 -20c0 -16 8 -37 34 -37c25 0 36 20 36 77c0 52 -1 82 -32 82c-9 0 -18 -1 -30 -4l-3 9z" />
    <glyph glyph-name="dotaccent" unicode="&#x2d9;" 
d="M146 623c0 49 27 93 102 93c62 0 99 -31 99 -92c0 -53 -29 -94 -101 -94c-81 0 -100 51 -100 93z" />
    <glyph glyph-name="ring" unicode="&#x2da;" 
d="M179 617c0 -37 16 -73 72 -73c50 0 71 34 71 73c0 37 -21 71 -73 71s-70 -35 -70 -71zM149 617c0 52 33 95 103 95c66 0 99 -39 99 -93c0 -58 -36 -99 -101 -99c-71 0 -101 40 -101 97z" />
    <glyph glyph-name="ogonek" unicode="&#x2db;" 
d="M286 10l13 1l7 -6c-50 -38 -69 -84 -69 -152c0 -50 9 -63 32 -63c19 0 36 15 55 43l13 -8c-23 -38 -51 -76 -120 -76c-56 0 -100 26 -100 83c0 54 18 86 110 142z" />
    <glyph glyph-name="tilde" unicode="&#x2dc;" 
d="M310 548c-54 0 -113 40 -154 40c-14 0 -40 -5 -55 -41l-12 4c27 88 53 146 117 146c50 0 108 -40 145 -40c20 0 45 3 58 42l13 -4c-27 -107 -63 -147 -112 -147z" />
    <glyph glyph-name="hungarumlaut" unicode="&#x2dd;" 
d="M249 532l63 191l47 10c45 10 64 -18 64 -44c0 -18 -8 -34 -29 -53l-134 -111zM101 531l53 194l46 13c44 12 65 -15 66 -41c1 -18 -6 -34 -26 -54l-128 -118z" />
    <glyph glyph-name="perthousand" unicode="&#x2030;" horiz-adv-x="1077" 
d="M708 142c0 100 74 160 175 160c96 0 169 -44 169 -152c0 -107 -83 -160 -173 -160c-108 0 -171 61 -171 152zM831 143c0 -95 0 -137 50 -137c49 0 49 48 49 142c0 100 -1 138 -48 138c-51 0 -51 -39 -51 -143zM330 142c0 100 74 160 175 160c96 0 169 -44 169 -152
c0 -107 -83 -160 -173 -160c-108 0 -171 61 -171 152zM453 143c0 -95 0 -137 50 -137c49 0 49 48 49 142c0 100 -1 138 -48 138c-51 0 -51 -39 -51 -143zM30 551c0 100 74 160 175 160c96 0 169 -44 169 -152c0 -107 -83 -160 -173 -160c-108 0 -171 61 -171 152zM153 552
c0 -95 0 -137 50 -137c49 0 49 48 49 142c0 100 -1 138 -48 138c-51 0 -51 -39 -51 -143zM103 0l451 700h40l-450 -700h-41z" />
    <glyph glyph-name="percent" unicode="%" horiz-adv-x="768" 
d="M399 154c0 100 68 174 175 174c105 0 169 -58 169 -166c0 -107 -75 -172 -173 -172c-113 0 -171 73 -171 164zM522 155c0 -95 0 -149 50 -149c49 0 49 60 49 154c0 100 -1 152 -48 152c-51 0 -51 -53 -51 -157zM154 0l421 700h40l-420 -700h-41zM30 537
c0 100 68 174 175 174c105 0 169 -58 169 -166c0 -107 -75 -172 -173 -172c-113 0 -171 73 -171 164zM153 538c0 -95 0 -149 50 -149c49 0 49 60 49 154c0 100 -1 152 -48 152c-51 0 -51 -53 -51 -157z" />
    <glyph glyph-name="fraction" unicode="&#x2044;" horiz-adv-x="200" 
d="M-82 0l321 700h34l-320 -700h-35z" />
    <glyph glyph-name="onesuperior" unicode="&#xb9;" horiz-adv-x="425" 
d="M160 791l-72 -8l-2 19l144 19h71v-408h68v-19h-278v19h69v378z" />
    <glyph glyph-name="twosuperior" unicode="&#xb2;" horiz-adv-x="417" 
d="M195 823c95 0 160 -33 160 -109c0 -75 -47 -112 -210 -198l-38 -20h160c61 0 77 29 86 75h15l-7 -177h-304v84l64 51c84 67 109 112 109 197c0 47 -6 79 -48 79c-32 0 -58 -25 -42 -62h20c3 -9 5 -17 5 -29c0 -31 -24 -50 -55 -50c-41 0 -60 28 -60 60c0 53 50 99 145 99
z" />
    <glyph glyph-name="threesuperior" unicode="&#xb3;" horiz-adv-x="422" 
d="M203 819c108 0 146 -37 146 -96c0 -52 -46 -87 -128 -100v-1c107 -7 150 -52 150 -111c0 -76 -67 -125 -182 -125c-60 0 -140 14 -140 88c0 32 21 61 60 61c32 0 55 -18 55 -48c0 -11 -3 -20 -6 -28h-15c-4 -8 -6 -15 -6 -22c0 -22 21 -35 50 -35c52 0 60 43 60 107
s-17 85 -47 99c-20 -4 -30 -5 -54 -8l-2 18c72 7 85 24 85 104c0 52 -7 82 -40 82c-26 0 -43 -13 -43 -36c0 -7 1 -14 4 -22h16c3 -8 6 -16 6 -28c0 -28 -25 -48 -57 -48c-39 0 -57 27 -57 58c0 51 50 91 145 91z" />
    <glyph glyph-name="foursuperior" unicode="&#x2074;" horiz-adv-x="483" 
d="M159 394v19h58v79h-168v21l175 301h127v-298h62v52h19v-118h-19v42h-62v-79h43v-19h-235zM78 516h139v238z" />
    <glyph glyph-name="onehalf" unicode="&#xbd;" horiz-adv-x="820" 
d="M228 0l321 700h34l-320 -700h-35zM107 671l-72 -8l-2 19l144 19h71v-408h68v-19h-278v19h69v378zM614 429c95 0 160 -33 160 -109c0 -75 -47 -112 -210 -198l-38 -20h160c61 0 77 29 86 75h15l-7 -177h-304v84l64 51c84 67 109 112 109 197c0 47 -6 79 -48 79
c-32 0 -58 -25 -42 -62h20c3 -9 5 -17 5 -29c0 -31 -24 -50 -55 -50c-41 0 -60 28 -60 60c0 53 50 99 145 99z" />
    <glyph glyph-name="onequarter" unicode="&#xbc;" horiz-adv-x="820" 
d="M239 0l321 700h34l-320 -700h-35zM118 671l-72 -8l-2 19l144 19h71v-408h68v-19h-278v19h69v378zM523 0v19h58v79h-168v21l175 301h127v-298h62v52h19v-118h-19v42h-62v-79h43v-19h-235zM442 122h139v238z" />
    <glyph glyph-name="threequarters" unicode="&#xbe;" horiz-adv-x="820" 
d="M254 0l321 700h34l-320 -700h-35zM538 0v19h58v79h-168v21l175 301h127v-298h62v52h19v-118h-19v42h-62v-79h43v-19h-235zM457 122h139v238zM182 699c108 0 146 -37 146 -96c0 -52 -46 -87 -128 -100v-1c107 -7 150 -52 150 -111c0 -76 -67 -125 -182 -125
c-60 0 -140 14 -140 88c0 32 21 61 60 61c32 0 55 -18 55 -48c0 -11 -3 -20 -6 -28h-15c-4 -8 -6 -15 -6 -22c0 -22 21 -35 50 -35c52 0 60 43 60 107s-17 85 -47 99c-20 -4 -30 -5 -54 -8l-2 18c72 7 85 24 85 104c0 52 -7 82 -40 82c-26 0 -43 -13 -43 -36
c0 -7 1 -14 4 -22h16c3 -8 6 -16 6 -28c0 -28 -25 -48 -57 -48c-39 0 -57 27 -57 58c0 51 50 91 145 91z" />
    <glyph glyph-name="minus" unicode="&#x2212;" horiz-adv-x="530" 
d="M492 301h-454v33h454v-33z" />
    <glyph glyph-name="uni2215" unicode="&#x2215;" horiz-adv-x="200" 
d="M-82 0l321 700h34l-320 -700h-35z" />
    <glyph glyph-name="uni2219" unicode="&#x2219;" horiz-adv-x="300" 
d="M70 321c0 49 30 88 86 88c52 0 89 -26 89 -85c0 -53 -30 -89 -86 -89c-67 0 -89 46 -89 86z" />
    <glyph glyph-name="approxequal" unicode="&#x2248;" horiz-adv-x="530" 
d="M388 118c-74 0 -179 53 -246 53c-36 0 -57 -17 -81 -55l-26 14c26 44 55 72 106 72c73 0 176 -53 245 -53c33 0 59 13 82 55l26 -14c-23 -45 -55 -72 -106 -72zM388 287c-74 0 -179 53 -246 53c-36 0 -57 -17 -81 -55l-26 14c26 44 55 72 106 72c73 0 176 -53 245 -53
c33 0 59 13 82 55l26 -14c-23 -45 -55 -72 -106 -72z" />
    <glyph glyph-name="notequal" unicode="&#x2260;" horiz-adv-x="530" 
d="M492 190h-287l-110 -130l-21 19l93 111h-129v33h157l104 123h-261v33h289l85 101l24 -19l-70 -82h126v-33h-154l-105 -123h259v-33z" />
    <glyph glyph-name="lessequal" unicode="&#x2264;" horiz-adv-x="530" 
d="M492 0h-454v33h454v-33zM491 86l-452 194v26l452 191v-35l-398 -168l398 -171v-37z" />
    <glyph glyph-name="greaterequal" unicode="&#x2265;" horiz-adv-x="530" 
d="M38 0h454v33h-454v-33zM39 497l452 -194v-26l-452 -191v35l398 170l-398 169v37z" />
    <glyph glyph-name="less" unicode="&#x3c;" horiz-adv-x="530" 
d="M491 86l-452 194v26l452 191v-35l-398 -168l398 -171v-37z" />
    <glyph glyph-name="equal" unicode="=" horiz-adv-x="530" 
d="M492 190h-454v33h454v-33zM38 379h454v-33h-454v33z" />
    <glyph glyph-name="greater" unicode="&#x3e;" horiz-adv-x="530" 
d="M39 497l452 -194v-26l-452 -191v35l398 170l-398 169v37z" />
    <glyph glyph-name="logicalnot" unicode="&#xac;" horiz-adv-x="530" 
d="M457 167v134h-419v33h454v-167h-35z" />
    <glyph glyph-name="plus" unicode="+" horiz-adv-x="530" 
d="M492 301h-211v-209h-38v209h-205v33h205v196h38v-196h211v-33z" />
    <glyph glyph-name="plusminus" unicode="&#xb1;" horiz-adv-x="530" 
d="M492 301h-212v-189h-38v189h-204v33h204v176h38v-176h212v-33zM492 0h-454v33h454v-33z" />
    <glyph glyph-name="divide" unicode="&#xf7;" horiz-adv-x="530" 
d="M213 446c0 31 19 55 55 55c33 0 57 -17 57 -54c0 -34 -19 -57 -55 -57c-43 0 -57 28 -57 56zM213 192c0 31 19 55 55 55c33 0 57 -17 57 -54c0 -34 -19 -57 -55 -57c-43 0 -57 28 -57 56zM492 301h-454v33h454v-33z" />
    <glyph glyph-name="multiply" unicode="&#xd7;" horiz-adv-x="530" 
d="M437 464l-150 -149l148 -148l-24 -23l-147 147l-148 -148l-24 24l148 148l-147 148l23 24l148 -148l149 149z" />
    <glyph glyph-name="partialdiff" unicode="&#x2202;" horiz-adv-x="604" 
d="M303 671c135 0 256 -88 256 -279c0 -194 -100 -403 -320 -403c-138 0 -211 70 -211 196c0 114 65 227 224 227c65 0 119 -22 136 -90c10 53 18 88 18 139c0 133 -46 193 -119 193c-49 0 -56 -27 -56 -53c0 -6 1 -21 5 -30h20c4 -12 7 -23 7 -39c0 -39 -31 -65 -72 -65
c-50 0 -77 38 -77 78c0 71 60 126 189 126zM303 386c-94 0 -108 -191 -108 -268c0 -72 12 -108 57 -108c66 0 109 142 109 288c0 48 -12 88 -58 88z" />
    <glyph glyph-name="Omega" unicode="&#x2126;" horiz-adv-x="852" 
d="M477 0v105c77 65 85 92 85 278c0 142 10 307 -123 307c-139 0 -132 -154 -132 -304c0 -193 4 -228 56 -280v-106h-306l-12 264h17c23 -118 64 -146 193 -146h70c-144 65 -228 141 -228 287c0 183 123 306 340 306c214 0 330 -111 330 -297c0 -166 -152 -244 -250 -296h82
c129 0 170 28 193 146h15l-12 -264h-318z" />
    <glyph glyph-name="Delta" unicode="&#x2206;" horiz-adv-x="625" 
d="M625 0h-625l283 716h82zM239 529l-192 -484h351z" />
    <glyph glyph-name="product" unicode="&#x220f;" horiz-adv-x="786" 
d="M20 700h746v-18h-79v-813h79v-20h-333v20h59v812h-199v-812h59v-20h-332v20h79v812h-79v19z" />
    <glyph glyph-name="summation" unicode="&#x2211;" horiz-adv-x="679" 
d="M602 -151h-599l-10 18l311 357l-313 462l10 14h574l8 -188h-19c-26 122 -65 159 -190 159h-169l238 -347l-300 -336h230c153 0 195 42 218 178h19z" />
    <glyph glyph-name="uni0394" unicode="&#x394;" horiz-adv-x="625" 
d="M625 0h-625l283 716h82zM239 529l-192 -484h351z" />
    <glyph glyph-name="uni03A9" unicode="&#x3a9;" horiz-adv-x="852" 
d="M477 0v105c77 65 85 92 85 278c0 142 10 307 -123 307c-139 0 -132 -154 -132 -304c0 -193 4 -228 56 -280v-106h-306l-12 264h17c23 -118 64 -146 193 -146h70c-144 65 -228 141 -228 287c0 183 123 306 340 306c214 0 330 -111 330 -297c0 -166 -152 -244 -250 -296h82
c129 0 170 28 193 146h15l-12 -264h-318z" />
    <glyph glyph-name="uni03BC" unicode="&#x3bc;" horiz-adv-x="673" 
d="M268 501v-343c0 -66 -1 -119 40 -119c36 0 78 51 78 142v311l177 9v-416c0 -34 11 -43 29 -43s35 19 40 103l15 -1c-5 -120 -42 -154 -128 -154c-79 0 -121 43 -133 99c-20 -56 -66 -100 -125 -100c-39 0 -81 9 -117 85l-4 -3l58 -142c22 -54 36 -82 36 -107
c0 -30 -33 -52 -63 -45l-91 19v696z" />
    <glyph glyph-name="pi" unicode="&#x3c0;" horiz-adv-x="627" 
d="M461 363h-44c-8 -65 -10 -90 -10 -142c0 -43 17 -126 85 -126c38 0 63 19 76 67l15 -4c-12 -78 -54 -169 -127 -169c-75 0 -95 57 -95 128c0 78 15 109 34 248l-171 11c1 -151 1 -238 -10 -300c-13 -69 -46 -87 -79 -87c-42 0 -64 30 -64 61c0 28 10 43 42 85
c51 66 82 101 90 243c-14 0 -58 3 -64 3c-29 0 -42 -8 -60 -44l-18 7c19 106 50 177 108 177c51 0 289 -17 341 -17c23 0 35 9 49 43l18 -6c-23 -115 -49 -178 -116 -178z" />
    <glyph glyph-name="mu" unicode="&#xb5;" horiz-adv-x="673" 
d="M268 501v-343c0 -66 -1 -119 40 -119c36 0 78 51 78 142v311l177 9v-416c0 -34 11 -43 29 -43s35 19 40 103l15 -1c-5 -120 -42 -154 -128 -154c-79 0 -121 43 -133 99c-20 -56 -66 -100 -125 -100c-39 0 -81 9 -117 85l-4 -3l58 -142c22 -54 36 -82 36 -107
c0 -30 -33 -52 -63 -45l-91 19v696z" />
    <glyph glyph-name="radical" unicode="&#x221a;" horiz-adv-x="547" 
d="M533 744l-168 -744h-90l-179 383l-71 -33l-11 24l237 105l125 -289l127 560z" />
    <glyph glyph-name="infinity" unicode="&#x221e;" horiz-adv-x="685" 
d="M625 249c0 -81 -56 -146 -133 -146c-57 0 -113 30 -172 96c-44 -55 -83 -91 -142 -91c-75 0 -118 59 -118 125c0 94 71 148 134 148c52 0 92 -16 159 -79c50 55 99 75 153 75c67 0 119 -43 119 -128zM590 262c0 40 -24 84 -89 84c-46 0 -88 -23 -128 -65
c44 -43 97 -98 147 -98c40 0 70 27 70 79zM181 137c46 0 80 31 119 84c-45 42 -92 82 -141 82c-35 0 -68 -27 -68 -73c0 -38 28 -93 90 -93z" />
    <glyph glyph-name="integral" unicode="&#x222b;" horiz-adv-x="489" 
d="M259 597c0 -92 24 -183 39 -281c11 -75 35 -183 35 -270c0 -133 -68 -257 -228 -257c-71 0 -143 36 -143 107c0 52 32 89 88 89c53 0 83 -42 63 -96l-40 -4c-20 -33 -7 -70 35 -70c52 0 77 26 77 133c0 87 -26 202 -41 309c-8 54 -32 166 -32 239c0 131 77 239 232 239
c71 0 146 -37 146 -108c0 -51 -29 -86 -81 -86c-53 0 -84 41 -70 95l40 3c5 12 8 22 8 37c0 33 -29 37 -53 37c-47 0 -75 -36 -75 -116z" />
    <glyph glyph-name="lozenge" unicode="&#x25ca;" horiz-adv-x="475" 
d="M440 310l-202 -322l-203 322l203 322zM401 309l-164 265l-165 -262l169 -268z" />
    <glyph glyph-name="commaaccent" 
d="M221 -290l-11 15c50 38 63 65 63 83c0 19 -7 28 -18 33l-31 -31c-22 8 -49 29 -49 67c0 45 29 69 71 69c50 0 77 -36 77 -91c0 -56 -32 -104 -102 -145z" />
    <glyph glyph-name="revcommaaccent" 
d="M279 776l11 -15c-50 -38 -63 -65 -63 -83c0 -19 7 -28 18 -33l31 31c22 -8 49 -29 49 -67c0 -45 -29 -69 -71 -69c-50 0 -77 36 -77 91c0 56 32 104 102 145z" />
    <glyph glyph-name="tilde.cap" 
d="M310 752c-54 0 -113 40 -154 40c-14 0 -40 -5 -55 -41l-12 4c27 88 43 138 107 138c50 0 108 -40 145 -40c20 0 45 3 58 42l13 -4c-27 -107 -53 -139 -102 -139z" />
    <glyph glyph-name="ring.cap" 
d="M179 836c0 -37 16 -73 72 -73c50 0 71 34 71 73c0 37 -21 71 -73 71s-70 -35 -70 -71zM149 836c0 52 33 95 103 95c66 0 99 -39 99 -93c0 -58 -36 -99 -101 -99c-71 0 -101 40 -101 97z" />
    <glyph glyph-name="circumflex.cap" 
d="M98 743l106 148c14 8 37 16 55 16c37 0 55 -14 70 -40l74 -124l-9 -10l-142 68l-146 -68z" />
    <glyph glyph-name="acute.cap" 
d="M160 743l115 162l48 -4c36 -3 48 -25 48 -45c0 -25 -17 -47 -44 -58l-159 -65z" />
    <glyph glyph-name="grave.cap" 
d="M225 905l115 -162l-8 -10l-159 65c-27 11 -44 33 -44 58c0 20 12 42 48 45z" />
    <glyph glyph-name="dieresis.cap" 
d="M272 821c0 39 26 73 74 73c43 0 75 -23 75 -73c0 -44 -26 -75 -74 -75c-56 0 -75 39 -75 75zM79 821c0 39 26 73 74 73c43 0 75 -23 75 -73c0 -44 -26 -75 -74 -75c-56 0 -75 39 -75 75z" />
    <glyph glyph-name="caron.cap" 
d="M402 909l-106 -148c-14 -8 -37 -16 -55 -16c-37 0 -55 14 -70 40l-74 124l9 10l142 -68l146 68z" />
    <glyph glyph-name="macron.cap" 
d="M114 770v97h272v-97h-272z" />
    <glyph glyph-name="dotaccent.cap" 
d="M149 846c0 49 27 93 102 93c62 0 99 -31 99 -92c0 -53 -29 -94 -101 -94c-81 0 -100 51 -100 93z" />
    <glyph glyph-name="cedilla.cap" 
d="M244 13h26l-40 -68c7 1 21 3 33 3c74 0 105 -36 105 -89c0 -45 -33 -104 -136 -104c-62 0 -103 28 -103 66c0 28 18 45 43 45s40 -19 46 -38l-26 -20c0 -16 8 -37 34 -37c25 0 36 20 36 77c0 52 -1 82 -32 82c-9 0 -18 -1 -30 -4l-3 9z" />
    <glyph glyph-name="hungarumlaut.cap" 
d="M245 742l88 174l45 5c41 5 53 -19 53 -41c0 -24 -16 -43 -35 -55l-141 -91zM104 742l76 180l44 7c40 7 55 -14 55 -38c0 -21 -11 -43 -29 -56l-135 -101z" />
    <glyph glyph-name="apostrophe" unicode="&#x2bc;" horiz-adv-x="211" 
d="M74 491l-11 15c50 38 63 63 63 81c0 19 -7 28 -18 33l-29 -29c-22 8 -45 28 -45 65c0 42 29 65 65 65c44 0 71 -35 71 -89s-26 -100 -96 -141z" />
    <glyph glyph-name="commaaccent.cap" 
d="M221 -290l-11 15c50 38 63 65 63 83c0 19 -7 28 -18 33l-31 -31c-22 8 -49 29 -49 67c0 45 29 69 71 69c50 0 77 -36 77 -91c0 -56 -32 -104 -102 -145z" />
    <glyph glyph-name="breve.cap" 
d="M108 918l16 3c19 -56 56 -68 128 -68c70 0 108 8 125 68l15 -3c-10 -97 -45 -172 -142 -172c-104 0 -129 75 -142 172z" />
    <glyph glyph-name="caron.alt" 
d="M194 521l-12 13c32 35 42 75 42 102c0 30 -22 53 -45 73l22 22c19 19 36 29 55 29c42 0 62 -35 62 -70c0 -53 -45 -113 -124 -169z" />
    <glyph glyph-name="ogonek.cap" 
d="M286 10l13 1l7 -6c-50 -38 -69 -84 -69 -152c0 -50 9 -63 32 -63c19 0 36 15 55 43l13 -8c-23 -38 -51 -76 -120 -76c-56 0 -100 26 -100 83c0 54 18 86 110 142z" />
    </font>
</defs>
</svg>
